M48
; DRILL file {KiCad 8.0.6} date 2026-08-27T20:10:37-0400
; FORMAT={-:-/ absolute / metric / decimal}
; #@! TF.CreationDate,2026-08-27T20:10:37-04:00
; #@! TF.GenerationSoftware,Kicad,Pcbnew,8.0.6
; #@! TF.FileFunction,Plated,1,2,PTH
FMAT,2
METRIC
; #@! TA.AperFunction,Plated,PTH,ViaDrill
T1C0.300
; #@! TA.AperFunction,Plated,PTH,ComponentDrill
T2C0.900
; #@! TA.AperFunction,Plated,PTH,ComponentDrill
T3C1.000
; #@! TA.AperFunction,Plated,PTH,ComponentDrill
T4C1.500
; #@! TA.AperFunction,Plated,PTH,ComponentDrill
T5C2.600
%
G90
G05
T1
X102.0Y-102.0
X104.0Y-97.5
T2
X128.2Y-82.2
X128.2Y-84.2
X128.2Y-86.2
T3
X91.5Y-79.0
X91.5Y-81.54
X91.5Y-84.08
X91.5Y-86.62
X91.5Y-89.16
X91.5Y-91.7
X91.5Y-94.24
X91.5Y-96.78
X91.5Y-99.32
X91.5Y-108.225
X91.5Y-110.765
X98.76Y-116.5
X101.3Y-116.5
X103.84Y-116.5
X106.38Y-116.5
X107.0Y-78.96
X107.0Y-81.5
X107.0Y-84.04
X107.0Y-86.58
X107.0Y-89.12
X107.0Y-91.66
X107.0Y-94.2
X107.0Y-96.74
X107.0Y-99.28
X108.92Y-116.5
X111.46Y-116.5
X114.0Y-116.5
X116.54Y-116.5
X117.0Y-124.25
X117.0Y-138.75
X119.5Y-124.25
X122.0Y-124.25
X122.0Y-138.75
X128.025Y-95.2
X128.025Y-97.74
X128.025Y-100.28
X128.025Y-102.82
T4
X128.2Y-80.1
X128.2Y-88.3
T5
X113.9Y-131.75
X125.1Y-131.75
M30
