%TF.GenerationSoftware,KiCad,Pcbnew,8.0.6*%
%TF.CreationDate,2026-08-27T20:10:11-04:00*%
%TF.ProjectId,miniextremeV1.1FINAL,6d696e69-6578-4747-9265-6d6556312e31,rev?*%
%TF.SameCoordinates,Original*%
%TF.FileFunction,Soldermask,Bot*%
%TF.FilePolarity,Negative*%
%FSLAX46Y46*%
G04 Gerber Fmt 4.6, Leading zero omitted, Abs format (unit mm)*
G04 Created by KiCad (PCBNEW 8.0.6) date 2026-08-27 20:10:11*
%MOMM*%
%LPD*%
G01*
G04 APERTURE LIST*
%ADD10C,0.150000*%
%ADD11C,1.700000*%
%ADD12O,1.700000X1.700000*%
%ADD13R,1.700000X1.700000*%
%ADD14R,2.000000X2.000000*%
%ADD15C,2.000000*%
%ADD16C,3.200000*%
%ADD17C,2.200000*%
%ADD18O,3.500000X2.200000*%
%ADD19O,2.500000X1.500000*%
G04 APERTURE END LIST*
D10*
G36*
X110426029Y-136337906D02*
G01*
X110476038Y-136335830D01*
X110525436Y-136329602D01*
X110525436Y-136037487D01*
X110521284Y-135686999D01*
X110512735Y-135680160D01*
X110462684Y-135680984D01*
X110404983Y-135684333D01*
X110352684Y-135690258D01*
X110297057Y-135700768D01*
X110249209Y-135714988D01*
X110209141Y-135732916D01*
X110164402Y-135764140D01*
X110128919Y-135803590D01*
X110102692Y-135851266D01*
X110085722Y-135907168D01*
X110078651Y-135960037D01*
X110077494Y-135994501D01*
X110080843Y-136051152D01*
X110090889Y-136103322D01*
X110107633Y-136151010D01*
X110131075Y-136194215D01*
X110161214Y-136232938D01*
X110172749Y-136244849D01*
X110210602Y-136276474D01*
X110252903Y-136301556D01*
X110299651Y-136320094D01*
X110350848Y-136332090D01*
X110406492Y-136337542D01*
X110426029Y-136337906D01*
G37*
G36*
X110610676Y-136790000D02*
G01*
X110992916Y-136788534D01*
X111000000Y-136773391D01*
X110999905Y-136717163D01*
X110999682Y-136667380D01*
X110999328Y-136614938D01*
X110998842Y-136559837D01*
X110998226Y-136502076D01*
X110997478Y-136441656D01*
X110997313Y-136429253D01*
X110991695Y-136031137D01*
X110991008Y-135982185D01*
X110990278Y-135923454D01*
X110989692Y-135867453D01*
X110989248Y-135814184D01*
X110988948Y-135763645D01*
X110988776Y-135706604D01*
X110988764Y-135688464D01*
X110967759Y-135680160D01*
X110921598Y-135680160D01*
X110870788Y-135680303D01*
X110820027Y-135680732D01*
X110769313Y-135681448D01*
X110759176Y-135681625D01*
X110595289Y-135684312D01*
X110591137Y-135688464D01*
X110610676Y-136790000D01*
G37*
G36*
X109108583Y-136788534D02*
G01*
X109300314Y-136790000D01*
X109351584Y-136789536D01*
X109401186Y-136788534D01*
X109503279Y-136785847D01*
X109560676Y-136536964D01*
X109597069Y-136524263D01*
X109642009Y-136524263D01*
X109651779Y-136536964D01*
X109608304Y-136778520D01*
X109656343Y-136789282D01*
X109688171Y-136790000D01*
X109721632Y-136790000D01*
X109753872Y-136790000D01*
X109787578Y-136790000D01*
X109842525Y-136789532D01*
X109896024Y-136788130D01*
X109948073Y-136785792D01*
X109998673Y-136782520D01*
X110026936Y-136780230D01*
X110026936Y-136749455D01*
X110016617Y-136693798D01*
X110003718Y-136642088D01*
X109990657Y-136592856D01*
X109974695Y-136534668D01*
X109955830Y-136467525D01*
X109941641Y-136417787D01*
X109926162Y-136364069D01*
X109909393Y-136306371D01*
X109891334Y-136244692D01*
X109871986Y-136179032D01*
X109861828Y-136144710D01*
X109846934Y-136094397D01*
X109832934Y-136047566D01*
X109817315Y-135995966D01*
X109800720Y-135942104D01*
X109785879Y-135895067D01*
X109781960Y-135882882D01*
X109762303Y-135928843D01*
X109751770Y-135982090D01*
X109746789Y-136015994D01*
X109717480Y-136218960D01*
X109703246Y-136270106D01*
X109679479Y-136313560D01*
X109658618Y-136322519D01*
X109609769Y-136321053D01*
X109602686Y-136305666D01*
X109604309Y-136256172D01*
X109609178Y-136202763D01*
X109617292Y-136145439D01*
X109626533Y-136094677D01*
X109638029Y-136041197D01*
X109648848Y-135996454D01*
X109727250Y-135688464D01*
X109716015Y-135680160D01*
X109322784Y-135688464D01*
X109304393Y-135734686D01*
X109287817Y-135790631D01*
X109274298Y-135843654D01*
X109259847Y-135906161D01*
X109244465Y-135978152D01*
X109233692Y-136031416D01*
X109222506Y-136088894D01*
X109210905Y-136150587D01*
X109198891Y-136216495D01*
X109186462Y-136286619D01*
X109173619Y-136360957D01*
X109160362Y-136439511D01*
X109101500Y-136784382D01*
X109108583Y-136788534D01*
G37*
G36*
X108059316Y-136164249D02*
G01*
X108067620Y-136164249D01*
X108092085Y-136119681D01*
X108116478Y-136075125D01*
X108140800Y-136030580D01*
X108165050Y-135986047D01*
X108189228Y-135941527D01*
X108213336Y-135897018D01*
X108222958Y-135879218D01*
X108211723Y-135874822D01*
X108228576Y-135870669D01*
X108325052Y-135687243D01*
X108322365Y-135680160D01*
X108063468Y-135680160D01*
X108057850Y-135685778D01*
X108059316Y-136164249D01*
G37*
G36*
X108343370Y-136360132D02*
G01*
X108343679Y-136413801D01*
X108343996Y-136467339D01*
X108344320Y-136520748D01*
X108344652Y-136574028D01*
X108344992Y-136627177D01*
X108345339Y-136680197D01*
X108345694Y-136733087D01*
X108346057Y-136785847D01*
X108362909Y-136790000D01*
X108739532Y-136782916D01*
X108743684Y-136778764D01*
X108746615Y-136454410D01*
X108746442Y-136401658D01*
X108746151Y-136344106D01*
X108745858Y-136291577D01*
X108745572Y-136242701D01*
X108745240Y-136187735D01*
X108745150Y-136173042D01*
X108743684Y-135890453D01*
X108736845Y-135886057D01*
X108743684Y-135883370D01*
X108742463Y-135688709D01*
X108732693Y-135680160D01*
X108347522Y-135680160D01*
X108341905Y-135684312D01*
X108343370Y-136360132D01*
G37*
G36*
X109006978Y-136160097D02*
G01*
X109016748Y-136153258D01*
X109015282Y-135890209D01*
X109008443Y-135886057D01*
X109015282Y-135883370D01*
X109016748Y-135689685D01*
X109004047Y-135680160D01*
X108952276Y-135680160D01*
X108920272Y-135680160D01*
X108808164Y-135680160D01*
X108763468Y-135685778D01*
X108785811Y-135733928D01*
X108809883Y-135784346D01*
X108831894Y-135829366D01*
X108855175Y-135876051D01*
X108879727Y-135924403D01*
X108903014Y-135968573D01*
X108928848Y-136016880D01*
X108953019Y-136061580D01*
X108979063Y-136109319D01*
X109006978Y-136160097D01*
G37*
G36*
X107084542Y-136788534D02*
G01*
X107475331Y-136790000D01*
X107482046Y-136740815D01*
X107483432Y-136690257D01*
X107483635Y-136654689D01*
X107483635Y-136560411D01*
X107482414Y-136520600D01*
X107482414Y-136483475D01*
X107486566Y-136331067D01*
X107531263Y-136321053D01*
X107567655Y-136321053D01*
X107578890Y-136332533D01*
X107578890Y-136779986D01*
X107588660Y-136790000D01*
X107982135Y-136790000D01*
X107989218Y-136781695D01*
X107991905Y-135684312D01*
X107983600Y-135680160D01*
X107931952Y-135680422D01*
X107878027Y-135681010D01*
X107821652Y-135681800D01*
X107766503Y-135682681D01*
X107756699Y-135682847D01*
X107590125Y-135685533D01*
X107583879Y-135735622D01*
X107583042Y-135784696D01*
X107583559Y-135834641D01*
X107584508Y-135878241D01*
X107585973Y-135946140D01*
X107585084Y-135999917D01*
X107582418Y-136051336D01*
X107577975Y-136100398D01*
X107574738Y-136126636D01*
X107542498Y-136133475D01*
X107497557Y-136133475D01*
X107487787Y-136121018D01*
X107487787Y-135819378D01*
X107487787Y-135772484D01*
X107489253Y-135724368D01*
X107489253Y-135686999D01*
X107483635Y-135681625D01*
X107384228Y-135680160D01*
X107333548Y-135680160D01*
X107280168Y-135680160D01*
X107240125Y-135680160D01*
X107094556Y-135681625D01*
X107081856Y-135694082D01*
X107084542Y-136788534D01*
G37*
G36*
X106131995Y-135757829D02*
G01*
X106132094Y-135817192D01*
X106132390Y-135871176D01*
X106133092Y-135934786D01*
X106134146Y-135988832D01*
X106135956Y-136042941D01*
X106139412Y-136093590D01*
X106143230Y-136113691D01*
X106179028Y-136079911D01*
X106215532Y-136039953D01*
X106241172Y-136011109D01*
X106277411Y-135969954D01*
X106312277Y-135929936D01*
X106344505Y-135892659D01*
X106378898Y-135852634D01*
X106409211Y-135817180D01*
X106522784Y-135682847D01*
X106471722Y-135681844D01*
X106464654Y-135681625D01*
X106414521Y-135680212D01*
X106406524Y-135680160D01*
X106144696Y-135680160D01*
X106131995Y-135692616D01*
X106131995Y-135757829D01*
G37*
G36*
X106283182Y-136445617D02*
G01*
X106326539Y-136416018D01*
X106364065Y-136382705D01*
X106404640Y-136344329D01*
X106444382Y-136305422D01*
X106481723Y-136267975D01*
X106520589Y-136229000D01*
X106531088Y-136218471D01*
X106531088Y-136208702D01*
X106493318Y-136175843D01*
X106454716Y-136141088D01*
X106441451Y-136128834D01*
X106294417Y-135992791D01*
X106280495Y-135994256D01*
X106283182Y-136445617D01*
G37*
G36*
X106568946Y-136784382D02*
G01*
X106577250Y-136790000D01*
X106969260Y-136788534D01*
X106974877Y-136778764D01*
X106974783Y-136722493D01*
X106974560Y-136672609D01*
X106974206Y-136620006D01*
X106973720Y-136564685D01*
X106973104Y-136506643D01*
X106972356Y-136445883D01*
X106972191Y-136433405D01*
X106966573Y-136033824D01*
X106965886Y-135984563D01*
X106965156Y-135925434D01*
X106964570Y-135869025D01*
X106964126Y-135815334D01*
X106963825Y-135764363D01*
X106963654Y-135706786D01*
X106963642Y-135688464D01*
X106913888Y-135680233D01*
X106906245Y-135680160D01*
X106871318Y-135680160D01*
X106566015Y-135685778D01*
X106560397Y-135701165D01*
X106560420Y-135756459D01*
X106560489Y-135809624D01*
X106560603Y-135860659D01*
X106560764Y-135909565D01*
X106561028Y-135967703D01*
X106561365Y-136022513D01*
X106561773Y-136073996D01*
X106561863Y-136083893D01*
X106568946Y-136784382D01*
G37*
G36*
X105815945Y-136790000D02*
G01*
X106058234Y-136787313D01*
X106069469Y-136774612D01*
X106072156Y-135685778D01*
X106063852Y-135680160D01*
X105675994Y-135684312D01*
X105670069Y-135740335D01*
X105667930Y-135798686D01*
X105666613Y-135859930D01*
X105665856Y-135914358D01*
X105665296Y-135976068D01*
X105664934Y-136045059D01*
X105664803Y-136095098D01*
X105664759Y-136148374D01*
X105666224Y-136784382D01*
X105718069Y-136785767D01*
X105751709Y-136787313D01*
X105815945Y-136790000D01*
G37*
G36*
X104710502Y-136501549D02*
G01*
X104716120Y-136501549D01*
X104741303Y-136447224D01*
X104768494Y-136387441D01*
X104790205Y-136339023D01*
X104813045Y-136287536D01*
X104837014Y-136232978D01*
X104862112Y-136175351D01*
X104888339Y-136114654D01*
X104915696Y-136050887D01*
X104944181Y-135984051D01*
X104963799Y-135937788D01*
X104973796Y-135914145D01*
X104996484Y-135859929D01*
X105015546Y-135813299D01*
X105033635Y-135767355D01*
X105050980Y-135718917D01*
X105056350Y-135698234D01*
X105046580Y-135682847D01*
X104861688Y-135680160D01*
X104811413Y-135680198D01*
X104761949Y-135682144D01*
X104708476Y-135686489D01*
X104703663Y-135686999D01*
X104702198Y-135766133D01*
X104710502Y-136501549D01*
G37*
G36*
X104723203Y-136790000D02*
G01*
X105112281Y-136785847D01*
X105256629Y-136479567D01*
X105293422Y-136401069D01*
X105327841Y-136327140D01*
X105359886Y-136257782D01*
X105389558Y-136192994D01*
X105416856Y-136132775D01*
X105441780Y-136077127D01*
X105464331Y-136026049D01*
X105484508Y-135979541D01*
X105510322Y-135918347D01*
X105530795Y-135867436D01*
X105549785Y-135815550D01*
X105560467Y-135771995D01*
X105557710Y-135721870D01*
X105550697Y-135680160D01*
X105154291Y-135682847D01*
X105127429Y-135725170D01*
X105102486Y-135769269D01*
X105075218Y-135821393D01*
X105051728Y-135868872D01*
X105026751Y-135921487D01*
X105000285Y-135979239D01*
X104979458Y-136025924D01*
X104972330Y-136042128D01*
X104950514Y-136092074D01*
X104930463Y-136139240D01*
X104910343Y-136186959D01*
X104886598Y-136243555D01*
X104866410Y-136291827D01*
X104844183Y-136345092D01*
X104819916Y-136403350D01*
X104811374Y-136423879D01*
X104787732Y-136481185D01*
X104767243Y-136531957D01*
X104746063Y-136586234D01*
X104727150Y-136637892D01*
X104712078Y-136687814D01*
X104710502Y-136699385D01*
X104711967Y-136780230D01*
X104723203Y-136790000D01*
G37*
G36*
X105225854Y-136790000D02*
G01*
X105557536Y-136788534D01*
X105563782Y-136739046D01*
X105564619Y-136703049D01*
X105564619Y-136503991D01*
X105564360Y-136452059D01*
X105563707Y-136397352D01*
X105562831Y-136343577D01*
X105561878Y-136293910D01*
X105560723Y-136239831D01*
X105560467Y-136228485D01*
X105559271Y-136173453D01*
X105558277Y-136122845D01*
X105557353Y-136067957D01*
X105556643Y-136011972D01*
X105556319Y-135958609D01*
X105556315Y-135952735D01*
X105533173Y-135998683D01*
X105512672Y-136045585D01*
X105493389Y-136091231D01*
X105470757Y-136145849D01*
X105444777Y-136209440D01*
X105425596Y-136256820D01*
X105404927Y-136308187D01*
X105382770Y-136363542D01*
X105359124Y-136422886D01*
X105333990Y-136486217D01*
X105320865Y-136519378D01*
X105218771Y-136774612D01*
X105225854Y-136790000D01*
G37*
G36*
X104135554Y-136790000D02*
G01*
X104143859Y-136748234D01*
X104143775Y-136688628D01*
X104143588Y-136634796D01*
X104143294Y-136575498D01*
X104142893Y-136510735D01*
X104142523Y-136458577D01*
X104142092Y-136403345D01*
X104141601Y-136345039D01*
X104141050Y-136283658D01*
X104140439Y-136219204D01*
X104139784Y-136154706D01*
X104139194Y-136093286D01*
X104138668Y-136034945D01*
X104138207Y-135979682D01*
X104137809Y-135927497D01*
X104137477Y-135878391D01*
X104137133Y-135817704D01*
X104136904Y-135762490D01*
X104136790Y-135712748D01*
X104136775Y-135689930D01*
X104103314Y-135680160D01*
X104050523Y-135682862D01*
X104000717Y-135690968D01*
X103942656Y-135708699D01*
X103889257Y-135734874D01*
X103840522Y-135769493D01*
X103804891Y-135803267D01*
X103772245Y-135842445D01*
X103764549Y-135853084D01*
X103733871Y-135902330D01*
X103708393Y-135955117D01*
X103688114Y-136011447D01*
X103675635Y-136059061D01*
X103666483Y-136108942D01*
X103660659Y-136161090D01*
X103658164Y-136215504D01*
X103658060Y-136229462D01*
X103659655Y-136290553D01*
X103664440Y-136348286D01*
X103672416Y-136402661D01*
X103683583Y-136453677D01*
X103697940Y-136501335D01*
X103720372Y-136556185D01*
X103747790Y-136605787D01*
X103760153Y-136624159D01*
X103791531Y-136663028D01*
X103836227Y-136704326D01*
X103887005Y-136737526D01*
X103932006Y-136758257D01*
X103980901Y-136773804D01*
X104033688Y-136784169D01*
X104090367Y-136789352D01*
X104120167Y-136790000D01*
X104135554Y-136790000D01*
G37*
G36*
X104211025Y-136781695D02*
G01*
X104232030Y-136790000D01*
X104598883Y-136787313D01*
X104608653Y-136778764D01*
X104612805Y-136118820D01*
X104612633Y-136049889D01*
X104612118Y-135986711D01*
X104611259Y-135929287D01*
X104610057Y-135877615D01*
X104607920Y-135817669D01*
X104605172Y-135767950D01*
X104599906Y-135712549D01*
X104593265Y-135680160D01*
X104216643Y-135680160D01*
X104206873Y-135691395D01*
X104208339Y-136235812D01*
X104208726Y-136297246D01*
X104209045Y-136352756D01*
X104209371Y-136413922D01*
X104209621Y-136463508D01*
X104209875Y-136516275D01*
X104210133Y-136572224D01*
X104210396Y-136631354D01*
X104210663Y-136693665D01*
X104210934Y-136759157D01*
X104211025Y-136781695D01*
G37*
G36*
X102762177Y-136115157D02*
G01*
X102799099Y-136078630D01*
X102834545Y-136041543D01*
X102875242Y-135997465D01*
X102909211Y-135959818D01*
X102946134Y-135918239D01*
X102986010Y-135872726D01*
X103028840Y-135823282D01*
X103074624Y-135769904D01*
X103106788Y-135732134D01*
X103140265Y-135692616D01*
X103121946Y-135680160D01*
X102759246Y-135684312D01*
X102750942Y-135696769D01*
X102762177Y-136115157D01*
G37*
G36*
X102917515Y-136455387D02*
G01*
X103141486Y-136230195D01*
X103141486Y-136217983D01*
X102909211Y-135992791D01*
X102896510Y-136010621D01*
X102896773Y-136060085D01*
X102897560Y-136111695D01*
X102898872Y-136165452D01*
X102899197Y-136176461D01*
X102900857Y-136229439D01*
X102902621Y-136288384D01*
X102904039Y-136339244D01*
X102905284Y-136389602D01*
X102906169Y-136438633D01*
X102906280Y-136455387D01*
X102917515Y-136455387D01*
G37*
G36*
X102748011Y-136781695D02*
G01*
X102759246Y-136790000D01*
X102811253Y-136789509D01*
X102865224Y-136788378D01*
X102914308Y-136787044D01*
X102953175Y-136785847D01*
X103006700Y-136784230D01*
X103060257Y-136782867D01*
X103110803Y-136781955D01*
X103147103Y-136781695D01*
X103147103Y-136773147D01*
X102757780Y-136308353D01*
X102743859Y-136325205D01*
X102743929Y-136374857D01*
X102744139Y-136424648D01*
X102744490Y-136474580D01*
X102744981Y-136524653D01*
X102745324Y-136553328D01*
X102748011Y-136781695D01*
G37*
G36*
X103166887Y-135967145D02*
G01*
X103166930Y-136018568D01*
X103167059Y-136072635D01*
X103167274Y-136129347D01*
X103167518Y-136178628D01*
X103167822Y-136229745D01*
X103168108Y-136271960D01*
X103173726Y-136781695D01*
X103192044Y-136785847D01*
X103568667Y-136783161D01*
X103576971Y-136766308D01*
X103576876Y-136710629D01*
X103576653Y-136661305D01*
X103576299Y-136609321D01*
X103575814Y-136554677D01*
X103575197Y-136497375D01*
X103574450Y-136437412D01*
X103574284Y-136425101D01*
X103568667Y-136028206D01*
X103567822Y-135967746D01*
X103567121Y-135909863D01*
X103566563Y-135854555D01*
X103566148Y-135801823D01*
X103565876Y-135751668D01*
X103565739Y-135694881D01*
X103565736Y-135685778D01*
X103526413Y-135680160D01*
X103477033Y-135680373D01*
X103426814Y-135680918D01*
X103370642Y-135681800D01*
X103316608Y-135682847D01*
X103168108Y-135687243D01*
X103166887Y-135967145D01*
G37*
G36*
X101710711Y-136785847D02*
G01*
X102152058Y-136785847D01*
X102160362Y-136774612D01*
X102153279Y-135680160D01*
X102096278Y-135681317D01*
X102044191Y-135684787D01*
X101988171Y-135692006D01*
X101939227Y-135702556D01*
X101891068Y-135719075D01*
X101873377Y-135727543D01*
X101830547Y-135756306D01*
X101796578Y-135792401D01*
X101771471Y-135835830D01*
X101755225Y-135886591D01*
X101747840Y-135944686D01*
X101747348Y-135965680D01*
X101750424Y-136015440D01*
X101764096Y-136074172D01*
X101788705Y-136124204D01*
X101824252Y-136165534D01*
X101870736Y-136198164D01*
X101928158Y-136222092D01*
X101978402Y-136234328D01*
X102034799Y-136241670D01*
X102097348Y-136244117D01*
X102105652Y-136266343D01*
X102071415Y-136305891D01*
X102035748Y-136347079D01*
X101998654Y-136389913D01*
X101965839Y-136427804D01*
X101928744Y-136470637D01*
X101887368Y-136518411D01*
X101841712Y-136571126D01*
X101808897Y-136609016D01*
X101774779Y-136649117D01*
X101739593Y-136691509D01*
X101707928Y-136730479D01*
X101675446Y-136771203D01*
X101666015Y-136783161D01*
X101710711Y-136785847D01*
G37*
G36*
X102241451Y-136785847D02*
G01*
X102643230Y-136790000D01*
X102648848Y-136784382D01*
X102648848Y-136705247D01*
X102639078Y-135682847D01*
X102478122Y-135680160D01*
X102425779Y-135680918D01*
X102372513Y-135682073D01*
X102339637Y-135682847D01*
X102238764Y-135685778D01*
X102241451Y-136785847D01*
G37*
G36*
X99866434Y-136790000D02*
G01*
X100254291Y-136787313D01*
X100273739Y-136739731D01*
X100291607Y-136687554D01*
X100307556Y-136634998D01*
X100321292Y-136585678D01*
X100335434Y-136531337D01*
X100338311Y-136519867D01*
X100350298Y-136464054D01*
X100363910Y-136401760D01*
X100375187Y-136350788D01*
X100387378Y-136296170D01*
X100400483Y-136237907D01*
X100414503Y-136176000D01*
X100429437Y-136110447D01*
X100445286Y-136041249D01*
X100456360Y-135993092D01*
X100467841Y-135943315D01*
X100479727Y-135891919D01*
X100412561Y-135680160D01*
X100136810Y-135682847D01*
X100118475Y-135731937D01*
X100101511Y-135789773D01*
X100085693Y-135847365D01*
X100067222Y-135917142D01*
X100053433Y-135970429D01*
X100038466Y-136029131D01*
X100022319Y-136093249D01*
X100004993Y-136162781D01*
X99986488Y-136237730D01*
X99966804Y-136318093D01*
X99945940Y-136403872D01*
X99935066Y-136448792D01*
X99921873Y-136504014D01*
X99909649Y-136555496D01*
X99898395Y-136603238D01*
X99885690Y-136657656D01*
X99874500Y-136706230D01*
X99863071Y-136756805D01*
X99856664Y-136785847D01*
X99866434Y-136790000D01*
G37*
G36*
X100346615Y-136790000D02*
G01*
X100472644Y-136790000D01*
X100522633Y-136789731D01*
X100575916Y-136789130D01*
X100601605Y-136788778D01*
X100650801Y-136788005D01*
X100702562Y-136787429D01*
X100730321Y-136787313D01*
X100750359Y-136742459D01*
X100769625Y-136693810D01*
X100788117Y-136641365D01*
X100802938Y-136594762D01*
X100817221Y-136545524D01*
X100828262Y-136504235D01*
X100841076Y-136452953D01*
X100852897Y-136402206D01*
X100865491Y-136345190D01*
X100876576Y-136292889D01*
X100888198Y-136236235D01*
X100895429Y-136200153D01*
X100905923Y-136147961D01*
X100915670Y-136100075D01*
X100926802Y-136046270D01*
X100938617Y-135990582D01*
X100950275Y-135937855D01*
X100958443Y-135903154D01*
X100898360Y-135689930D01*
X100885659Y-135680160D01*
X100611130Y-135681625D01*
X100592892Y-135732321D01*
X100578750Y-135781677D01*
X100564406Y-135835034D01*
X100551257Y-135885722D01*
X100536620Y-135943523D01*
X100532728Y-135959085D01*
X100518657Y-136015444D01*
X100504411Y-136073025D01*
X100489989Y-136131826D01*
X100475392Y-136191849D01*
X100460619Y-136253093D01*
X100445671Y-136315558D01*
X100434344Y-136363208D01*
X100422919Y-136411545D01*
X100415247Y-136444152D01*
X100403933Y-136492228D01*
X100391056Y-136547432D01*
X100379131Y-136598879D01*
X100366121Y-136655276D01*
X100354932Y-136703956D01*
X100343048Y-136755805D01*
X100336845Y-136782916D01*
X100346615Y-136790000D01*
G37*
G36*
X100809944Y-136784382D02*
G01*
X101182414Y-136784382D01*
X101188032Y-136766064D01*
X101179804Y-136714055D01*
X101166305Y-136656387D01*
X101150877Y-136596317D01*
X101136607Y-136543135D01*
X101120023Y-136482985D01*
X101101124Y-136415866D01*
X101087239Y-136367249D01*
X101072326Y-136315536D01*
X101056385Y-136260725D01*
X101042540Y-136212886D01*
X101027278Y-136160937D01*
X101012974Y-136113149D01*
X100997801Y-136063629D01*
X100990683Y-136040907D01*
X100977428Y-136090849D01*
X100964702Y-136138024D01*
X100950857Y-136189209D01*
X100937661Y-136237928D01*
X100930355Y-136264877D01*
X100847801Y-136577264D01*
X100836121Y-136625194D01*
X100824718Y-136674241D01*
X100813948Y-136725265D01*
X100807257Y-136773147D01*
X100809944Y-136784382D01*
G37*
G36*
X99524249Y-136790000D02*
G01*
X99766538Y-136787313D01*
X99777773Y-136774612D01*
X99780460Y-135685778D01*
X99772156Y-135680160D01*
X99384298Y-135684312D01*
X99378373Y-135740335D01*
X99376234Y-135798686D01*
X99374917Y-135859930D01*
X99374160Y-135914358D01*
X99373601Y-135976068D01*
X99373239Y-136045059D01*
X99373107Y-136095098D01*
X99373063Y-136148374D01*
X99374528Y-136784382D01*
X99426373Y-136785767D01*
X99460013Y-136787313D01*
X99524249Y-136790000D01*
G37*
G36*
X98418806Y-136501549D02*
G01*
X98424424Y-136501549D01*
X98449608Y-136447224D01*
X98476799Y-136387441D01*
X98498509Y-136339023D01*
X98521349Y-136287536D01*
X98545318Y-136232978D01*
X98570416Y-136175351D01*
X98596643Y-136114654D01*
X98624000Y-136050887D01*
X98652485Y-135984051D01*
X98672103Y-135937788D01*
X98682100Y-135914145D01*
X98704788Y-135859929D01*
X98723850Y-135813299D01*
X98741939Y-135767355D01*
X98759285Y-135718917D01*
X98764654Y-135698234D01*
X98754884Y-135682847D01*
X98569993Y-135680160D01*
X98519718Y-135680198D01*
X98470254Y-135682144D01*
X98416780Y-135686489D01*
X98411967Y-135686999D01*
X98410502Y-135766133D01*
X98418806Y-136501549D01*
G37*
G36*
X98431507Y-136790000D02*
G01*
X98820586Y-136785847D01*
X98964933Y-136479567D01*
X99001726Y-136401069D01*
X99036145Y-136327140D01*
X99068191Y-136257782D01*
X99097862Y-136192994D01*
X99125160Y-136132775D01*
X99150085Y-136077127D01*
X99172635Y-136026049D01*
X99192812Y-135979541D01*
X99218626Y-135918347D01*
X99239100Y-135867436D01*
X99258089Y-135815550D01*
X99268771Y-135771995D01*
X99266014Y-135721870D01*
X99259002Y-135680160D01*
X98862595Y-135682847D01*
X98835734Y-135725170D01*
X98810790Y-135769269D01*
X98783522Y-135821393D01*
X98760033Y-135868872D01*
X98735055Y-135921487D01*
X98708589Y-135979239D01*
X98687763Y-136025924D01*
X98680635Y-136042128D01*
X98658818Y-136092074D01*
X98638767Y-136139240D01*
X98618647Y-136186959D01*
X98594902Y-136243555D01*
X98574714Y-136291827D01*
X98552487Y-136345092D01*
X98528221Y-136403350D01*
X98519678Y-136423879D01*
X98496037Y-136481185D01*
X98475547Y-136531957D01*
X98454368Y-136586234D01*
X98435454Y-136637892D01*
X98420382Y-136687814D01*
X98418806Y-136699385D01*
X98420272Y-136780230D01*
X98431507Y-136790000D01*
G37*
G36*
X98934159Y-136790000D02*
G01*
X99265840Y-136788534D01*
X99272086Y-136739046D01*
X99272923Y-136703049D01*
X99272923Y-136503991D01*
X99272664Y-136452059D01*
X99272011Y-136397352D01*
X99271135Y-136343577D01*
X99270182Y-136293910D01*
X99269027Y-136239831D01*
X99268771Y-136228485D01*
X99267575Y-136173453D01*
X99266582Y-136122845D01*
X99265657Y-136067957D01*
X99264948Y-136011972D01*
X99264623Y-135958609D01*
X99264619Y-135952735D01*
X99241477Y-135998683D01*
X99220976Y-136045585D01*
X99201693Y-136091231D01*
X99179062Y-136145849D01*
X99153081Y-136209440D01*
X99133901Y-136256820D01*
X99113232Y-136308187D01*
X99091074Y-136363542D01*
X99067428Y-136422886D01*
X99042294Y-136486217D01*
X99029169Y-136519378D01*
X98927076Y-136774612D01*
X98934159Y-136790000D01*
G37*
G36*
X98060746Y-136790000D02*
G01*
X98303035Y-136787313D01*
X98314270Y-136774612D01*
X98316957Y-135685778D01*
X98308653Y-135680160D01*
X97920795Y-135684312D01*
X97914870Y-135740335D01*
X97912731Y-135798686D01*
X97911414Y-135859930D01*
X97910657Y-135914358D01*
X97910097Y-135976068D01*
X97909735Y-136045059D01*
X97909604Y-136095098D01*
X97909560Y-136148374D01*
X97911025Y-136784382D01*
X97962870Y-136785767D01*
X97996510Y-136787313D01*
X98060746Y-136790000D01*
G37*
G36*
X96575994Y-136115157D02*
G01*
X96612917Y-136078630D01*
X96648362Y-136041543D01*
X96689059Y-135997465D01*
X96723028Y-135959818D01*
X96759951Y-135918239D01*
X96799827Y-135872726D01*
X96842657Y-135823282D01*
X96888442Y-135769904D01*
X96920605Y-135732134D01*
X96954082Y-135692616D01*
X96935764Y-135680160D01*
X96573063Y-135684312D01*
X96564759Y-135696769D01*
X96575994Y-136115157D01*
G37*
G36*
X96731332Y-136455387D02*
G01*
X96955303Y-136230195D01*
X96955303Y-136217983D01*
X96723028Y-135992791D01*
X96710327Y-136010621D01*
X96710590Y-136060085D01*
X96711377Y-136111695D01*
X96712689Y-136165452D01*
X96713014Y-136176461D01*
X96714674Y-136229439D01*
X96716438Y-136288384D01*
X96717856Y-136339244D01*
X96719101Y-136389602D01*
X96719987Y-136438633D01*
X96720097Y-136455387D01*
X96731332Y-136455387D01*
G37*
G36*
X96561828Y-136781695D02*
G01*
X96573063Y-136790000D01*
X96625070Y-136789509D01*
X96679042Y-136788378D01*
X96728125Y-136787044D01*
X96766992Y-136785847D01*
X96820517Y-136784230D01*
X96874075Y-136782867D01*
X96924620Y-136781955D01*
X96960921Y-136781695D01*
X96960921Y-136773147D01*
X96571598Y-136308353D01*
X96557676Y-136325205D01*
X96557746Y-136374857D01*
X96557956Y-136424648D01*
X96558307Y-136474580D01*
X96558798Y-136524653D01*
X96559141Y-136553328D01*
X96561828Y-136781695D01*
G37*
G36*
X96980704Y-135967145D02*
G01*
X96980747Y-136018568D01*
X96980876Y-136072635D01*
X96981091Y-136129347D01*
X96981335Y-136178628D01*
X96981639Y-136229745D01*
X96981926Y-136271960D01*
X96987543Y-136781695D01*
X97005861Y-136785847D01*
X97382484Y-136783161D01*
X97390788Y-136766308D01*
X97390694Y-136710629D01*
X97390471Y-136661305D01*
X97390116Y-136609321D01*
X97389631Y-136554677D01*
X97389014Y-136497375D01*
X97388267Y-136437412D01*
X97388101Y-136425101D01*
X97382484Y-136028206D01*
X97381639Y-135967746D01*
X97380938Y-135909863D01*
X97380380Y-135854555D01*
X97379965Y-135801823D01*
X97379693Y-135751668D01*
X97379556Y-135694881D01*
X97379553Y-135685778D01*
X97340230Y-135680160D01*
X97290850Y-135680373D01*
X97240631Y-135680918D01*
X97184459Y-135681800D01*
X97130425Y-135682847D01*
X96981926Y-135687243D01*
X96980704Y-135967145D01*
G37*
G36*
X95563852Y-135805701D02*
G01*
X95589009Y-135803014D01*
X95586322Y-135814249D01*
X95659106Y-135968122D01*
X95682082Y-136015913D01*
X95706125Y-136063617D01*
X95730333Y-136110017D01*
X95736043Y-136120774D01*
X95748743Y-136120774D01*
X95922156Y-135685778D01*
X95913852Y-135680160D01*
X95536008Y-135680160D01*
X95528925Y-135689441D01*
X95547966Y-135736414D01*
X95569845Y-135781952D01*
X95580704Y-135803014D01*
X95563852Y-135805701D01*
G37*
G36*
X95701116Y-136790000D02*
G01*
X95981018Y-136788534D01*
X96004271Y-136745475D01*
X96027637Y-136694122D01*
X96048750Y-136645606D01*
X96068293Y-136599692D01*
X96090195Y-136547466D01*
X96110112Y-136499629D01*
X96130541Y-136450273D01*
X96151481Y-136399398D01*
X96172932Y-136347004D01*
X96194895Y-136293091D01*
X96217369Y-136237660D01*
X96240355Y-136180709D01*
X96263852Y-136122240D01*
X96381577Y-135826461D01*
X96371563Y-135818157D01*
X96388415Y-135814005D01*
X96410886Y-135751235D01*
X96431448Y-135704752D01*
X96438974Y-135689930D01*
X96434822Y-135680160D01*
X96004710Y-135680160D01*
X95983784Y-135726133D01*
X95962367Y-135776593D01*
X95947313Y-135812540D01*
X95927773Y-135814005D01*
X95951709Y-135816692D01*
X95941939Y-135822309D01*
X95921629Y-135874044D01*
X95903340Y-135920213D01*
X95883810Y-135969160D01*
X95863040Y-136020887D01*
X95841029Y-136075392D01*
X95822528Y-136120996D01*
X95812979Y-136144466D01*
X95546999Y-136788534D01*
X95701116Y-136790000D01*
G37*
G36*
X96070655Y-136790000D02*
G01*
X96462665Y-136787313D01*
X96445950Y-136737281D01*
X96425667Y-136690141D01*
X96402105Y-136639205D01*
X96378115Y-136589333D01*
X96367411Y-136567494D01*
X96342666Y-136518340D01*
X96318284Y-136470622D01*
X96295358Y-136426224D01*
X96270559Y-136378596D01*
X96248464Y-136336441D01*
X96224951Y-136381367D01*
X96204978Y-136426829D01*
X96183783Y-136477648D01*
X96163248Y-136528354D01*
X96158827Y-136539406D01*
X96066503Y-136771681D01*
X96070655Y-136790000D01*
G37*
G36*
X94502861Y-136164249D02*
G01*
X94511165Y-136164249D01*
X94535630Y-136119681D01*
X94560023Y-136075125D01*
X94584345Y-136030580D01*
X94608595Y-135986047D01*
X94632773Y-135941527D01*
X94656881Y-135897018D01*
X94666503Y-135879218D01*
X94655268Y-135874822D01*
X94672121Y-135870669D01*
X94768597Y-135687243D01*
X94765910Y-135680160D01*
X94507013Y-135680160D01*
X94501395Y-135685778D01*
X94502861Y-136164249D01*
G37*
G36*
X94786915Y-136360132D02*
G01*
X94787224Y-136413801D01*
X94787541Y-136467339D01*
X94787865Y-136520748D01*
X94788197Y-136574028D01*
X94788537Y-136627177D01*
X94788884Y-136680197D01*
X94789239Y-136733087D01*
X94789602Y-136785847D01*
X94806454Y-136790000D01*
X95183077Y-136782916D01*
X95187229Y-136778764D01*
X95190160Y-136454410D01*
X95189987Y-136401658D01*
X95189696Y-136344106D01*
X95189403Y-136291577D01*
X95189117Y-136242701D01*
X95188785Y-136187735D01*
X95188695Y-136173042D01*
X95187229Y-135890453D01*
X95180390Y-135886057D01*
X95187229Y-135883370D01*
X95186008Y-135688709D01*
X95176238Y-135680160D01*
X94791067Y-135680160D01*
X94785450Y-135684312D01*
X94786915Y-136360132D01*
G37*
G36*
X95450523Y-136160097D02*
G01*
X95460293Y-136153258D01*
X95458827Y-135890209D01*
X95451988Y-135886057D01*
X95458827Y-135883370D01*
X95460293Y-135689685D01*
X95447592Y-135680160D01*
X95395821Y-135680160D01*
X95363817Y-135680160D01*
X95251709Y-135680160D01*
X95207013Y-135685778D01*
X95229356Y-135733928D01*
X95253428Y-135784346D01*
X95275439Y-135829366D01*
X95298720Y-135876051D01*
X95323272Y-135924403D01*
X95346559Y-135968573D01*
X95372393Y-136016880D01*
X95396564Y-136061580D01*
X95422608Y-136109319D01*
X95450523Y-136160097D01*
G37*
G36*
X93497313Y-136785847D02*
G01*
X93938660Y-136785847D01*
X93946964Y-136774612D01*
X93939881Y-135680160D01*
X93882880Y-135681317D01*
X93830792Y-135684787D01*
X93774773Y-135692006D01*
X93725829Y-135702556D01*
X93677670Y-135719075D01*
X93659979Y-135727543D01*
X93617148Y-135756306D01*
X93583179Y-135792401D01*
X93558072Y-135835830D01*
X93541826Y-135886591D01*
X93534442Y-135944686D01*
X93533949Y-135965680D01*
X93537025Y-136015440D01*
X93550697Y-136074172D01*
X93575307Y-136124204D01*
X93610854Y-136165534D01*
X93657338Y-136198164D01*
X93714760Y-136222092D01*
X93765004Y-136234328D01*
X93821400Y-136241670D01*
X93883949Y-136244117D01*
X93892254Y-136266343D01*
X93858016Y-136305891D01*
X93822349Y-136347079D01*
X93785255Y-136389913D01*
X93752440Y-136427804D01*
X93715345Y-136470637D01*
X93673970Y-136518411D01*
X93628314Y-136571126D01*
X93595498Y-136609016D01*
X93561381Y-136649117D01*
X93526195Y-136691509D01*
X93494530Y-136730479D01*
X93462047Y-136771203D01*
X93452616Y-136783161D01*
X93497313Y-136785847D01*
G37*
G36*
X94028053Y-136785847D02*
G01*
X94429832Y-136790000D01*
X94435450Y-136784382D01*
X94435450Y-136705247D01*
X94425680Y-135682847D01*
X94264724Y-135680160D01*
X94212380Y-135680918D01*
X94159114Y-135682073D01*
X94126238Y-135682847D01*
X94025366Y-135685778D01*
X94028053Y-136785847D01*
G37*
G36*
X92571388Y-136115157D02*
G01*
X92608311Y-136078630D01*
X92643757Y-136041543D01*
X92684454Y-135997465D01*
X92718422Y-135959818D01*
X92755345Y-135918239D01*
X92795221Y-135872726D01*
X92838052Y-135823282D01*
X92883836Y-135769904D01*
X92916000Y-135732134D01*
X92949476Y-135692616D01*
X92931158Y-135680160D01*
X92568457Y-135684312D01*
X92560153Y-135696769D01*
X92571388Y-136115157D01*
G37*
G36*
X92726727Y-136455387D02*
G01*
X92950697Y-136230195D01*
X92950697Y-136217983D01*
X92718422Y-135992791D01*
X92705722Y-136010621D01*
X92705984Y-136060085D01*
X92706771Y-136111695D01*
X92708083Y-136165452D01*
X92708408Y-136176461D01*
X92710069Y-136229439D01*
X92711832Y-136288384D01*
X92713250Y-136339244D01*
X92714495Y-136389602D01*
X92715381Y-136438633D01*
X92715491Y-136455387D01*
X92726727Y-136455387D01*
G37*
G36*
X92557222Y-136781695D02*
G01*
X92568457Y-136790000D01*
X92620464Y-136789509D01*
X92674436Y-136788378D01*
X92723520Y-136787044D01*
X92762386Y-136785847D01*
X92815911Y-136784230D01*
X92869469Y-136782867D01*
X92920014Y-136781955D01*
X92956315Y-136781695D01*
X92956315Y-136773147D01*
X92566992Y-136308353D01*
X92553070Y-136325205D01*
X92553140Y-136374857D01*
X92553350Y-136424648D01*
X92553701Y-136474580D01*
X92554192Y-136524653D01*
X92554535Y-136553328D01*
X92557222Y-136781695D01*
G37*
G36*
X92976099Y-135967145D02*
G01*
X92976142Y-136018568D01*
X92976270Y-136072635D01*
X92976485Y-136129347D01*
X92976729Y-136178628D01*
X92977034Y-136229745D01*
X92977320Y-136271960D01*
X92982937Y-136781695D01*
X93001256Y-136785847D01*
X93377878Y-136783161D01*
X93386182Y-136766308D01*
X93386088Y-136710629D01*
X93385865Y-136661305D01*
X93385511Y-136609321D01*
X93385025Y-136554677D01*
X93384409Y-136497375D01*
X93383661Y-136437412D01*
X93383496Y-136425101D01*
X93377878Y-136028206D01*
X93377034Y-135967746D01*
X93376332Y-135909863D01*
X93375774Y-135854555D01*
X93375359Y-135801823D01*
X93375087Y-135751668D01*
X93374950Y-135694881D01*
X93374947Y-135685778D01*
X93335624Y-135680160D01*
X93286244Y-135680373D01*
X93236026Y-135680918D01*
X93179854Y-135681800D01*
X93125819Y-135682847D01*
X92977320Y-135687243D01*
X92976099Y-135967145D01*
G37*
G36*
X91142079Y-136790000D02*
G01*
X91529937Y-136787313D01*
X91549385Y-136739731D01*
X91567253Y-136687554D01*
X91583201Y-136634998D01*
X91596937Y-136585678D01*
X91611079Y-136531337D01*
X91613956Y-136519867D01*
X91625943Y-136464054D01*
X91639556Y-136401760D01*
X91650832Y-136350788D01*
X91663023Y-136296170D01*
X91676129Y-136237907D01*
X91690149Y-136176000D01*
X91705083Y-136110447D01*
X91720932Y-136041249D01*
X91732006Y-135993092D01*
X91743486Y-135943315D01*
X91755373Y-135891919D01*
X91688206Y-135680160D01*
X91412456Y-135682847D01*
X91394120Y-135731937D01*
X91377157Y-135789773D01*
X91361339Y-135847365D01*
X91342867Y-135917142D01*
X91329079Y-135970429D01*
X91314111Y-136029131D01*
X91297965Y-136093249D01*
X91280639Y-136162781D01*
X91262133Y-136237730D01*
X91242449Y-136318093D01*
X91221585Y-136403872D01*
X91210711Y-136448792D01*
X91197518Y-136504014D01*
X91185295Y-136555496D01*
X91174041Y-136603238D01*
X91161336Y-136657656D01*
X91150146Y-136706230D01*
X91138717Y-136756805D01*
X91132309Y-136785847D01*
X91142079Y-136790000D01*
G37*
G36*
X91622260Y-136790000D02*
G01*
X91748290Y-136790000D01*
X91798278Y-136789731D01*
X91851562Y-136789130D01*
X91877250Y-136788778D01*
X91926447Y-136788005D01*
X91978207Y-136787429D01*
X92005966Y-136787313D01*
X92026004Y-136742459D01*
X92045270Y-136693810D01*
X92063763Y-136641365D01*
X92078583Y-136594762D01*
X92092867Y-136545524D01*
X92103907Y-136504235D01*
X92116722Y-136452953D01*
X92128543Y-136402206D01*
X92141137Y-136345190D01*
X92152222Y-136292889D01*
X92163843Y-136236235D01*
X92171074Y-136200153D01*
X92181569Y-136147961D01*
X92191316Y-136100075D01*
X92202447Y-136046270D01*
X92214263Y-135990582D01*
X92225920Y-135937855D01*
X92234089Y-135903154D01*
X92174005Y-135689930D01*
X92161304Y-135680160D01*
X91886775Y-135681625D01*
X91868537Y-135732321D01*
X91854395Y-135781677D01*
X91840052Y-135835034D01*
X91826903Y-135885722D01*
X91812265Y-135943523D01*
X91808374Y-135959085D01*
X91794303Y-136015444D01*
X91780057Y-136073025D01*
X91765635Y-136131826D01*
X91751038Y-136191849D01*
X91736265Y-136253093D01*
X91721316Y-136315558D01*
X91709990Y-136363208D01*
X91698564Y-136411545D01*
X91690893Y-136444152D01*
X91679578Y-136492228D01*
X91666701Y-136547432D01*
X91654777Y-136598879D01*
X91641767Y-136655276D01*
X91630577Y-136703956D01*
X91618693Y-136755805D01*
X91612491Y-136782916D01*
X91622260Y-136790000D01*
G37*
G36*
X92085589Y-136784382D02*
G01*
X92458060Y-136784382D01*
X92463677Y-136766064D01*
X92455449Y-136714055D01*
X92441950Y-136656387D01*
X92426523Y-136596317D01*
X92412253Y-136543135D01*
X92395668Y-136482985D01*
X92376770Y-136415866D01*
X92362885Y-136367249D01*
X92347972Y-136315536D01*
X92332030Y-136260725D01*
X92318186Y-136212886D01*
X92302924Y-136160937D01*
X92288620Y-136113149D01*
X92273446Y-136063629D01*
X92266329Y-136040907D01*
X92253073Y-136090849D01*
X92240348Y-136138024D01*
X92226503Y-136189209D01*
X92213306Y-136237928D01*
X92206001Y-136264877D01*
X92123447Y-136577264D01*
X92111767Y-136625194D01*
X92100363Y-136674241D01*
X92089594Y-136725265D01*
X92082903Y-136773147D01*
X92085589Y-136784382D01*
G37*
G36*
X90241311Y-136115157D02*
G01*
X90278234Y-136078630D01*
X90313680Y-136041543D01*
X90354377Y-135997465D01*
X90388346Y-135959818D01*
X90425268Y-135918239D01*
X90465145Y-135872726D01*
X90507975Y-135823282D01*
X90553759Y-135769904D01*
X90585923Y-135732134D01*
X90619399Y-135692616D01*
X90601081Y-135680160D01*
X90238381Y-135684312D01*
X90230076Y-135696769D01*
X90241311Y-136115157D01*
G37*
G36*
X90396650Y-136455387D02*
G01*
X90620621Y-136230195D01*
X90620621Y-136217983D01*
X90388346Y-135992791D01*
X90375645Y-136010621D01*
X90375907Y-136060085D01*
X90376694Y-136111695D01*
X90378006Y-136165452D01*
X90378332Y-136176461D01*
X90379992Y-136229439D01*
X90381756Y-136288384D01*
X90383174Y-136339244D01*
X90384419Y-136389602D01*
X90385304Y-136438633D01*
X90385415Y-136455387D01*
X90396650Y-136455387D01*
G37*
G36*
X90227145Y-136781695D02*
G01*
X90238381Y-136790000D01*
X90290388Y-136789509D01*
X90344359Y-136788378D01*
X90393443Y-136787044D01*
X90432309Y-136785847D01*
X90485834Y-136784230D01*
X90539392Y-136782867D01*
X90589938Y-136781955D01*
X90626238Y-136781695D01*
X90626238Y-136773147D01*
X90236915Y-136308353D01*
X90222993Y-136325205D01*
X90223063Y-136374857D01*
X90223274Y-136424648D01*
X90223624Y-136474580D01*
X90224115Y-136524653D01*
X90224459Y-136553328D01*
X90227145Y-136781695D01*
G37*
G36*
X90646022Y-135967145D02*
G01*
X90646065Y-136018568D01*
X90646194Y-136072635D01*
X90646408Y-136129347D01*
X90646653Y-136178628D01*
X90646957Y-136229745D01*
X90647243Y-136271960D01*
X90652861Y-136781695D01*
X90671179Y-136785847D01*
X91047801Y-136783161D01*
X91056106Y-136766308D01*
X91056011Y-136710629D01*
X91055788Y-136661305D01*
X91055434Y-136609321D01*
X91054949Y-136554677D01*
X91054332Y-136497375D01*
X91053584Y-136437412D01*
X91053419Y-136425101D01*
X91047801Y-136028206D01*
X91046957Y-135967746D01*
X91046256Y-135909863D01*
X91045698Y-135854555D01*
X91045283Y-135801823D01*
X91045011Y-135751668D01*
X91044873Y-135694881D01*
X91044870Y-135685778D01*
X91005547Y-135680160D01*
X90956168Y-135680373D01*
X90905949Y-135680918D01*
X90849777Y-135681800D01*
X90795743Y-135682847D01*
X90647243Y-135687243D01*
X90646022Y-135967145D01*
G37*
G36*
X110061863Y-138465847D02*
G01*
X110503210Y-138465847D01*
X110511514Y-138454612D01*
X110504431Y-137360160D01*
X110447430Y-137361317D01*
X110395342Y-137364787D01*
X110339323Y-137372006D01*
X110290379Y-137382556D01*
X110242220Y-137399075D01*
X110224528Y-137407543D01*
X110181698Y-137436306D01*
X110147729Y-137472401D01*
X110122622Y-137515830D01*
X110106376Y-137566591D01*
X110098991Y-137624686D01*
X110098499Y-137645680D01*
X110101575Y-137695440D01*
X110115247Y-137754172D01*
X110139857Y-137804204D01*
X110175403Y-137845534D01*
X110221888Y-137878164D01*
X110279310Y-137902092D01*
X110329554Y-137914328D01*
X110385950Y-137921670D01*
X110448499Y-137924117D01*
X110456803Y-137946343D01*
X110422566Y-137985891D01*
X110386899Y-138027079D01*
X110349805Y-138069913D01*
X110316990Y-138107804D01*
X110279895Y-138150637D01*
X110238520Y-138198411D01*
X110192864Y-138251126D01*
X110160048Y-138289016D01*
X110125931Y-138329117D01*
X110090744Y-138371509D01*
X110059080Y-138410479D01*
X110026597Y-138451203D01*
X110017166Y-138463161D01*
X110061863Y-138465847D01*
G37*
G36*
X110592602Y-138465847D02*
G01*
X110994382Y-138470000D01*
X111000000Y-138464382D01*
X111000000Y-138385247D01*
X110990230Y-137362847D01*
X110829274Y-137360160D01*
X110776930Y-137360918D01*
X110723664Y-137362073D01*
X110690788Y-137362847D01*
X110589916Y-137365778D01*
X110592602Y-138465847D01*
G37*
G36*
X109135938Y-137795157D02*
G01*
X109172861Y-137758630D01*
X109208306Y-137721543D01*
X109249003Y-137677465D01*
X109282972Y-137639818D01*
X109319895Y-137598239D01*
X109359771Y-137552726D01*
X109402602Y-137503282D01*
X109448386Y-137449904D01*
X109480549Y-137412134D01*
X109514026Y-137372616D01*
X109495708Y-137360160D01*
X109133007Y-137364312D01*
X109124703Y-137376769D01*
X109135938Y-137795157D01*
G37*
G36*
X109291277Y-138135387D02*
G01*
X109515247Y-137910195D01*
X109515247Y-137897983D01*
X109282972Y-137672791D01*
X109270272Y-137690621D01*
X109270534Y-137740085D01*
X109271321Y-137791695D01*
X109272633Y-137845452D01*
X109272958Y-137856461D01*
X109274618Y-137909439D01*
X109276382Y-137968384D01*
X109277800Y-138019244D01*
X109279045Y-138069602D01*
X109279931Y-138118633D01*
X109280041Y-138135387D01*
X109291277Y-138135387D01*
G37*
G36*
X109121772Y-138461695D02*
G01*
X109133007Y-138470000D01*
X109185014Y-138469509D01*
X109238986Y-138468378D01*
X109288069Y-138467044D01*
X109326936Y-138465847D01*
X109380461Y-138464230D01*
X109434019Y-138462867D01*
X109484564Y-138461955D01*
X109520865Y-138461695D01*
X109520865Y-138453147D01*
X109131542Y-137988353D01*
X109117620Y-138005205D01*
X109117690Y-138054857D01*
X109117900Y-138104648D01*
X109118251Y-138154580D01*
X109118742Y-138204653D01*
X109119085Y-138233328D01*
X109121772Y-138461695D01*
G37*
G36*
X109540648Y-137647145D02*
G01*
X109540691Y-137698568D01*
X109540820Y-137752635D01*
X109541035Y-137809347D01*
X109541279Y-137858628D01*
X109541583Y-137909745D01*
X109541870Y-137951960D01*
X109547487Y-138461695D01*
X109565806Y-138465847D01*
X109942428Y-138463161D01*
X109950732Y-138446308D01*
X109950638Y-138390629D01*
X109950415Y-138341305D01*
X109950061Y-138289321D01*
X109949575Y-138234677D01*
X109948959Y-138177375D01*
X109948211Y-138117412D01*
X109948046Y-138105101D01*
X109942428Y-137708206D01*
X109941584Y-137647746D01*
X109940882Y-137589863D01*
X109940324Y-137534555D01*
X109939909Y-137481823D01*
X109939637Y-137431668D01*
X109939500Y-137374881D01*
X109939497Y-137365778D01*
X109900174Y-137360160D01*
X109850794Y-137360373D01*
X109800576Y-137360918D01*
X109744404Y-137361800D01*
X109690369Y-137362847D01*
X109541870Y-137367243D01*
X109540648Y-137647145D01*
G37*
G36*
X108087404Y-137530886D02*
G01*
X108107102Y-137578323D01*
X108123718Y-137625214D01*
X108142114Y-137679141D01*
X108157050Y-137725948D01*
X108173835Y-137777900D01*
X108189015Y-137824683D01*
X108206855Y-137879528D01*
X108223042Y-137929209D01*
X108227355Y-137942435D01*
X108244597Y-137993245D01*
X108262126Y-138045868D01*
X108278485Y-138095400D01*
X108288904Y-138127083D01*
X108307527Y-138081287D01*
X108325495Y-138027157D01*
X108342757Y-137972895D01*
X108349232Y-137952205D01*
X108477948Y-137530886D01*
X108469644Y-137526734D01*
X108477948Y-137523803D01*
X108524110Y-137365778D01*
X108515806Y-137360160D01*
X108042707Y-137365778D01*
X108087404Y-137530886D01*
G37*
G36*
X108401011Y-138467313D02*
G01*
X108441800Y-138470000D01*
X108479413Y-138470000D01*
X108529568Y-138468918D01*
X108578960Y-138466790D01*
X108583217Y-138466580D01*
X108633058Y-138464366D01*
X108683170Y-138463164D01*
X108685310Y-138463161D01*
X108707445Y-138417732D01*
X108728666Y-138366160D01*
X108748232Y-138313175D01*
X108765508Y-138262828D01*
X108783666Y-138206853D01*
X108787404Y-138194982D01*
X108804248Y-138139764D01*
X108819111Y-138089709D01*
X108834726Y-138035980D01*
X108851092Y-137978578D01*
X108864725Y-137930012D01*
X108878840Y-137879095D01*
X108889741Y-137839364D01*
X108972295Y-137539434D01*
X108963747Y-137535282D01*
X108972051Y-137532351D01*
X109022609Y-137368464D01*
X109005757Y-137360160D01*
X108952250Y-137360160D01*
X108901159Y-137360160D01*
X108845243Y-137360160D01*
X108794960Y-137360160D01*
X108741325Y-137360160D01*
X108707536Y-137360160D01*
X108606908Y-137360160D01*
X108591056Y-137410206D01*
X108573630Y-137464284D01*
X108557992Y-137512513D01*
X108539694Y-137568745D01*
X108523141Y-137619492D01*
X108518736Y-137632979D01*
X108502365Y-137683912D01*
X108486222Y-137734493D01*
X108470308Y-137784723D01*
X108454623Y-137834602D01*
X108439167Y-137884130D01*
X108423940Y-137933306D01*
X108408942Y-137982132D01*
X108394173Y-138030607D01*
X108379060Y-138080684D01*
X108363003Y-138134544D01*
X108347890Y-138186362D01*
X108334793Y-138233706D01*
X108329692Y-138257264D01*
X108340800Y-138307867D01*
X108355569Y-138355112D01*
X108361200Y-138372058D01*
X108378626Y-138421660D01*
X108399250Y-138466227D01*
X108401011Y-138467313D01*
G37*
G36*
X106792428Y-138088492D02*
G01*
X106792947Y-138138752D01*
X106794145Y-138190693D01*
X106795794Y-138245037D01*
X106796824Y-138275094D01*
X106798442Y-138326348D01*
X106799805Y-138377769D01*
X106800778Y-138431311D01*
X106800976Y-138461695D01*
X106809281Y-138470000D01*
X107203977Y-138467313D01*
X107209891Y-138415700D01*
X107210998Y-138363149D01*
X107211060Y-138343970D01*
X107210818Y-138293645D01*
X107210166Y-138242755D01*
X107209595Y-138211102D01*
X107207955Y-138160047D01*
X107206908Y-138135387D01*
X107205723Y-138085687D01*
X107205443Y-138054298D01*
X107208374Y-137796622D01*
X107250383Y-137782700D01*
X107284089Y-137786120D01*
X107316085Y-137789539D01*
X107342707Y-137788073D01*
X107352845Y-137739850D01*
X107353942Y-137713579D01*
X107348895Y-137663520D01*
X107344173Y-137645924D01*
X107300533Y-137620993D01*
X107253145Y-137594284D01*
X107207876Y-137569051D01*
X107171981Y-137549204D01*
X107124109Y-137523828D01*
X107078821Y-137499556D01*
X107029302Y-137472909D01*
X106996859Y-137455415D01*
X106949278Y-137429769D01*
X106904474Y-137405345D01*
X106857392Y-137379327D01*
X106823203Y-137360160D01*
X106792428Y-137374082D01*
X106792428Y-138088492D01*
G37*
G36*
X106380146Y-138470000D02*
G01*
X106429276Y-138464575D01*
X106460013Y-138454612D01*
X106499780Y-138424951D01*
X106507641Y-138397215D01*
X106489036Y-138349779D01*
X106460013Y-138325896D01*
X106414964Y-138304171D01*
X106374528Y-138298053D01*
X106323149Y-138300852D01*
X106271178Y-138313293D01*
X106230577Y-138346651D01*
X106223342Y-138377676D01*
X106241503Y-138424147D01*
X106280739Y-138450460D01*
X106328061Y-138465115D01*
X106376751Y-138469980D01*
X106380146Y-138470000D01*
G37*
G36*
X105273237Y-138088492D02*
G01*
X105273757Y-138138752D01*
X105274955Y-138190693D01*
X105276603Y-138245037D01*
X105277634Y-138275094D01*
X105279252Y-138326348D01*
X105280614Y-138377769D01*
X105281587Y-138431311D01*
X105281786Y-138461695D01*
X105290090Y-138470000D01*
X105684787Y-138467313D01*
X105690701Y-138415700D01*
X105691807Y-138363149D01*
X105691870Y-138343970D01*
X105691628Y-138293645D01*
X105690975Y-138242755D01*
X105690404Y-138211102D01*
X105688764Y-138160047D01*
X105687718Y-138135387D01*
X105686533Y-138085687D01*
X105686252Y-138054298D01*
X105689183Y-137796622D01*
X105731193Y-137782700D01*
X105764898Y-137786120D01*
X105796894Y-137789539D01*
X105823517Y-137788073D01*
X105833655Y-137739850D01*
X105834752Y-137713579D01*
X105829705Y-137663520D01*
X105824982Y-137645924D01*
X105781342Y-137620993D01*
X105733955Y-137594284D01*
X105688686Y-137569051D01*
X105652791Y-137549204D01*
X105604919Y-137523828D01*
X105559631Y-137499556D01*
X105510111Y-137472909D01*
X105477669Y-137455415D01*
X105430087Y-137429769D01*
X105385284Y-137405345D01*
X105338201Y-137379327D01*
X105304012Y-137360160D01*
X105273237Y-137374082D01*
X105273237Y-138088492D01*
G37*
G36*
X110421877Y-139804152D02*
G01*
X110484891Y-139802686D01*
X110494661Y-139794382D01*
X110453083Y-139762038D01*
X110429603Y-139716367D01*
X110416143Y-139666812D01*
X110414794Y-139659804D01*
X110407947Y-139607861D01*
X110404656Y-139554342D01*
X110403602Y-139504829D01*
X110403558Y-139491521D01*
X110402866Y-139442101D01*
X110402093Y-139408722D01*
X110400872Y-139349860D01*
X110402643Y-139288486D01*
X110407955Y-139233326D01*
X110416809Y-139184378D01*
X110432856Y-139131930D01*
X110459418Y-139081807D01*
X110493947Y-139045663D01*
X110514200Y-139032833D01*
X110463280Y-139025339D01*
X110433112Y-139024528D01*
X110376557Y-139027063D01*
X110323365Y-139034665D01*
X110273536Y-139047337D01*
X110227070Y-139065077D01*
X110175750Y-139093055D01*
X110129274Y-139128332D01*
X110093389Y-139164338D01*
X110063586Y-139203971D01*
X110039865Y-139247228D01*
X110022227Y-139294112D01*
X110010670Y-139344620D01*
X110005196Y-139398754D01*
X110004710Y-139421423D01*
X110007805Y-139471766D01*
X110019689Y-139528667D01*
X110040486Y-139581738D01*
X110070195Y-139630980D01*
X110101762Y-139669089D01*
X110131472Y-139697662D01*
X110171921Y-139729435D01*
X110214195Y-139755603D01*
X110267332Y-139779605D01*
X110323097Y-139795536D01*
X110371574Y-139802647D01*
X110421877Y-139804152D01*
G37*
G36*
X110851500Y-139257536D02*
G01*
X110846109Y-139206441D01*
X110827728Y-139156682D01*
X110796301Y-139113677D01*
X110754490Y-139080721D01*
X110705290Y-139061444D01*
X110654152Y-139055792D01*
X110602274Y-139061993D01*
X110555023Y-139080597D01*
X110512400Y-139111605D01*
X110504431Y-139119295D01*
X110471200Y-139161217D01*
X110450278Y-139207909D01*
X110441662Y-139259372D01*
X110441416Y-139270237D01*
X110446950Y-139320879D01*
X110465819Y-139369092D01*
X110498080Y-139409455D01*
X110540760Y-139439491D01*
X110590886Y-139457060D01*
X110642916Y-139462212D01*
X110696006Y-139456583D01*
X110743228Y-139439696D01*
X110784582Y-139411550D01*
X110792149Y-139404570D01*
X110823447Y-139365339D01*
X110843154Y-139320001D01*
X110851268Y-139268558D01*
X110851500Y-139257536D01*
G37*
G36*
X110014235Y-140143161D02*
G01*
X110019853Y-140150000D01*
X110794347Y-140148534D01*
X110802651Y-140137299D01*
X110801186Y-139853244D01*
X110785799Y-139840544D01*
X110729859Y-139840982D01*
X110673903Y-139842016D01*
X110623024Y-139843281D01*
X110566711Y-139844935D01*
X110504963Y-139846979D01*
X110455086Y-139848767D01*
X110402152Y-139850774D01*
X110346161Y-139853000D01*
X110021318Y-139853000D01*
X110010083Y-139866678D01*
X110014235Y-140143161D01*
G37*
G36*
X109253663Y-140137543D02*
G01*
X109252198Y-139792916D01*
X109252052Y-139734224D01*
X109251792Y-139674354D01*
X109251512Y-139618562D01*
X109251160Y-139553436D01*
X109250734Y-139478977D01*
X109250410Y-139424152D01*
X109250053Y-139365179D01*
X109249663Y-139302058D01*
X109249242Y-139234788D01*
X109248788Y-139163370D01*
X109248301Y-139087803D01*
X109248046Y-139048464D01*
X109221423Y-139040160D01*
X109172059Y-139042938D01*
X109114229Y-139054225D01*
X109060705Y-139074194D01*
X109011485Y-139102845D01*
X108966571Y-139140177D01*
X108925962Y-139186192D01*
X108903663Y-139217969D01*
X108875025Y-139267556D01*
X108851242Y-139319993D01*
X108832312Y-139375280D01*
X108818235Y-139433418D01*
X108810469Y-139481980D01*
X108805810Y-139532367D01*
X108804256Y-139584577D01*
X108805874Y-139635040D01*
X108810729Y-139684335D01*
X108821348Y-139744312D01*
X108837023Y-139802464D01*
X108857755Y-139858791D01*
X108883544Y-139913294D01*
X108907815Y-139955582D01*
X108940605Y-140003286D01*
X108975226Y-140044303D01*
X109011680Y-140078635D01*
X109059822Y-140112147D01*
X109110827Y-140135211D01*
X109164694Y-140147829D01*
X109221423Y-140150000D01*
X109246580Y-140148534D01*
X109253663Y-140137543D01*
G37*
G36*
X109318143Y-140144382D02*
G01*
X109355757Y-140150000D01*
X109416221Y-140145468D01*
X109472440Y-140131872D01*
X109524413Y-140109213D01*
X109572141Y-140077490D01*
X109615622Y-140036703D01*
X109647351Y-139997548D01*
X109669364Y-139964375D01*
X109697158Y-139913739D01*
X109720240Y-139860443D01*
X109738612Y-139804488D01*
X109752273Y-139745873D01*
X109759811Y-139697066D01*
X109764333Y-139646558D01*
X109765840Y-139594347D01*
X109764287Y-139542136D01*
X109759627Y-139491628D01*
X109751861Y-139442821D01*
X109737785Y-139384206D01*
X109718855Y-139328251D01*
X109695071Y-139274955D01*
X109666434Y-139224319D01*
X109635205Y-139179340D01*
X109601602Y-139140635D01*
X109556261Y-139101077D01*
X109507211Y-139071322D01*
X109454452Y-139051370D01*
X109397984Y-139041221D01*
X109350139Y-139040160D01*
X109315212Y-139041625D01*
X109311060Y-139059699D01*
X109311096Y-139115987D01*
X109311203Y-139172347D01*
X109311382Y-139228778D01*
X109311633Y-139285281D01*
X109311955Y-139341855D01*
X109312348Y-139398501D01*
X109312526Y-139421179D01*
X109318143Y-140144382D01*
G37*
G36*
X108135764Y-139804152D02*
G01*
X108198778Y-139802686D01*
X108208548Y-139794382D01*
X108166970Y-139762038D01*
X108143490Y-139716367D01*
X108130030Y-139666812D01*
X108128681Y-139659804D01*
X108121834Y-139607861D01*
X108118543Y-139554342D01*
X108117489Y-139504829D01*
X108117445Y-139491521D01*
X108116753Y-139442101D01*
X108115980Y-139408722D01*
X108114759Y-139349860D01*
X108116530Y-139288486D01*
X108121842Y-139233326D01*
X108130696Y-139184378D01*
X108146743Y-139131930D01*
X108173305Y-139081807D01*
X108207834Y-139045663D01*
X108228087Y-139032833D01*
X108177167Y-139025339D01*
X108146999Y-139024528D01*
X108090444Y-139027063D01*
X108037252Y-139034665D01*
X107987423Y-139047337D01*
X107940957Y-139065077D01*
X107889637Y-139093055D01*
X107843161Y-139128332D01*
X107807276Y-139164338D01*
X107777473Y-139203971D01*
X107753752Y-139247228D01*
X107736114Y-139294112D01*
X107724557Y-139344620D01*
X107719083Y-139398754D01*
X107718597Y-139421423D01*
X107721692Y-139471766D01*
X107733576Y-139528667D01*
X107754372Y-139581738D01*
X107784082Y-139630980D01*
X107815649Y-139669089D01*
X107845359Y-139697662D01*
X107885808Y-139729435D01*
X107928082Y-139755603D01*
X107981219Y-139779605D01*
X108036984Y-139795536D01*
X108085461Y-139802647D01*
X108135764Y-139804152D01*
G37*
G36*
X108565387Y-139257536D02*
G01*
X108559996Y-139206441D01*
X108541615Y-139156682D01*
X108510188Y-139113677D01*
X108468377Y-139080721D01*
X108419177Y-139061444D01*
X108368039Y-139055792D01*
X108316161Y-139061993D01*
X108268910Y-139080597D01*
X108226287Y-139111605D01*
X108218318Y-139119295D01*
X108185087Y-139161217D01*
X108164164Y-139207909D01*
X108155549Y-139259372D01*
X108155303Y-139270237D01*
X108160837Y-139320879D01*
X108179706Y-139369092D01*
X108211967Y-139409455D01*
X108254647Y-139439491D01*
X108304773Y-139457060D01*
X108356803Y-139462212D01*
X108409893Y-139456583D01*
X108457115Y-139439696D01*
X108498469Y-139411550D01*
X108506036Y-139404570D01*
X108537334Y-139365339D01*
X108557041Y-139320001D01*
X108565155Y-139268558D01*
X108565387Y-139257536D01*
G37*
G36*
X107728122Y-140143161D02*
G01*
X107733740Y-140150000D01*
X108508234Y-140148534D01*
X108516538Y-140137299D01*
X108515073Y-139853244D01*
X108499685Y-139840544D01*
X108443746Y-139840982D01*
X108387790Y-139842016D01*
X108336911Y-139843281D01*
X108280598Y-139844935D01*
X108218850Y-139846979D01*
X108168973Y-139848767D01*
X108116039Y-139850774D01*
X108060048Y-139853000D01*
X107735205Y-139853000D01*
X107723970Y-139866678D01*
X107728122Y-140143161D01*
G37*
G36*
X106972923Y-139204535D02*
G01*
X106965848Y-139155454D01*
X106942214Y-139109337D01*
X106922609Y-139087543D01*
X106881977Y-139058669D01*
X106831835Y-139042427D01*
X106802198Y-139040160D01*
X106751799Y-139044382D01*
X106703357Y-139058778D01*
X106662247Y-139083391D01*
X106628734Y-139120065D01*
X106609132Y-139164936D01*
X106603384Y-139212840D01*
X106609589Y-139261963D01*
X106630512Y-139307719D01*
X106655896Y-139336671D01*
X106698715Y-139365545D01*
X106748403Y-139381092D01*
X106785345Y-139384054D01*
X106834007Y-139379307D01*
X106880759Y-139363122D01*
X106920411Y-139335450D01*
X106952411Y-139294142D01*
X106968770Y-139248070D01*
X106972923Y-139204535D01*
G37*
G36*
X106953384Y-140150000D02*
G01*
X106959002Y-140145847D01*
X106956315Y-139450000D01*
X106924075Y-139436078D01*
X106868608Y-139439572D01*
X106815597Y-139450057D01*
X106765041Y-139467531D01*
X106716942Y-139491994D01*
X106671298Y-139523447D01*
X106656629Y-139535484D01*
X106615708Y-139575942D01*
X106583253Y-139619645D01*
X106559265Y-139666594D01*
X106543743Y-139716789D01*
X106536688Y-139770230D01*
X106536217Y-139788764D01*
X106539294Y-139840761D01*
X106548525Y-139889133D01*
X106567725Y-139942393D01*
X106595786Y-139990433D01*
X106632708Y-140033251D01*
X106662247Y-140058897D01*
X106707458Y-140089858D01*
X106756997Y-140114413D01*
X106810864Y-140132562D01*
X106859060Y-140142793D01*
X106910260Y-140148576D01*
X106953384Y-140150000D01*
G37*
G36*
X106995394Y-139098778D02*
G01*
X107010979Y-139148710D01*
X107017559Y-139201543D01*
X107021455Y-139258677D01*
X107023533Y-139312962D01*
X107024687Y-139374872D01*
X107024947Y-139426308D01*
X107024831Y-139478236D01*
X107024431Y-139530767D01*
X107023659Y-139582270D01*
X107023482Y-139590928D01*
X107020551Y-139719155D01*
X107020432Y-139772302D01*
X107021263Y-139823646D01*
X107022668Y-139875009D01*
X107024703Y-139932379D01*
X107026114Y-139984981D01*
X107027391Y-140039014D01*
X107028364Y-140091091D01*
X107028851Y-140141676D01*
X107028855Y-140145847D01*
X107058408Y-140150000D01*
X107108449Y-140146178D01*
X107156720Y-140134715D01*
X107203222Y-140115610D01*
X107247956Y-140088862D01*
X107290921Y-140054473D01*
X107304849Y-140041311D01*
X107341572Y-140002345D01*
X107372970Y-139960734D01*
X107399045Y-139916479D01*
X107419796Y-139869578D01*
X107435224Y-139820033D01*
X107439183Y-139802930D01*
X107454544Y-139754471D01*
X107459459Y-139700921D01*
X107461302Y-139648416D01*
X107461653Y-139607536D01*
X107459925Y-139553066D01*
X107454738Y-139500420D01*
X107446094Y-139449599D01*
X107433993Y-139400601D01*
X107418434Y-139353428D01*
X107399417Y-139308079D01*
X107376943Y-139264554D01*
X107351011Y-139222854D01*
X107317806Y-139179127D01*
X107281936Y-139141368D01*
X107243403Y-139109578D01*
X107191491Y-139078235D01*
X107135416Y-139056217D01*
X107087560Y-139045318D01*
X107037040Y-139040387D01*
X107010781Y-139040160D01*
X106947766Y-139041625D01*
X106979184Y-139081815D01*
X106995394Y-139098778D01*
G37*
G36*
X110526901Y-141830000D02*
G01*
X110535205Y-141788234D01*
X110535122Y-141728628D01*
X110534935Y-141674796D01*
X110534641Y-141615498D01*
X110534240Y-141550735D01*
X110533870Y-141498577D01*
X110533439Y-141443345D01*
X110532948Y-141385039D01*
X110532397Y-141323658D01*
X110531786Y-141259204D01*
X110531131Y-141194706D01*
X110530541Y-141133286D01*
X110530015Y-141074945D01*
X110529553Y-141019682D01*
X110529156Y-140967497D01*
X110528824Y-140918391D01*
X110528480Y-140857704D01*
X110528251Y-140802490D01*
X110528137Y-140752748D01*
X110528122Y-140729930D01*
X110494661Y-140720160D01*
X110441870Y-140722862D01*
X110392064Y-140730968D01*
X110334002Y-140748699D01*
X110280604Y-140774874D01*
X110231869Y-140809493D01*
X110196238Y-140843267D01*
X110163592Y-140882445D01*
X110155896Y-140893084D01*
X110125218Y-140942330D01*
X110099739Y-140995117D01*
X110079461Y-141051447D01*
X110066981Y-141099061D01*
X110057830Y-141148942D01*
X110052006Y-141201090D01*
X110049510Y-141255504D01*
X110049406Y-141269462D01*
X110051002Y-141330553D01*
X110055787Y-141388286D01*
X110063763Y-141442661D01*
X110074930Y-141493677D01*
X110089287Y-141541335D01*
X110111719Y-141596185D01*
X110139137Y-141645787D01*
X110151500Y-141664159D01*
X110182877Y-141703028D01*
X110227573Y-141744326D01*
X110278352Y-141777526D01*
X110323353Y-141798257D01*
X110372248Y-141813804D01*
X110425035Y-141824169D01*
X110481714Y-141829352D01*
X110511514Y-141830000D01*
X110526901Y-141830000D01*
G37*
G36*
X110602372Y-141821695D02*
G01*
X110623377Y-141830000D01*
X110990230Y-141827313D01*
X111000000Y-141818764D01*
X111004152Y-141158820D01*
X111003980Y-141089889D01*
X111003465Y-141026711D01*
X111002606Y-140969287D01*
X111001404Y-140917615D01*
X110999267Y-140857669D01*
X110996519Y-140807950D01*
X110991253Y-140752549D01*
X110984612Y-140720160D01*
X110607990Y-140720160D01*
X110598220Y-140731395D01*
X110599685Y-141275812D01*
X110600073Y-141337246D01*
X110600392Y-141392756D01*
X110600718Y-141453922D01*
X110600968Y-141503508D01*
X110601222Y-141556275D01*
X110601480Y-141612224D01*
X110601743Y-141671354D01*
X110602010Y-141733665D01*
X110602281Y-141799157D01*
X110602372Y-141821695D01*
G37*
G36*
X109153524Y-141155157D02*
G01*
X109190446Y-141118630D01*
X109225892Y-141081543D01*
X109266589Y-141037465D01*
X109300558Y-140999818D01*
X109337480Y-140958239D01*
X109377357Y-140912726D01*
X109420187Y-140863282D01*
X109465971Y-140809904D01*
X109498135Y-140772134D01*
X109531612Y-140732616D01*
X109513293Y-140720160D01*
X109150593Y-140724312D01*
X109142288Y-140736769D01*
X109153524Y-141155157D01*
G37*
G36*
X109308862Y-141495387D02*
G01*
X109532833Y-141270195D01*
X109532833Y-141257983D01*
X109300558Y-141032791D01*
X109287857Y-141050621D01*
X109288120Y-141100085D01*
X109288907Y-141151695D01*
X109290218Y-141205452D01*
X109290544Y-141216461D01*
X109292204Y-141269439D01*
X109293968Y-141328384D01*
X109295386Y-141379244D01*
X109296631Y-141429602D01*
X109297516Y-141478633D01*
X109297627Y-141495387D01*
X109308862Y-141495387D01*
G37*
G36*
X109139357Y-141821695D02*
G01*
X109150593Y-141830000D01*
X109202600Y-141829509D01*
X109256571Y-141828378D01*
X109305655Y-141827044D01*
X109344521Y-141825847D01*
X109398046Y-141824230D01*
X109451604Y-141822867D01*
X109502150Y-141821955D01*
X109538450Y-141821695D01*
X109538450Y-141813147D01*
X109149127Y-141348353D01*
X109135205Y-141365205D01*
X109135275Y-141414857D01*
X109135486Y-141464648D01*
X109135836Y-141514580D01*
X109136327Y-141564653D01*
X109136671Y-141593328D01*
X109139357Y-141821695D01*
G37*
G36*
X109558234Y-141007145D02*
G01*
X109558277Y-141058568D01*
X109558406Y-141112635D01*
X109558620Y-141169347D01*
X109558865Y-141218628D01*
X109559169Y-141269745D01*
X109559455Y-141311960D01*
X109565073Y-141821695D01*
X109583391Y-141825847D01*
X109960013Y-141823161D01*
X109968318Y-141806308D01*
X109968223Y-141750629D01*
X109968000Y-141701305D01*
X109967646Y-141649321D01*
X109967161Y-141594677D01*
X109966544Y-141537375D01*
X109965796Y-141477412D01*
X109965631Y-141465101D01*
X109960013Y-141068206D01*
X109959169Y-141007746D01*
X109958468Y-140949863D01*
X109957910Y-140894555D01*
X109957495Y-140841823D01*
X109957223Y-140791668D01*
X109957085Y-140734881D01*
X109957083Y-140725778D01*
X109917759Y-140720160D01*
X109868380Y-140720373D01*
X109818161Y-140720918D01*
X109761989Y-140721800D01*
X109707955Y-140722847D01*
X109559455Y-140727243D01*
X109558234Y-141007145D01*
G37*
G36*
X108281577Y-141218171D02*
G01*
X108292812Y-141218171D01*
X108328859Y-141172055D01*
X108361075Y-141131316D01*
X108395272Y-141088478D01*
X108431448Y-141043541D01*
X108469604Y-140996506D01*
X108501554Y-140957366D01*
X108518004Y-140937292D01*
X108512386Y-140933140D01*
X108546253Y-140897315D01*
X108582413Y-140856651D01*
X108606175Y-140829337D01*
X108639560Y-140790426D01*
X108670858Y-140751828D01*
X108686043Y-140728464D01*
X108676273Y-140720160D01*
X108288415Y-140720160D01*
X108280111Y-140729930D01*
X108281577Y-141218171D01*
G37*
G36*
X108527773Y-141759169D02*
G01*
X108546458Y-141710775D01*
X108574615Y-141667793D01*
X108608870Y-141622301D01*
X108644552Y-141578291D01*
X108660642Y-141559134D01*
X108698761Y-141514011D01*
X108733803Y-141472429D01*
X108765766Y-141434389D01*
X108803595Y-141389180D01*
X108835951Y-141350267D01*
X108868701Y-141310481D01*
X108900185Y-141271309D01*
X108908548Y-141260425D01*
X108940032Y-141216622D01*
X108967319Y-141175459D01*
X108995524Y-141127720D01*
X109020711Y-141075879D01*
X109038159Y-141022909D01*
X109042882Y-140983942D01*
X109039399Y-140933504D01*
X109026889Y-140881614D01*
X109005281Y-140835861D01*
X108974575Y-140796244D01*
X108970097Y-140791723D01*
X108930637Y-140760414D01*
X108885040Y-140738051D01*
X108833306Y-140724633D01*
X108783005Y-140720230D01*
X108775436Y-140720160D01*
X108726794Y-140725029D01*
X108719504Y-140726999D01*
X108735550Y-140774041D01*
X108736357Y-140786838D01*
X108720801Y-140837305D01*
X108694703Y-140881231D01*
X108662305Y-140926194D01*
X108628237Y-140968819D01*
X108604710Y-140996643D01*
X108358269Y-141284117D01*
X108326784Y-141326668D01*
X108293332Y-141376574D01*
X108266439Y-141422830D01*
X108242826Y-141473519D01*
X108227215Y-141526016D01*
X108223935Y-141559134D01*
X108228393Y-141611982D01*
X108241765Y-141660861D01*
X108264052Y-141705771D01*
X108295254Y-141746713D01*
X108335035Y-141782250D01*
X108378663Y-141807041D01*
X108426138Y-141821085D01*
X108477459Y-141824382D01*
X108546092Y-141821695D01*
X108536322Y-141791898D01*
X108527773Y-141759169D01*
G37*
G36*
X108868004Y-141830000D02*
G01*
X108917490Y-141829254D01*
X108936636Y-141828778D01*
X108986915Y-141827486D01*
X109005024Y-141827313D01*
X109017725Y-141810460D01*
X109017579Y-141761121D01*
X109017141Y-141707077D01*
X109016411Y-141648327D01*
X109015580Y-141595774D01*
X109014546Y-141539953D01*
X109013572Y-141492944D01*
X109010642Y-141271416D01*
X109002337Y-141271416D01*
X108962211Y-141321884D01*
X108922158Y-141372447D01*
X108882178Y-141423104D01*
X108842270Y-141473855D01*
X108802436Y-141524701D01*
X108762675Y-141575642D01*
X108722987Y-141626676D01*
X108683371Y-141677806D01*
X108643829Y-141729029D01*
X108604360Y-141780348D01*
X108578087Y-141814612D01*
X108626679Y-141819841D01*
X108677933Y-141823989D01*
X108731849Y-141827054D01*
X108788426Y-141829038D01*
X108837608Y-141829864D01*
X108868004Y-141830000D01*
G37*
G36*
X107885170Y-141830000D02*
G01*
X108127459Y-141827313D01*
X108138695Y-141814612D01*
X108141381Y-140725778D01*
X108133077Y-140720160D01*
X107745219Y-140724312D01*
X107739295Y-140780335D01*
X107737155Y-140838686D01*
X107735838Y-140899930D01*
X107735081Y-140954358D01*
X107734522Y-141016068D01*
X107734160Y-141085059D01*
X107734028Y-141135098D01*
X107733984Y-141188374D01*
X107735450Y-141824382D01*
X107787294Y-141825767D01*
X107820935Y-141827313D01*
X107885170Y-141830000D01*
G37*
G36*
X106726482Y-140784396D02*
G01*
X106727066Y-140836362D01*
X106728271Y-140885841D01*
X106729893Y-140937380D01*
X106730635Y-140958541D01*
X106732451Y-141012748D01*
X106733874Y-141065227D01*
X106734722Y-141117142D01*
X106734787Y-141132686D01*
X106747487Y-141132686D01*
X106784051Y-141096439D01*
X106823767Y-141055963D01*
X106866636Y-141011259D01*
X106900856Y-140974956D01*
X106936849Y-140936275D01*
X106974615Y-140895215D01*
X107014155Y-140851776D01*
X107055467Y-140805959D01*
X107098553Y-140757764D01*
X107128262Y-140724312D01*
X107111409Y-140720160D01*
X106734787Y-140724312D01*
X106726482Y-140732372D01*
X106726482Y-140784396D01*
G37*
G36*
X106680321Y-141373754D02*
G01*
X106682545Y-141430834D01*
X106689217Y-141484837D01*
X106700338Y-141535763D01*
X106715907Y-141583612D01*
X106735925Y-141628384D01*
X106765818Y-141678049D01*
X106771423Y-141685896D01*
X106804861Y-141726214D01*
X106842282Y-141759699D01*
X106883687Y-141786349D01*
X106929074Y-141806167D01*
X106978445Y-141819150D01*
X107031799Y-141825301D01*
X107054256Y-141825847D01*
X107100418Y-141821695D01*
X107100418Y-141751598D01*
X107100013Y-141697893D01*
X107099104Y-141644419D01*
X107097884Y-141589966D01*
X107096522Y-141537598D01*
X107096266Y-141528360D01*
X107094855Y-141475042D01*
X107093578Y-141419524D01*
X107092605Y-141364890D01*
X107092130Y-141314666D01*
X107092114Y-141305122D01*
X107082100Y-141298039D01*
X106693021Y-141305122D01*
X106680321Y-141319043D01*
X106680321Y-141373754D01*
G37*
G36*
X107166364Y-141825847D02*
G01*
X107178820Y-141830000D01*
X107233218Y-141827366D01*
X107284425Y-141819467D01*
X107332441Y-141806300D01*
X107387976Y-141782437D01*
X107438525Y-141750344D01*
X107484089Y-141710022D01*
X107516951Y-141671840D01*
X107524668Y-141661472D01*
X107556120Y-141612910D01*
X107582242Y-141560340D01*
X107603032Y-141503764D01*
X107615826Y-141455617D01*
X107625209Y-141404906D01*
X107631179Y-141351631D01*
X107633738Y-141295791D01*
X107633845Y-141281430D01*
X107632028Y-141223831D01*
X107626578Y-141168758D01*
X107617496Y-141116211D01*
X107604780Y-141066191D01*
X107588431Y-141018697D01*
X107568449Y-140973730D01*
X107538362Y-140921073D01*
X107517585Y-140891374D01*
X107483830Y-140851246D01*
X107446922Y-140816468D01*
X107406863Y-140787041D01*
X107363651Y-140762964D01*
X107317287Y-140744237D01*
X107267770Y-140730861D01*
X107215102Y-140722835D01*
X107159281Y-140720160D01*
X107153663Y-140729930D01*
X107153729Y-140786945D01*
X107153926Y-140843961D01*
X107154253Y-140900976D01*
X107154713Y-140957991D01*
X107155303Y-141015007D01*
X107156024Y-141072022D01*
X107156350Y-141094829D01*
X107166364Y-141825847D01*
G37*
G36*
X105752930Y-141541549D02*
G01*
X105758548Y-141541549D01*
X105783732Y-141487224D01*
X105810923Y-141427441D01*
X105832633Y-141379023D01*
X105855473Y-141327536D01*
X105879442Y-141272978D01*
X105904540Y-141215351D01*
X105930768Y-141154654D01*
X105958124Y-141090887D01*
X105986610Y-141024051D01*
X106006227Y-140977788D01*
X106016224Y-140954145D01*
X106038912Y-140899929D01*
X106057974Y-140853299D01*
X106076064Y-140807355D01*
X106093409Y-140758917D01*
X106098778Y-140738234D01*
X106089009Y-140722847D01*
X105904117Y-140720160D01*
X105853842Y-140720198D01*
X105804378Y-140722144D01*
X105750904Y-140726489D01*
X105746092Y-140726999D01*
X105744626Y-140806133D01*
X105752930Y-141541549D01*
G37*
G36*
X105765631Y-141830000D02*
G01*
X106154710Y-141825847D01*
X106299057Y-141519567D01*
X106335850Y-141441069D01*
X106370269Y-141367140D01*
X106402315Y-141297782D01*
X106431987Y-141232994D01*
X106459285Y-141172775D01*
X106484209Y-141117127D01*
X106506759Y-141066049D01*
X106526936Y-141019541D01*
X106552750Y-140958347D01*
X106573224Y-140907436D01*
X106592214Y-140855550D01*
X106602896Y-140811995D01*
X106600138Y-140761870D01*
X106593126Y-140720160D01*
X106196720Y-140722847D01*
X106169858Y-140765170D01*
X106144915Y-140809269D01*
X106117646Y-140861393D01*
X106094157Y-140908872D01*
X106069179Y-140961487D01*
X106042713Y-141019239D01*
X106021887Y-141065924D01*
X106014759Y-141082128D01*
X105992942Y-141132074D01*
X105972891Y-141179240D01*
X105952772Y-141226959D01*
X105929027Y-141283555D01*
X105908839Y-141331827D01*
X105886611Y-141385092D01*
X105862345Y-141443350D01*
X105853803Y-141463879D01*
X105830161Y-141521185D01*
X105809671Y-141571957D01*
X105788492Y-141626234D01*
X105769578Y-141677892D01*
X105754507Y-141727814D01*
X105752930Y-141739385D01*
X105754396Y-141820230D01*
X105765631Y-141830000D01*
G37*
G36*
X106268283Y-141830000D02*
G01*
X106599965Y-141828534D01*
X106606211Y-141779046D01*
X106607048Y-141743049D01*
X106607048Y-141543991D01*
X106606788Y-141492059D01*
X106606135Y-141437352D01*
X106605259Y-141383577D01*
X106604307Y-141333910D01*
X106603151Y-141279831D01*
X106602896Y-141268485D01*
X106601699Y-141213453D01*
X106600706Y-141162845D01*
X106599781Y-141107957D01*
X106599072Y-141051972D01*
X106598747Y-140998609D01*
X106598743Y-140992735D01*
X106575601Y-141038683D01*
X106555100Y-141085585D01*
X106535817Y-141131231D01*
X106513186Y-141185849D01*
X106487206Y-141249440D01*
X106468025Y-141296820D01*
X106447356Y-141348187D01*
X106425198Y-141403542D01*
X106401553Y-141462886D01*
X106376418Y-141526217D01*
X106363293Y-141559378D01*
X106261200Y-141814612D01*
X106268283Y-141830000D01*
G37*
G36*
X104836287Y-141155157D02*
G01*
X104873210Y-141118630D01*
X104908655Y-141081543D01*
X104949352Y-141037465D01*
X104983321Y-140999818D01*
X105020244Y-140958239D01*
X105060120Y-140912726D01*
X105102951Y-140863282D01*
X105148735Y-140809904D01*
X105180898Y-140772134D01*
X105214375Y-140732616D01*
X105196057Y-140720160D01*
X104833356Y-140724312D01*
X104825052Y-140736769D01*
X104836287Y-141155157D01*
G37*
G36*
X104991625Y-141495387D02*
G01*
X105215596Y-141270195D01*
X105215596Y-141257983D01*
X104983321Y-141032791D01*
X104970621Y-141050621D01*
X104970883Y-141100085D01*
X104971670Y-141151695D01*
X104972982Y-141205452D01*
X104973307Y-141216461D01*
X104974967Y-141269439D01*
X104976731Y-141328384D01*
X104978149Y-141379244D01*
X104979394Y-141429602D01*
X104980280Y-141478633D01*
X104980390Y-141495387D01*
X104991625Y-141495387D01*
G37*
G36*
X104822121Y-141821695D02*
G01*
X104833356Y-141830000D01*
X104885363Y-141829509D01*
X104939335Y-141828378D01*
X104988418Y-141827044D01*
X105027285Y-141825847D01*
X105080810Y-141824230D01*
X105134368Y-141822867D01*
X105184913Y-141821955D01*
X105221214Y-141821695D01*
X105221214Y-141813147D01*
X104831891Y-141348353D01*
X104817969Y-141365205D01*
X104818039Y-141414857D01*
X104818249Y-141464648D01*
X104818600Y-141514580D01*
X104819091Y-141564653D01*
X104819434Y-141593328D01*
X104822121Y-141821695D01*
G37*
G36*
X105240997Y-141007145D02*
G01*
X105241040Y-141058568D01*
X105241169Y-141112635D01*
X105241384Y-141169347D01*
X105241628Y-141218628D01*
X105241932Y-141269745D01*
X105242219Y-141311960D01*
X105247836Y-141821695D01*
X105266154Y-141825847D01*
X105642777Y-141823161D01*
X105651081Y-141806308D01*
X105650987Y-141750629D01*
X105650764Y-141701305D01*
X105650409Y-141649321D01*
X105649924Y-141594677D01*
X105649308Y-141537375D01*
X105648560Y-141477412D01*
X105648394Y-141465101D01*
X105642777Y-141068206D01*
X105641933Y-141007746D01*
X105641231Y-140949863D01*
X105640673Y-140894555D01*
X105640258Y-140841823D01*
X105639986Y-140791668D01*
X105639849Y-140734881D01*
X105639846Y-140725778D01*
X105600523Y-140720160D01*
X105551143Y-140720373D01*
X105500925Y-140720918D01*
X105444752Y-140721800D01*
X105390718Y-140722847D01*
X105242219Y-140727243D01*
X105240997Y-141007145D01*
G37*
G36*
X104249860Y-141830000D02*
G01*
X104258164Y-141788234D01*
X104258081Y-141728628D01*
X104257894Y-141674796D01*
X104257600Y-141615498D01*
X104257199Y-141550735D01*
X104256828Y-141498577D01*
X104256398Y-141443345D01*
X104255907Y-141385039D01*
X104255356Y-141323658D01*
X104254745Y-141259204D01*
X104254090Y-141194706D01*
X104253500Y-141133286D01*
X104252974Y-141074945D01*
X104252512Y-141019682D01*
X104252115Y-140967497D01*
X104251782Y-140918391D01*
X104251439Y-140857704D01*
X104251210Y-140802490D01*
X104251095Y-140752748D01*
X104251081Y-140729930D01*
X104217620Y-140720160D01*
X104164829Y-140722862D01*
X104115023Y-140730968D01*
X104056961Y-140748699D01*
X104003563Y-140774874D01*
X103954828Y-140809493D01*
X103919197Y-140843267D01*
X103886550Y-140882445D01*
X103878855Y-140893084D01*
X103848177Y-140942330D01*
X103822698Y-140995117D01*
X103802419Y-141051447D01*
X103789940Y-141099061D01*
X103780789Y-141148942D01*
X103774965Y-141201090D01*
X103772469Y-141255504D01*
X103772365Y-141269462D01*
X103773960Y-141330553D01*
X103778746Y-141388286D01*
X103786722Y-141442661D01*
X103797889Y-141493677D01*
X103812245Y-141541335D01*
X103834678Y-141596185D01*
X103862096Y-141645787D01*
X103874459Y-141664159D01*
X103905836Y-141703028D01*
X103950532Y-141744326D01*
X104001310Y-141777526D01*
X104046312Y-141798257D01*
X104095207Y-141813804D01*
X104147993Y-141824169D01*
X104204673Y-141829352D01*
X104234473Y-141830000D01*
X104249860Y-141830000D01*
G37*
G36*
X104325331Y-141821695D02*
G01*
X104346336Y-141830000D01*
X104713189Y-141827313D01*
X104722958Y-141818764D01*
X104727110Y-141158820D01*
X104726939Y-141089889D01*
X104726424Y-141026711D01*
X104725565Y-140969287D01*
X104724363Y-140917615D01*
X104722226Y-140857669D01*
X104719478Y-140807950D01*
X104714211Y-140752549D01*
X104707571Y-140720160D01*
X104330949Y-140720160D01*
X104321179Y-140731395D01*
X104322644Y-141275812D01*
X104323032Y-141337246D01*
X104323351Y-141392756D01*
X104323677Y-141453922D01*
X104323927Y-141503508D01*
X104324181Y-141556275D01*
X104324439Y-141612224D01*
X104324702Y-141671354D01*
X104324968Y-141733665D01*
X104325240Y-141799157D01*
X104325331Y-141821695D01*
G37*
G36*
X102799546Y-141828534D02*
G01*
X102807850Y-141818764D01*
X102799546Y-140729930D01*
X102757536Y-140720160D01*
X102705484Y-140722169D01*
X102650009Y-140729592D01*
X102600190Y-140742485D01*
X102550182Y-140763918D01*
X102527948Y-140777313D01*
X102489214Y-140810029D01*
X102459994Y-140849407D01*
X102440287Y-140895447D01*
X102430094Y-140948149D01*
X102428541Y-140981256D01*
X102434587Y-141035776D01*
X102452727Y-141084238D01*
X102482959Y-141126642D01*
X102525284Y-141162988D01*
X102567851Y-141187702D01*
X102618157Y-141208539D01*
X102676203Y-141225498D01*
X102681821Y-141233803D01*
X102637353Y-141257685D01*
X102590012Y-141283569D01*
X102545407Y-141308192D01*
X102533321Y-141314891D01*
X102491352Y-141348241D01*
X102459691Y-141390799D01*
X102438338Y-141442568D01*
X102428240Y-141494271D01*
X102425610Y-141542526D01*
X102428985Y-141593545D01*
X102441452Y-141647055D01*
X102463105Y-141694090D01*
X102493945Y-141734650D01*
X102521598Y-141759658D01*
X102565612Y-141788485D01*
X102613881Y-141809786D01*
X102666404Y-141823561D01*
X102723182Y-141829809D01*
X102757536Y-141830000D01*
X102799546Y-141828534D01*
G37*
G36*
X102882100Y-141816078D02*
G01*
X102894556Y-141827313D01*
X103253105Y-141830000D01*
X103274110Y-141821695D01*
X103274015Y-141764874D01*
X103273792Y-141714533D01*
X103273438Y-141661472D01*
X103272953Y-141605692D01*
X103272336Y-141547193D01*
X103271588Y-141485975D01*
X103271423Y-141473405D01*
X103265806Y-141071137D01*
X103265176Y-141021533D01*
X103264507Y-140962039D01*
X103263969Y-140905336D01*
X103263562Y-140851424D01*
X103263287Y-140800302D01*
X103263129Y-140742640D01*
X103263119Y-140724312D01*
X103254570Y-140720160D01*
X103164933Y-140720160D01*
X103115901Y-140720333D01*
X103066870Y-140720853D01*
X103022295Y-140721625D01*
X102879413Y-140724312D01*
X102873796Y-140749469D01*
X102873815Y-140803771D01*
X102873872Y-140856035D01*
X102873967Y-140906262D01*
X102874140Y-140966179D01*
X102874373Y-141022911D01*
X102874665Y-141076460D01*
X102875017Y-141126824D01*
X102882100Y-141816078D01*
G37*
G36*
X101414200Y-140839839D02*
G01*
X101400279Y-140841304D01*
X101432765Y-140878764D01*
X101457622Y-140921884D01*
X101483840Y-140971829D01*
X101503838Y-141011786D01*
X101528325Y-141061322D01*
X101552913Y-141111713D01*
X101576607Y-141160713D01*
X101598534Y-141206360D01*
X101606175Y-141222323D01*
X101632615Y-141176528D01*
X101653897Y-141131224D01*
X101676847Y-141080151D01*
X101689951Y-141050376D01*
X101712156Y-140999306D01*
X101734459Y-140947689D01*
X101755196Y-140899203D01*
X101775436Y-140850830D01*
X101771284Y-140846678D01*
X101797147Y-140802405D01*
X101818126Y-140753132D01*
X101824528Y-140736769D01*
X101777874Y-140720225D01*
X101772749Y-140720160D01*
X101723244Y-140720328D01*
X101667297Y-140720832D01*
X101613059Y-140721548D01*
X101562644Y-140722367D01*
X101536078Y-140722847D01*
X101372191Y-140726999D01*
X101389358Y-140775460D01*
X101398813Y-140797096D01*
X101414200Y-140839839D01*
G37*
G36*
X101641102Y-141827313D02*
G01*
X102034577Y-141830000D01*
X102045812Y-141817543D01*
X102041416Y-141490258D01*
X102045256Y-141436019D01*
X102054957Y-141385964D01*
X102068279Y-141337308D01*
X102086113Y-141284117D01*
X102105606Y-141233757D01*
X102125794Y-141185810D01*
X102148903Y-141134240D01*
X102171037Y-141087154D01*
X102186985Y-141054284D01*
X102286392Y-140853761D01*
X102279553Y-140849609D01*
X102292254Y-140843991D01*
X102341102Y-140732616D01*
X102331332Y-140720160D01*
X101907083Y-140722847D01*
X101886078Y-140764124D01*
X101854082Y-140836175D01*
X101831612Y-140838862D01*
X101848220Y-140838862D01*
X101830360Y-140885435D01*
X101810576Y-140931727D01*
X101789258Y-140978819D01*
X101768009Y-141024076D01*
X101764200Y-141032058D01*
X101741082Y-141081835D01*
X101717953Y-141133071D01*
X101696586Y-141182610D01*
X101677475Y-141231010D01*
X101676029Y-141235024D01*
X101660231Y-141285044D01*
X101646927Y-141338575D01*
X101638692Y-141388229D01*
X101635484Y-141439455D01*
X101635771Y-141489902D01*
X101636412Y-141542452D01*
X101637273Y-141597325D01*
X101638235Y-141650963D01*
X101638415Y-141660495D01*
X101641102Y-141827313D01*
G37*
G36*
X100200314Y-141430418D02*
G01*
X100203637Y-141501828D01*
X100213606Y-141566213D01*
X100230221Y-141623575D01*
X100253482Y-141673913D01*
X100283389Y-141717227D01*
X100319943Y-141753517D01*
X100363142Y-141782783D01*
X100412988Y-141805026D01*
X100469480Y-141820244D01*
X100532617Y-141828439D01*
X100578401Y-141830000D01*
X100628822Y-141827758D01*
X100676587Y-141822916D01*
X100679274Y-141818764D01*
X100640868Y-141785264D01*
X100614555Y-141741122D01*
X100606489Y-141717159D01*
X100597373Y-141665847D01*
X100594099Y-141612896D01*
X100593789Y-141587711D01*
X100593789Y-141534710D01*
X100592323Y-140725778D01*
X100582554Y-140720160D01*
X100207397Y-140727243D01*
X100200314Y-140734082D01*
X100200314Y-141430418D01*
G37*
G36*
X100815073Y-141814368D02*
G01*
X100865615Y-141809144D01*
X100914544Y-141791332D01*
X100956489Y-141760879D01*
X100988333Y-141720151D01*
X101006959Y-141671515D01*
X101012421Y-141620439D01*
X101006389Y-141568070D01*
X100988293Y-141520780D01*
X100961374Y-141482198D01*
X100923220Y-141448824D01*
X100874620Y-141428216D01*
X100833391Y-141423579D01*
X100783693Y-141429161D01*
X100735527Y-141448193D01*
X100694173Y-141480732D01*
X100662607Y-141523262D01*
X100644144Y-141572604D01*
X100638729Y-141623370D01*
X100643452Y-141672200D01*
X100659556Y-141719521D01*
X100687090Y-141760146D01*
X100727641Y-141793188D01*
X100777124Y-141810979D01*
X100815073Y-141814368D01*
G37*
G36*
X99626343Y-141828534D02*
G01*
X99634647Y-141818764D01*
X99626343Y-140729930D01*
X99584333Y-140720160D01*
X99532281Y-140722169D01*
X99476806Y-140729592D01*
X99426987Y-140742485D01*
X99376979Y-140763918D01*
X99354745Y-140777313D01*
X99316011Y-140810029D01*
X99286791Y-140849407D01*
X99267084Y-140895447D01*
X99256891Y-140948149D01*
X99255338Y-140981256D01*
X99261384Y-141035776D01*
X99279524Y-141084238D01*
X99309756Y-141126642D01*
X99352081Y-141162988D01*
X99394648Y-141187702D01*
X99444954Y-141208539D01*
X99503000Y-141225498D01*
X99508618Y-141233803D01*
X99464150Y-141257685D01*
X99416809Y-141283569D01*
X99372204Y-141308192D01*
X99360118Y-141314891D01*
X99318149Y-141348241D01*
X99286488Y-141390799D01*
X99265135Y-141442568D01*
X99255037Y-141494271D01*
X99252407Y-141542526D01*
X99255782Y-141593545D01*
X99268249Y-141647055D01*
X99289902Y-141694090D01*
X99320742Y-141734650D01*
X99348394Y-141759658D01*
X99392409Y-141788485D01*
X99440678Y-141809786D01*
X99493201Y-141823561D01*
X99549979Y-141829809D01*
X99584333Y-141830000D01*
X99626343Y-141828534D01*
G37*
G36*
X99708897Y-141816078D02*
G01*
X99721353Y-141827313D01*
X100079902Y-141830000D01*
X100100907Y-141821695D01*
X100100812Y-141764874D01*
X100100589Y-141714533D01*
X100100235Y-141661472D01*
X100099750Y-141605692D01*
X100099133Y-141547193D01*
X100098385Y-141485975D01*
X100098220Y-141473405D01*
X100092602Y-141071137D01*
X100091973Y-141021533D01*
X100091304Y-140962039D01*
X100090766Y-140905336D01*
X100090359Y-140851424D01*
X100090084Y-140800302D01*
X100089926Y-140742640D01*
X100089916Y-140724312D01*
X100081367Y-140720160D01*
X99991730Y-140720160D01*
X99942698Y-140720333D01*
X99893667Y-140720853D01*
X99849092Y-140721625D01*
X99706210Y-140724312D01*
X99700593Y-140749469D01*
X99700612Y-140803771D01*
X99700669Y-140856035D01*
X99700764Y-140906262D01*
X99700937Y-140966179D01*
X99701170Y-141022911D01*
X99701462Y-141076460D01*
X99701814Y-141126824D01*
X99708897Y-141816078D01*
G37*
D11*
%TO.C,J2*%
X128025000Y-95200000D03*
D12*
X128025000Y-97740000D03*
D13*
X128025000Y-100280000D03*
X128025000Y-102820000D03*
%TD*%
D14*
%TO.C,SW1*%
X122000000Y-138750000D03*
D15*
X117000000Y-138750000D03*
D16*
X113900000Y-131750000D03*
X125100000Y-131750000D03*
D14*
X119500000Y-124250000D03*
D15*
X117000000Y-124250000D03*
X122000000Y-124250000D03*
%TD*%
D17*
%TO.C,REF\u002A\u002A*%
X129000000Y-142500000D03*
%TD*%
D18*
%TO.C,SW2*%
X128200000Y-88300000D03*
X128200000Y-80100000D03*
D19*
X128200000Y-86200000D03*
X128200000Y-84200000D03*
X128200000Y-82200000D03*
%TD*%
D11*
%TO.C,J1*%
X91500000Y-108225000D03*
D13*
X91500000Y-110765000D03*
%TD*%
D11*
%TO.C,J4*%
X91500000Y-79000000D03*
D13*
X91500000Y-81540000D03*
D12*
X91500000Y-84080000D03*
X91500000Y-86620000D03*
X91500000Y-89160000D03*
X91500000Y-91700000D03*
X91500000Y-94240000D03*
X91500000Y-96780000D03*
X91500000Y-99320000D03*
%TD*%
D11*
%TO.C,J3*%
X116540000Y-116500000D03*
D12*
X114000000Y-116500000D03*
X111460000Y-116500000D03*
X108920000Y-116500000D03*
X106380000Y-116500000D03*
X103840000Y-116500000D03*
X101300000Y-116500000D03*
D13*
X98760000Y-116500000D03*
%TD*%
D17*
%TO.C,REF\u002A\u002A*%
X90000000Y-142500000D03*
%TD*%
D11*
%TO.C,J6*%
X107000000Y-78960000D03*
D12*
X107000000Y-81500000D03*
X107000000Y-84040000D03*
X107000000Y-86580000D03*
X107000000Y-89120000D03*
X107000000Y-91660000D03*
X107000000Y-94200000D03*
X107000000Y-96740000D03*
X107000000Y-99280000D03*
%TD*%
M02*
