%TF.GenerationSoftware,KiCad,Pcbnew,8.0.6*%
%TF.CreationDate,2026-08-27T20:11:19-04:00*%
%TF.ProjectId,miniextremeV1.1FINAL,6d696e69-6578-4747-9265-6d6556312e31,rev?*%
%TF.SameCoordinates,Original*%
%TF.FileFunction,Drillmap*%
%TF.FilePolarity,Positive*%
%FSLAX45Y45*%
G04 Gerber Fmt 4.5, Leading zero omitted, Abs format (unit mm)*
G04 Created by KiCad (PCBNEW 8.0.6) date 2026-08-27 20:11:19*
%MOMM*%
%LPD*%
G01*
G04 APERTURE LIST*
%ADD10C,0.050000*%
%ADD11C,0.200000*%
%ADD12C,0.100000*%
%ADD13C,0.150000*%
%ADD14C,0.260000*%
G04 APERTURE END LIST*
D10*
X8950000Y-14500000D02*
G75*
G02*
X8750000Y-14300000I0J200000D01*
G01*
X13150000Y-7700000D02*
X13150000Y-14300000D01*
X8750000Y-14300000D02*
X8750000Y-7700000D01*
X8750000Y-7700000D02*
G75*
G02*
X8950000Y-7500000I200000J0D01*
G01*
X13150000Y-14300000D02*
G75*
G02*
X12950000Y-14500000I-200000J0D01*
G01*
X12950000Y-7500000D02*
G75*
G02*
X13150000Y-7700000I0J-200000D01*
G01*
X8950000Y-7500000D02*
X12950000Y-7500000D01*
X12950000Y-14500000D02*
X8950000Y-14500000D01*
D11*
D12*
X10185000Y-10185000D02*
X10215000Y-10215000D01*
X10215000Y-10185000D02*
X10185000Y-10215000D01*
X10385000Y-9735000D02*
X10415000Y-9765000D01*
X10415000Y-9735000D02*
X10385000Y-9765000D01*
X12865000Y-8220000D02*
G75*
G02*
X12775000Y-8220000I-45000J0D01*
G01*
X12775000Y-8220000D02*
G75*
G02*
X12865000Y-8220000I45000J0D01*
G01*
X12865000Y-8420000D02*
G75*
G02*
X12775000Y-8420000I-45000J0D01*
G01*
X12775000Y-8420000D02*
G75*
G02*
X12865000Y-8420000I45000J0D01*
G01*
X12865000Y-8620000D02*
G75*
G02*
X12775000Y-8620000I-45000J0D01*
G01*
X12775000Y-8620000D02*
G75*
G02*
X12865000Y-8620000I45000J0D01*
G01*
X9150000Y-7850000D02*
X9150000Y-7950000D01*
X9100000Y-7900000D02*
X9200000Y-7900000D01*
X9150000Y-8104000D02*
X9150000Y-8204000D01*
X9100000Y-8154000D02*
X9200000Y-8154000D01*
X9150000Y-8358000D02*
X9150000Y-8458000D01*
X9100000Y-8408000D02*
X9200000Y-8408000D01*
X9150000Y-8612000D02*
X9150000Y-8712000D01*
X9100000Y-8662000D02*
X9200000Y-8662000D01*
X9150000Y-8866000D02*
X9150000Y-8966000D01*
X9100000Y-8916000D02*
X9200000Y-8916000D01*
X9150000Y-9120000D02*
X9150000Y-9220000D01*
X9100000Y-9170000D02*
X9200000Y-9170000D01*
X9150000Y-9374000D02*
X9150000Y-9474000D01*
X9100000Y-9424000D02*
X9200000Y-9424000D01*
X9150000Y-9628000D02*
X9150000Y-9728000D01*
X9100000Y-9678000D02*
X9200000Y-9678000D01*
X9150000Y-9882000D02*
X9150000Y-9982000D01*
X9100000Y-9932000D02*
X9200000Y-9932000D01*
X9150000Y-10772500D02*
X9150000Y-10872500D01*
X9100000Y-10822500D02*
X9200000Y-10822500D01*
X9150000Y-11026500D02*
X9150000Y-11126500D01*
X9100000Y-11076500D02*
X9200000Y-11076500D01*
X9876000Y-11600000D02*
X9876000Y-11700000D01*
X9826000Y-11650000D02*
X9926000Y-11650000D01*
X10130000Y-11600000D02*
X10130000Y-11700000D01*
X10080000Y-11650000D02*
X10180000Y-11650000D01*
X10384000Y-11600000D02*
X10384000Y-11700000D01*
X10334000Y-11650000D02*
X10434000Y-11650000D01*
X10638000Y-11600000D02*
X10638000Y-11700000D01*
X10588000Y-11650000D02*
X10688000Y-11650000D01*
X10700000Y-7846000D02*
X10700000Y-7946000D01*
X10650000Y-7896000D02*
X10750000Y-7896000D01*
X10700000Y-8100000D02*
X10700000Y-8200000D01*
X10650000Y-8150000D02*
X10750000Y-8150000D01*
X10700000Y-8354000D02*
X10700000Y-8454000D01*
X10650000Y-8404000D02*
X10750000Y-8404000D01*
X10700000Y-8608000D02*
X10700000Y-8708000D01*
X10650000Y-8658000D02*
X10750000Y-8658000D01*
X10700000Y-8862000D02*
X10700000Y-8962000D01*
X10650000Y-8912000D02*
X10750000Y-8912000D01*
X10700000Y-9116000D02*
X10700000Y-9216000D01*
X10650000Y-9166000D02*
X10750000Y-9166000D01*
X10700000Y-9370000D02*
X10700000Y-9470000D01*
X10650000Y-9420000D02*
X10750000Y-9420000D01*
X10700000Y-9624000D02*
X10700000Y-9724000D01*
X10650000Y-9674000D02*
X10750000Y-9674000D01*
X10700000Y-9878000D02*
X10700000Y-9978000D01*
X10650000Y-9928000D02*
X10750000Y-9928000D01*
X10892000Y-11600000D02*
X10892000Y-11700000D01*
X10842000Y-11650000D02*
X10942000Y-11650000D01*
X11146000Y-11600000D02*
X11146000Y-11700000D01*
X11096000Y-11650000D02*
X11196000Y-11650000D01*
X11400000Y-11600000D02*
X11400000Y-11700000D01*
X11350000Y-11650000D02*
X11450000Y-11650000D01*
X11654000Y-11600000D02*
X11654000Y-11700000D01*
X11604000Y-11650000D02*
X11704000Y-11650000D01*
X11700000Y-12375000D02*
X11700000Y-12475000D01*
X11650000Y-12425000D02*
X11750000Y-12425000D01*
X11700000Y-13825000D02*
X11700000Y-13925000D01*
X11650000Y-13875000D02*
X11750000Y-13875000D01*
X11950000Y-12375000D02*
X11950000Y-12475000D01*
X11900000Y-12425000D02*
X12000000Y-12425000D01*
X12200000Y-12375000D02*
X12200000Y-12475000D01*
X12150000Y-12425000D02*
X12250000Y-12425000D01*
X12200000Y-13825000D02*
X12200000Y-13925000D01*
X12150000Y-13875000D02*
X12250000Y-13875000D01*
X12802500Y-9470000D02*
X12802500Y-9570000D01*
X12752500Y-9520000D02*
X12852500Y-9520000D01*
X12802500Y-9724000D02*
X12802500Y-9824000D01*
X12752500Y-9774000D02*
X12852500Y-9774000D01*
X12802500Y-9978000D02*
X12802500Y-10078000D01*
X12752500Y-10028000D02*
X12852500Y-10028000D01*
X12802500Y-10232000D02*
X12802500Y-10332000D01*
X12752500Y-10282000D02*
X12852500Y-10282000D01*
D13*
X12873033Y-8063033D02*
X12873033Y-7956966D01*
X12766966Y-7956966D01*
X12766966Y-8063033D01*
X12873033Y-8063033D01*
X12873033Y-8883034D02*
X12873033Y-8776967D01*
X12766966Y-8776967D01*
X12766966Y-8883034D01*
X12873033Y-8883034D01*
D14*
X11390000Y-13305000D02*
X11520000Y-13175000D01*
X11390000Y-13045000D01*
X11260000Y-13175000D01*
X11390000Y-13305000D01*
X12510000Y-13305000D02*
X12640000Y-13175000D01*
X12510000Y-13045000D01*
X12380000Y-13175000D01*
X12510000Y-13305000D01*
D11*
X9008277Y-14813984D02*
X9008277Y-14613984D01*
X9008277Y-14613984D02*
X9055896Y-14613984D01*
X9055896Y-14613984D02*
X9084467Y-14623508D01*
X9084467Y-14623508D02*
X9103515Y-14642555D01*
X9103515Y-14642555D02*
X9113039Y-14661603D01*
X9113039Y-14661603D02*
X9122563Y-14699698D01*
X9122563Y-14699698D02*
X9122563Y-14728269D01*
X9122563Y-14728269D02*
X9113039Y-14766365D01*
X9113039Y-14766365D02*
X9103515Y-14785412D01*
X9103515Y-14785412D02*
X9084467Y-14804460D01*
X9084467Y-14804460D02*
X9055896Y-14813984D01*
X9055896Y-14813984D02*
X9008277Y-14813984D01*
X9208277Y-14813984D02*
X9208277Y-14680650D01*
X9208277Y-14718746D02*
X9217801Y-14699698D01*
X9217801Y-14699698D02*
X9227324Y-14690174D01*
X9227324Y-14690174D02*
X9246372Y-14680650D01*
X9246372Y-14680650D02*
X9265420Y-14680650D01*
X9332086Y-14813984D02*
X9332086Y-14680650D01*
X9332086Y-14613984D02*
X9322563Y-14623508D01*
X9322563Y-14623508D02*
X9332086Y-14633031D01*
X9332086Y-14633031D02*
X9341610Y-14623508D01*
X9341610Y-14623508D02*
X9332086Y-14613984D01*
X9332086Y-14613984D02*
X9332086Y-14633031D01*
X9455896Y-14813984D02*
X9436848Y-14804460D01*
X9436848Y-14804460D02*
X9427324Y-14785412D01*
X9427324Y-14785412D02*
X9427324Y-14613984D01*
X9560658Y-14813984D02*
X9541610Y-14804460D01*
X9541610Y-14804460D02*
X9532086Y-14785412D01*
X9532086Y-14785412D02*
X9532086Y-14613984D01*
X9789229Y-14813984D02*
X9789229Y-14613984D01*
X9789229Y-14613984D02*
X9855896Y-14756841D01*
X9855896Y-14756841D02*
X9922563Y-14613984D01*
X9922563Y-14613984D02*
X9922563Y-14813984D01*
X10103515Y-14813984D02*
X10103515Y-14709222D01*
X10103515Y-14709222D02*
X10093991Y-14690174D01*
X10093991Y-14690174D02*
X10074944Y-14680650D01*
X10074944Y-14680650D02*
X10036848Y-14680650D01*
X10036848Y-14680650D02*
X10017801Y-14690174D01*
X10103515Y-14804460D02*
X10084467Y-14813984D01*
X10084467Y-14813984D02*
X10036848Y-14813984D01*
X10036848Y-14813984D02*
X10017801Y-14804460D01*
X10017801Y-14804460D02*
X10008277Y-14785412D01*
X10008277Y-14785412D02*
X10008277Y-14766365D01*
X10008277Y-14766365D02*
X10017801Y-14747317D01*
X10017801Y-14747317D02*
X10036848Y-14737793D01*
X10036848Y-14737793D02*
X10084467Y-14737793D01*
X10084467Y-14737793D02*
X10103515Y-14728269D01*
X10198753Y-14680650D02*
X10198753Y-14880650D01*
X10198753Y-14690174D02*
X10217801Y-14680650D01*
X10217801Y-14680650D02*
X10255896Y-14680650D01*
X10255896Y-14680650D02*
X10274944Y-14690174D01*
X10274944Y-14690174D02*
X10284467Y-14699698D01*
X10284467Y-14699698D02*
X10293991Y-14718746D01*
X10293991Y-14718746D02*
X10293991Y-14775888D01*
X10293991Y-14775888D02*
X10284467Y-14794936D01*
X10284467Y-14794936D02*
X10274944Y-14804460D01*
X10274944Y-14804460D02*
X10255896Y-14813984D01*
X10255896Y-14813984D02*
X10217801Y-14813984D01*
X10217801Y-14813984D02*
X10198753Y-14804460D01*
X10379705Y-14794936D02*
X10389229Y-14804460D01*
X10389229Y-14804460D02*
X10379705Y-14813984D01*
X10379705Y-14813984D02*
X10370182Y-14804460D01*
X10370182Y-14804460D02*
X10379705Y-14794936D01*
X10379705Y-14794936D02*
X10379705Y-14813984D01*
X10379705Y-14690174D02*
X10389229Y-14699698D01*
X10389229Y-14699698D02*
X10379705Y-14709222D01*
X10379705Y-14709222D02*
X10370182Y-14699698D01*
X10370182Y-14699698D02*
X10379705Y-14690174D01*
X10379705Y-14690174D02*
X10379705Y-14709222D01*
D12*
X8717500Y-15127500D02*
X8747500Y-15157500D01*
X8747500Y-15127500D02*
X8717500Y-15157500D01*
D11*
X9046372Y-15033984D02*
X9065420Y-15033984D01*
X9065420Y-15033984D02*
X9084467Y-15043508D01*
X9084467Y-15043508D02*
X9093991Y-15053031D01*
X9093991Y-15053031D02*
X9103515Y-15072079D01*
X9103515Y-15072079D02*
X9113039Y-15110174D01*
X9113039Y-15110174D02*
X9113039Y-15157793D01*
X9113039Y-15157793D02*
X9103515Y-15195888D01*
X9103515Y-15195888D02*
X9093991Y-15214936D01*
X9093991Y-15214936D02*
X9084467Y-15224460D01*
X9084467Y-15224460D02*
X9065420Y-15233984D01*
X9065420Y-15233984D02*
X9046372Y-15233984D01*
X9046372Y-15233984D02*
X9027324Y-15224460D01*
X9027324Y-15224460D02*
X9017801Y-15214936D01*
X9017801Y-15214936D02*
X9008277Y-15195888D01*
X9008277Y-15195888D02*
X8998753Y-15157793D01*
X8998753Y-15157793D02*
X8998753Y-15110174D01*
X8998753Y-15110174D02*
X9008277Y-15072079D01*
X9008277Y-15072079D02*
X9017801Y-15053031D01*
X9017801Y-15053031D02*
X9027324Y-15043508D01*
X9027324Y-15043508D02*
X9046372Y-15033984D01*
X9198753Y-15214936D02*
X9208277Y-15224460D01*
X9208277Y-15224460D02*
X9198753Y-15233984D01*
X9198753Y-15233984D02*
X9189229Y-15224460D01*
X9189229Y-15224460D02*
X9198753Y-15214936D01*
X9198753Y-15214936D02*
X9198753Y-15233984D01*
X9274944Y-15033984D02*
X9398753Y-15033984D01*
X9398753Y-15033984D02*
X9332086Y-15110174D01*
X9332086Y-15110174D02*
X9360658Y-15110174D01*
X9360658Y-15110174D02*
X9379705Y-15119698D01*
X9379705Y-15119698D02*
X9389229Y-15129222D01*
X9389229Y-15129222D02*
X9398753Y-15148269D01*
X9398753Y-15148269D02*
X9398753Y-15195888D01*
X9398753Y-15195888D02*
X9389229Y-15214936D01*
X9389229Y-15214936D02*
X9379705Y-15224460D01*
X9379705Y-15224460D02*
X9360658Y-15233984D01*
X9360658Y-15233984D02*
X9303515Y-15233984D01*
X9303515Y-15233984D02*
X9284467Y-15224460D01*
X9284467Y-15224460D02*
X9274944Y-15214936D01*
X9522563Y-15033984D02*
X9541610Y-15033984D01*
X9541610Y-15033984D02*
X9560658Y-15043508D01*
X9560658Y-15043508D02*
X9570182Y-15053031D01*
X9570182Y-15053031D02*
X9579705Y-15072079D01*
X9579705Y-15072079D02*
X9589229Y-15110174D01*
X9589229Y-15110174D02*
X9589229Y-15157793D01*
X9589229Y-15157793D02*
X9579705Y-15195888D01*
X9579705Y-15195888D02*
X9570182Y-15214936D01*
X9570182Y-15214936D02*
X9560658Y-15224460D01*
X9560658Y-15224460D02*
X9541610Y-15233984D01*
X9541610Y-15233984D02*
X9522563Y-15233984D01*
X9522563Y-15233984D02*
X9503515Y-15224460D01*
X9503515Y-15224460D02*
X9493991Y-15214936D01*
X9493991Y-15214936D02*
X9484467Y-15195888D01*
X9484467Y-15195888D02*
X9474944Y-15157793D01*
X9474944Y-15157793D02*
X9474944Y-15110174D01*
X9474944Y-15110174D02*
X9484467Y-15072079D01*
X9484467Y-15072079D02*
X9493991Y-15053031D01*
X9493991Y-15053031D02*
X9503515Y-15043508D01*
X9503515Y-15043508D02*
X9522563Y-15033984D01*
X9713039Y-15033984D02*
X9732086Y-15033984D01*
X9732086Y-15033984D02*
X9751134Y-15043508D01*
X9751134Y-15043508D02*
X9760658Y-15053031D01*
X9760658Y-15053031D02*
X9770182Y-15072079D01*
X9770182Y-15072079D02*
X9779705Y-15110174D01*
X9779705Y-15110174D02*
X9779705Y-15157793D01*
X9779705Y-15157793D02*
X9770182Y-15195888D01*
X9770182Y-15195888D02*
X9760658Y-15214936D01*
X9760658Y-15214936D02*
X9751134Y-15224460D01*
X9751134Y-15224460D02*
X9732086Y-15233984D01*
X9732086Y-15233984D02*
X9713039Y-15233984D01*
X9713039Y-15233984D02*
X9693991Y-15224460D01*
X9693991Y-15224460D02*
X9684467Y-15214936D01*
X9684467Y-15214936D02*
X9674944Y-15195888D01*
X9674944Y-15195888D02*
X9665420Y-15157793D01*
X9665420Y-15157793D02*
X9665420Y-15110174D01*
X9665420Y-15110174D02*
X9674944Y-15072079D01*
X9674944Y-15072079D02*
X9684467Y-15053031D01*
X9684467Y-15053031D02*
X9693991Y-15043508D01*
X9693991Y-15043508D02*
X9713039Y-15033984D01*
X9865420Y-15233984D02*
X9865420Y-15100650D01*
X9865420Y-15119698D02*
X9874944Y-15110174D01*
X9874944Y-15110174D02*
X9893991Y-15100650D01*
X9893991Y-15100650D02*
X9922563Y-15100650D01*
X9922563Y-15100650D02*
X9941610Y-15110174D01*
X9941610Y-15110174D02*
X9951134Y-15129222D01*
X9951134Y-15129222D02*
X9951134Y-15233984D01*
X9951134Y-15129222D02*
X9960658Y-15110174D01*
X9960658Y-15110174D02*
X9979705Y-15100650D01*
X9979705Y-15100650D02*
X10008277Y-15100650D01*
X10008277Y-15100650D02*
X10027325Y-15110174D01*
X10027325Y-15110174D02*
X10036848Y-15129222D01*
X10036848Y-15129222D02*
X10036848Y-15233984D01*
X10132086Y-15233984D02*
X10132086Y-15100650D01*
X10132086Y-15119698D02*
X10141610Y-15110174D01*
X10141610Y-15110174D02*
X10160658Y-15100650D01*
X10160658Y-15100650D02*
X10189229Y-15100650D01*
X10189229Y-15100650D02*
X10208277Y-15110174D01*
X10208277Y-15110174D02*
X10217801Y-15129222D01*
X10217801Y-15129222D02*
X10217801Y-15233984D01*
X10217801Y-15129222D02*
X10227325Y-15110174D01*
X10227325Y-15110174D02*
X10246372Y-15100650D01*
X10246372Y-15100650D02*
X10274944Y-15100650D01*
X10274944Y-15100650D02*
X10293991Y-15110174D01*
X10293991Y-15110174D02*
X10303515Y-15129222D01*
X10303515Y-15129222D02*
X10303515Y-15233984D01*
X10693991Y-15024460D02*
X10522563Y-15281603D01*
X10951134Y-15033984D02*
X10970182Y-15033984D01*
X10970182Y-15033984D02*
X10989229Y-15043508D01*
X10989229Y-15043508D02*
X10998753Y-15053031D01*
X10998753Y-15053031D02*
X11008277Y-15072079D01*
X11008277Y-15072079D02*
X11017801Y-15110174D01*
X11017801Y-15110174D02*
X11017801Y-15157793D01*
X11017801Y-15157793D02*
X11008277Y-15195888D01*
X11008277Y-15195888D02*
X10998753Y-15214936D01*
X10998753Y-15214936D02*
X10989229Y-15224460D01*
X10989229Y-15224460D02*
X10970182Y-15233984D01*
X10970182Y-15233984D02*
X10951134Y-15233984D01*
X10951134Y-15233984D02*
X10932087Y-15224460D01*
X10932087Y-15224460D02*
X10922563Y-15214936D01*
X10922563Y-15214936D02*
X10913039Y-15195888D01*
X10913039Y-15195888D02*
X10903515Y-15157793D01*
X10903515Y-15157793D02*
X10903515Y-15110174D01*
X10903515Y-15110174D02*
X10913039Y-15072079D01*
X10913039Y-15072079D02*
X10922563Y-15053031D01*
X10922563Y-15053031D02*
X10932087Y-15043508D01*
X10932087Y-15043508D02*
X10951134Y-15033984D01*
X11103515Y-15214936D02*
X11113039Y-15224460D01*
X11113039Y-15224460D02*
X11103515Y-15233984D01*
X11103515Y-15233984D02*
X11093991Y-15224460D01*
X11093991Y-15224460D02*
X11103515Y-15214936D01*
X11103515Y-15214936D02*
X11103515Y-15233984D01*
X11236848Y-15033984D02*
X11255896Y-15033984D01*
X11255896Y-15033984D02*
X11274944Y-15043508D01*
X11274944Y-15043508D02*
X11284467Y-15053031D01*
X11284467Y-15053031D02*
X11293991Y-15072079D01*
X11293991Y-15072079D02*
X11303515Y-15110174D01*
X11303515Y-15110174D02*
X11303515Y-15157793D01*
X11303515Y-15157793D02*
X11293991Y-15195888D01*
X11293991Y-15195888D02*
X11284467Y-15214936D01*
X11284467Y-15214936D02*
X11274944Y-15224460D01*
X11274944Y-15224460D02*
X11255896Y-15233984D01*
X11255896Y-15233984D02*
X11236848Y-15233984D01*
X11236848Y-15233984D02*
X11217801Y-15224460D01*
X11217801Y-15224460D02*
X11208277Y-15214936D01*
X11208277Y-15214936D02*
X11198753Y-15195888D01*
X11198753Y-15195888D02*
X11189229Y-15157793D01*
X11189229Y-15157793D02*
X11189229Y-15110174D01*
X11189229Y-15110174D02*
X11198753Y-15072079D01*
X11198753Y-15072079D02*
X11208277Y-15053031D01*
X11208277Y-15053031D02*
X11217801Y-15043508D01*
X11217801Y-15043508D02*
X11236848Y-15033984D01*
X11493991Y-15233984D02*
X11379706Y-15233984D01*
X11436848Y-15233984D02*
X11436848Y-15033984D01*
X11436848Y-15033984D02*
X11417801Y-15062555D01*
X11417801Y-15062555D02*
X11398753Y-15081603D01*
X11398753Y-15081603D02*
X11379706Y-15091127D01*
X11684467Y-15233984D02*
X11570182Y-15233984D01*
X11627325Y-15233984D02*
X11627325Y-15033984D01*
X11627325Y-15033984D02*
X11608277Y-15062555D01*
X11608277Y-15062555D02*
X11589229Y-15081603D01*
X11589229Y-15081603D02*
X11570182Y-15091127D01*
X11798753Y-15119698D02*
X11779706Y-15110174D01*
X11779706Y-15110174D02*
X11770182Y-15100650D01*
X11770182Y-15100650D02*
X11760658Y-15081603D01*
X11760658Y-15081603D02*
X11760658Y-15072079D01*
X11760658Y-15072079D02*
X11770182Y-15053031D01*
X11770182Y-15053031D02*
X11779706Y-15043508D01*
X11779706Y-15043508D02*
X11798753Y-15033984D01*
X11798753Y-15033984D02*
X11836848Y-15033984D01*
X11836848Y-15033984D02*
X11855896Y-15043508D01*
X11855896Y-15043508D02*
X11865420Y-15053031D01*
X11865420Y-15053031D02*
X11874944Y-15072079D01*
X11874944Y-15072079D02*
X11874944Y-15081603D01*
X11874944Y-15081603D02*
X11865420Y-15100650D01*
X11865420Y-15100650D02*
X11855896Y-15110174D01*
X11855896Y-15110174D02*
X11836848Y-15119698D01*
X11836848Y-15119698D02*
X11798753Y-15119698D01*
X11798753Y-15119698D02*
X11779706Y-15129222D01*
X11779706Y-15129222D02*
X11770182Y-15138746D01*
X11770182Y-15138746D02*
X11760658Y-15157793D01*
X11760658Y-15157793D02*
X11760658Y-15195888D01*
X11760658Y-15195888D02*
X11770182Y-15214936D01*
X11770182Y-15214936D02*
X11779706Y-15224460D01*
X11779706Y-15224460D02*
X11798753Y-15233984D01*
X11798753Y-15233984D02*
X11836848Y-15233984D01*
X11836848Y-15233984D02*
X11855896Y-15224460D01*
X11855896Y-15224460D02*
X11865420Y-15214936D01*
X11865420Y-15214936D02*
X11874944Y-15195888D01*
X11874944Y-15195888D02*
X11874944Y-15157793D01*
X11874944Y-15157793D02*
X11865420Y-15138746D01*
X11865420Y-15138746D02*
X11855896Y-15129222D01*
X11855896Y-15129222D02*
X11836848Y-15119698D01*
X11951134Y-15033984D02*
X11951134Y-15072079D01*
X12027325Y-15033984D02*
X12027325Y-15072079D01*
X12322563Y-15310174D02*
X12313039Y-15300650D01*
X12313039Y-15300650D02*
X12293991Y-15272079D01*
X12293991Y-15272079D02*
X12284468Y-15253031D01*
X12284468Y-15253031D02*
X12274944Y-15224460D01*
X12274944Y-15224460D02*
X12265420Y-15176841D01*
X12265420Y-15176841D02*
X12265420Y-15138746D01*
X12265420Y-15138746D02*
X12274944Y-15091127D01*
X12274944Y-15091127D02*
X12284468Y-15062555D01*
X12284468Y-15062555D02*
X12293991Y-15043508D01*
X12293991Y-15043508D02*
X12313039Y-15014936D01*
X12313039Y-15014936D02*
X12322563Y-15005412D01*
X12389229Y-15053031D02*
X12398753Y-15043508D01*
X12398753Y-15043508D02*
X12417801Y-15033984D01*
X12417801Y-15033984D02*
X12465420Y-15033984D01*
X12465420Y-15033984D02*
X12484468Y-15043508D01*
X12484468Y-15043508D02*
X12493991Y-15053031D01*
X12493991Y-15053031D02*
X12503515Y-15072079D01*
X12503515Y-15072079D02*
X12503515Y-15091127D01*
X12503515Y-15091127D02*
X12493991Y-15119698D01*
X12493991Y-15119698D02*
X12379706Y-15233984D01*
X12379706Y-15233984D02*
X12503515Y-15233984D01*
X12741610Y-15233984D02*
X12741610Y-15033984D01*
X12827325Y-15233984D02*
X12827325Y-15129222D01*
X12827325Y-15129222D02*
X12817801Y-15110174D01*
X12817801Y-15110174D02*
X12798753Y-15100650D01*
X12798753Y-15100650D02*
X12770182Y-15100650D01*
X12770182Y-15100650D02*
X12751134Y-15110174D01*
X12751134Y-15110174D02*
X12741610Y-15119698D01*
X12951134Y-15233984D02*
X12932087Y-15224460D01*
X12932087Y-15224460D02*
X12922563Y-15214936D01*
X12922563Y-15214936D02*
X12913039Y-15195888D01*
X12913039Y-15195888D02*
X12913039Y-15138746D01*
X12913039Y-15138746D02*
X12922563Y-15119698D01*
X12922563Y-15119698D02*
X12932087Y-15110174D01*
X12932087Y-15110174D02*
X12951134Y-15100650D01*
X12951134Y-15100650D02*
X12979706Y-15100650D01*
X12979706Y-15100650D02*
X12998753Y-15110174D01*
X12998753Y-15110174D02*
X13008277Y-15119698D01*
X13008277Y-15119698D02*
X13017801Y-15138746D01*
X13017801Y-15138746D02*
X13017801Y-15195888D01*
X13017801Y-15195888D02*
X13008277Y-15214936D01*
X13008277Y-15214936D02*
X12998753Y-15224460D01*
X12998753Y-15224460D02*
X12979706Y-15233984D01*
X12979706Y-15233984D02*
X12951134Y-15233984D01*
X13132087Y-15233984D02*
X13113039Y-15224460D01*
X13113039Y-15224460D02*
X13103515Y-15205412D01*
X13103515Y-15205412D02*
X13103515Y-15033984D01*
X13284468Y-15224460D02*
X13265420Y-15233984D01*
X13265420Y-15233984D02*
X13227325Y-15233984D01*
X13227325Y-15233984D02*
X13208277Y-15224460D01*
X13208277Y-15224460D02*
X13198753Y-15205412D01*
X13198753Y-15205412D02*
X13198753Y-15129222D01*
X13198753Y-15129222D02*
X13208277Y-15110174D01*
X13208277Y-15110174D02*
X13227325Y-15100650D01*
X13227325Y-15100650D02*
X13265420Y-15100650D01*
X13265420Y-15100650D02*
X13284468Y-15110174D01*
X13284468Y-15110174D02*
X13293991Y-15129222D01*
X13293991Y-15129222D02*
X13293991Y-15148269D01*
X13293991Y-15148269D02*
X13198753Y-15167317D01*
X13370182Y-15224460D02*
X13389230Y-15233984D01*
X13389230Y-15233984D02*
X13427325Y-15233984D01*
X13427325Y-15233984D02*
X13446372Y-15224460D01*
X13446372Y-15224460D02*
X13455896Y-15205412D01*
X13455896Y-15205412D02*
X13455896Y-15195888D01*
X13455896Y-15195888D02*
X13446372Y-15176841D01*
X13446372Y-15176841D02*
X13427325Y-15167317D01*
X13427325Y-15167317D02*
X13398753Y-15167317D01*
X13398753Y-15167317D02*
X13379706Y-15157793D01*
X13379706Y-15157793D02*
X13370182Y-15138746D01*
X13370182Y-15138746D02*
X13370182Y-15129222D01*
X13370182Y-15129222D02*
X13379706Y-15110174D01*
X13379706Y-15110174D02*
X13398753Y-15100650D01*
X13398753Y-15100650D02*
X13427325Y-15100650D01*
X13427325Y-15100650D02*
X13446372Y-15110174D01*
X13522563Y-15310174D02*
X13532087Y-15300650D01*
X13532087Y-15300650D02*
X13551134Y-15272079D01*
X13551134Y-15272079D02*
X13560658Y-15253031D01*
X13560658Y-15253031D02*
X13570182Y-15224460D01*
X13570182Y-15224460D02*
X13579706Y-15176841D01*
X13579706Y-15176841D02*
X13579706Y-15138746D01*
X13579706Y-15138746D02*
X13570182Y-15091127D01*
X13570182Y-15091127D02*
X13560658Y-15062555D01*
X13560658Y-15062555D02*
X13551134Y-15043508D01*
X13551134Y-15043508D02*
X13532087Y-15014936D01*
X13532087Y-15014936D02*
X13522563Y-15005412D01*
D12*
X8747500Y-15406500D02*
G75*
G02*
X8657500Y-15406500I-45000J0D01*
G01*
X8657500Y-15406500D02*
G75*
G02*
X8747500Y-15406500I45000J0D01*
G01*
D11*
X9046372Y-15297984D02*
X9065420Y-15297984D01*
X9065420Y-15297984D02*
X9084467Y-15307508D01*
X9084467Y-15307508D02*
X9093991Y-15317031D01*
X9093991Y-15317031D02*
X9103515Y-15336079D01*
X9103515Y-15336079D02*
X9113039Y-15374174D01*
X9113039Y-15374174D02*
X9113039Y-15421793D01*
X9113039Y-15421793D02*
X9103515Y-15459888D01*
X9103515Y-15459888D02*
X9093991Y-15478936D01*
X9093991Y-15478936D02*
X9084467Y-15488460D01*
X9084467Y-15488460D02*
X9065420Y-15497984D01*
X9065420Y-15497984D02*
X9046372Y-15497984D01*
X9046372Y-15497984D02*
X9027324Y-15488460D01*
X9027324Y-15488460D02*
X9017801Y-15478936D01*
X9017801Y-15478936D02*
X9008277Y-15459888D01*
X9008277Y-15459888D02*
X8998753Y-15421793D01*
X8998753Y-15421793D02*
X8998753Y-15374174D01*
X8998753Y-15374174D02*
X9008277Y-15336079D01*
X9008277Y-15336079D02*
X9017801Y-15317031D01*
X9017801Y-15317031D02*
X9027324Y-15307508D01*
X9027324Y-15307508D02*
X9046372Y-15297984D01*
X9198753Y-15478936D02*
X9208277Y-15488460D01*
X9208277Y-15488460D02*
X9198753Y-15497984D01*
X9198753Y-15497984D02*
X9189229Y-15488460D01*
X9189229Y-15488460D02*
X9198753Y-15478936D01*
X9198753Y-15478936D02*
X9198753Y-15497984D01*
X9303515Y-15497984D02*
X9341610Y-15497984D01*
X9341610Y-15497984D02*
X9360658Y-15488460D01*
X9360658Y-15488460D02*
X9370182Y-15478936D01*
X9370182Y-15478936D02*
X9389229Y-15450365D01*
X9389229Y-15450365D02*
X9398753Y-15412269D01*
X9398753Y-15412269D02*
X9398753Y-15336079D01*
X9398753Y-15336079D02*
X9389229Y-15317031D01*
X9389229Y-15317031D02*
X9379705Y-15307508D01*
X9379705Y-15307508D02*
X9360658Y-15297984D01*
X9360658Y-15297984D02*
X9322563Y-15297984D01*
X9322563Y-15297984D02*
X9303515Y-15307508D01*
X9303515Y-15307508D02*
X9293991Y-15317031D01*
X9293991Y-15317031D02*
X9284467Y-15336079D01*
X9284467Y-15336079D02*
X9284467Y-15383698D01*
X9284467Y-15383698D02*
X9293991Y-15402746D01*
X9293991Y-15402746D02*
X9303515Y-15412269D01*
X9303515Y-15412269D02*
X9322563Y-15421793D01*
X9322563Y-15421793D02*
X9360658Y-15421793D01*
X9360658Y-15421793D02*
X9379705Y-15412269D01*
X9379705Y-15412269D02*
X9389229Y-15402746D01*
X9389229Y-15402746D02*
X9398753Y-15383698D01*
X9522563Y-15297984D02*
X9541610Y-15297984D01*
X9541610Y-15297984D02*
X9560658Y-15307508D01*
X9560658Y-15307508D02*
X9570182Y-15317031D01*
X9570182Y-15317031D02*
X9579705Y-15336079D01*
X9579705Y-15336079D02*
X9589229Y-15374174D01*
X9589229Y-15374174D02*
X9589229Y-15421793D01*
X9589229Y-15421793D02*
X9579705Y-15459888D01*
X9579705Y-15459888D02*
X9570182Y-15478936D01*
X9570182Y-15478936D02*
X9560658Y-15488460D01*
X9560658Y-15488460D02*
X9541610Y-15497984D01*
X9541610Y-15497984D02*
X9522563Y-15497984D01*
X9522563Y-15497984D02*
X9503515Y-15488460D01*
X9503515Y-15488460D02*
X9493991Y-15478936D01*
X9493991Y-15478936D02*
X9484467Y-15459888D01*
X9484467Y-15459888D02*
X9474944Y-15421793D01*
X9474944Y-15421793D02*
X9474944Y-15374174D01*
X9474944Y-15374174D02*
X9484467Y-15336079D01*
X9484467Y-15336079D02*
X9493991Y-15317031D01*
X9493991Y-15317031D02*
X9503515Y-15307508D01*
X9503515Y-15307508D02*
X9522563Y-15297984D01*
X9713039Y-15297984D02*
X9732086Y-15297984D01*
X9732086Y-15297984D02*
X9751134Y-15307508D01*
X9751134Y-15307508D02*
X9760658Y-15317031D01*
X9760658Y-15317031D02*
X9770182Y-15336079D01*
X9770182Y-15336079D02*
X9779705Y-15374174D01*
X9779705Y-15374174D02*
X9779705Y-15421793D01*
X9779705Y-15421793D02*
X9770182Y-15459888D01*
X9770182Y-15459888D02*
X9760658Y-15478936D01*
X9760658Y-15478936D02*
X9751134Y-15488460D01*
X9751134Y-15488460D02*
X9732086Y-15497984D01*
X9732086Y-15497984D02*
X9713039Y-15497984D01*
X9713039Y-15497984D02*
X9693991Y-15488460D01*
X9693991Y-15488460D02*
X9684467Y-15478936D01*
X9684467Y-15478936D02*
X9674944Y-15459888D01*
X9674944Y-15459888D02*
X9665420Y-15421793D01*
X9665420Y-15421793D02*
X9665420Y-15374174D01*
X9665420Y-15374174D02*
X9674944Y-15336079D01*
X9674944Y-15336079D02*
X9684467Y-15317031D01*
X9684467Y-15317031D02*
X9693991Y-15307508D01*
X9693991Y-15307508D02*
X9713039Y-15297984D01*
X9865420Y-15497984D02*
X9865420Y-15364650D01*
X9865420Y-15383698D02*
X9874944Y-15374174D01*
X9874944Y-15374174D02*
X9893991Y-15364650D01*
X9893991Y-15364650D02*
X9922563Y-15364650D01*
X9922563Y-15364650D02*
X9941610Y-15374174D01*
X9941610Y-15374174D02*
X9951134Y-15393222D01*
X9951134Y-15393222D02*
X9951134Y-15497984D01*
X9951134Y-15393222D02*
X9960658Y-15374174D01*
X9960658Y-15374174D02*
X9979705Y-15364650D01*
X9979705Y-15364650D02*
X10008277Y-15364650D01*
X10008277Y-15364650D02*
X10027325Y-15374174D01*
X10027325Y-15374174D02*
X10036848Y-15393222D01*
X10036848Y-15393222D02*
X10036848Y-15497984D01*
X10132086Y-15497984D02*
X10132086Y-15364650D01*
X10132086Y-15383698D02*
X10141610Y-15374174D01*
X10141610Y-15374174D02*
X10160658Y-15364650D01*
X10160658Y-15364650D02*
X10189229Y-15364650D01*
X10189229Y-15364650D02*
X10208277Y-15374174D01*
X10208277Y-15374174D02*
X10217801Y-15393222D01*
X10217801Y-15393222D02*
X10217801Y-15497984D01*
X10217801Y-15393222D02*
X10227325Y-15374174D01*
X10227325Y-15374174D02*
X10246372Y-15364650D01*
X10246372Y-15364650D02*
X10274944Y-15364650D01*
X10274944Y-15364650D02*
X10293991Y-15374174D01*
X10293991Y-15374174D02*
X10303515Y-15393222D01*
X10303515Y-15393222D02*
X10303515Y-15497984D01*
X10693991Y-15288460D02*
X10522563Y-15545603D01*
X10951134Y-15297984D02*
X10970182Y-15297984D01*
X10970182Y-15297984D02*
X10989229Y-15307508D01*
X10989229Y-15307508D02*
X10998753Y-15317031D01*
X10998753Y-15317031D02*
X11008277Y-15336079D01*
X11008277Y-15336079D02*
X11017801Y-15374174D01*
X11017801Y-15374174D02*
X11017801Y-15421793D01*
X11017801Y-15421793D02*
X11008277Y-15459888D01*
X11008277Y-15459888D02*
X10998753Y-15478936D01*
X10998753Y-15478936D02*
X10989229Y-15488460D01*
X10989229Y-15488460D02*
X10970182Y-15497984D01*
X10970182Y-15497984D02*
X10951134Y-15497984D01*
X10951134Y-15497984D02*
X10932087Y-15488460D01*
X10932087Y-15488460D02*
X10922563Y-15478936D01*
X10922563Y-15478936D02*
X10913039Y-15459888D01*
X10913039Y-15459888D02*
X10903515Y-15421793D01*
X10903515Y-15421793D02*
X10903515Y-15374174D01*
X10903515Y-15374174D02*
X10913039Y-15336079D01*
X10913039Y-15336079D02*
X10922563Y-15317031D01*
X10922563Y-15317031D02*
X10932087Y-15307508D01*
X10932087Y-15307508D02*
X10951134Y-15297984D01*
X11103515Y-15478936D02*
X11113039Y-15488460D01*
X11113039Y-15488460D02*
X11103515Y-15497984D01*
X11103515Y-15497984D02*
X11093991Y-15488460D01*
X11093991Y-15488460D02*
X11103515Y-15478936D01*
X11103515Y-15478936D02*
X11103515Y-15497984D01*
X11236848Y-15297984D02*
X11255896Y-15297984D01*
X11255896Y-15297984D02*
X11274944Y-15307508D01*
X11274944Y-15307508D02*
X11284467Y-15317031D01*
X11284467Y-15317031D02*
X11293991Y-15336079D01*
X11293991Y-15336079D02*
X11303515Y-15374174D01*
X11303515Y-15374174D02*
X11303515Y-15421793D01*
X11303515Y-15421793D02*
X11293991Y-15459888D01*
X11293991Y-15459888D02*
X11284467Y-15478936D01*
X11284467Y-15478936D02*
X11274944Y-15488460D01*
X11274944Y-15488460D02*
X11255896Y-15497984D01*
X11255896Y-15497984D02*
X11236848Y-15497984D01*
X11236848Y-15497984D02*
X11217801Y-15488460D01*
X11217801Y-15488460D02*
X11208277Y-15478936D01*
X11208277Y-15478936D02*
X11198753Y-15459888D01*
X11198753Y-15459888D02*
X11189229Y-15421793D01*
X11189229Y-15421793D02*
X11189229Y-15374174D01*
X11189229Y-15374174D02*
X11198753Y-15336079D01*
X11198753Y-15336079D02*
X11208277Y-15317031D01*
X11208277Y-15317031D02*
X11217801Y-15307508D01*
X11217801Y-15307508D02*
X11236848Y-15297984D01*
X11370182Y-15297984D02*
X11493991Y-15297984D01*
X11493991Y-15297984D02*
X11427325Y-15374174D01*
X11427325Y-15374174D02*
X11455896Y-15374174D01*
X11455896Y-15374174D02*
X11474944Y-15383698D01*
X11474944Y-15383698D02*
X11484467Y-15393222D01*
X11484467Y-15393222D02*
X11493991Y-15412269D01*
X11493991Y-15412269D02*
X11493991Y-15459888D01*
X11493991Y-15459888D02*
X11484467Y-15478936D01*
X11484467Y-15478936D02*
X11474944Y-15488460D01*
X11474944Y-15488460D02*
X11455896Y-15497984D01*
X11455896Y-15497984D02*
X11398753Y-15497984D01*
X11398753Y-15497984D02*
X11379706Y-15488460D01*
X11379706Y-15488460D02*
X11370182Y-15478936D01*
X11674944Y-15297984D02*
X11579706Y-15297984D01*
X11579706Y-15297984D02*
X11570182Y-15393222D01*
X11570182Y-15393222D02*
X11579706Y-15383698D01*
X11579706Y-15383698D02*
X11598753Y-15374174D01*
X11598753Y-15374174D02*
X11646372Y-15374174D01*
X11646372Y-15374174D02*
X11665420Y-15383698D01*
X11665420Y-15383698D02*
X11674944Y-15393222D01*
X11674944Y-15393222D02*
X11684467Y-15412269D01*
X11684467Y-15412269D02*
X11684467Y-15459888D01*
X11684467Y-15459888D02*
X11674944Y-15478936D01*
X11674944Y-15478936D02*
X11665420Y-15488460D01*
X11665420Y-15488460D02*
X11646372Y-15497984D01*
X11646372Y-15497984D02*
X11598753Y-15497984D01*
X11598753Y-15497984D02*
X11579706Y-15488460D01*
X11579706Y-15488460D02*
X11570182Y-15478936D01*
X11855896Y-15364650D02*
X11855896Y-15497984D01*
X11808277Y-15288460D02*
X11760658Y-15431317D01*
X11760658Y-15431317D02*
X11884467Y-15431317D01*
X11951134Y-15297984D02*
X11951134Y-15336079D01*
X12027325Y-15297984D02*
X12027325Y-15336079D01*
X12322563Y-15574174D02*
X12313039Y-15564650D01*
X12313039Y-15564650D02*
X12293991Y-15536079D01*
X12293991Y-15536079D02*
X12284468Y-15517031D01*
X12284468Y-15517031D02*
X12274944Y-15488460D01*
X12274944Y-15488460D02*
X12265420Y-15440841D01*
X12265420Y-15440841D02*
X12265420Y-15402746D01*
X12265420Y-15402746D02*
X12274944Y-15355127D01*
X12274944Y-15355127D02*
X12284468Y-15326555D01*
X12284468Y-15326555D02*
X12293991Y-15307508D01*
X12293991Y-15307508D02*
X12313039Y-15278936D01*
X12313039Y-15278936D02*
X12322563Y-15269412D01*
X12379706Y-15297984D02*
X12503515Y-15297984D01*
X12503515Y-15297984D02*
X12436848Y-15374174D01*
X12436848Y-15374174D02*
X12465420Y-15374174D01*
X12465420Y-15374174D02*
X12484468Y-15383698D01*
X12484468Y-15383698D02*
X12493991Y-15393222D01*
X12493991Y-15393222D02*
X12503515Y-15412269D01*
X12503515Y-15412269D02*
X12503515Y-15459888D01*
X12503515Y-15459888D02*
X12493991Y-15478936D01*
X12493991Y-15478936D02*
X12484468Y-15488460D01*
X12484468Y-15488460D02*
X12465420Y-15497984D01*
X12465420Y-15497984D02*
X12408277Y-15497984D01*
X12408277Y-15497984D02*
X12389229Y-15488460D01*
X12389229Y-15488460D02*
X12379706Y-15478936D01*
X12741610Y-15497984D02*
X12741610Y-15297984D01*
X12827325Y-15497984D02*
X12827325Y-15393222D01*
X12827325Y-15393222D02*
X12817801Y-15374174D01*
X12817801Y-15374174D02*
X12798753Y-15364650D01*
X12798753Y-15364650D02*
X12770182Y-15364650D01*
X12770182Y-15364650D02*
X12751134Y-15374174D01*
X12751134Y-15374174D02*
X12741610Y-15383698D01*
X12951134Y-15497984D02*
X12932087Y-15488460D01*
X12932087Y-15488460D02*
X12922563Y-15478936D01*
X12922563Y-15478936D02*
X12913039Y-15459888D01*
X12913039Y-15459888D02*
X12913039Y-15402746D01*
X12913039Y-15402746D02*
X12922563Y-15383698D01*
X12922563Y-15383698D02*
X12932087Y-15374174D01*
X12932087Y-15374174D02*
X12951134Y-15364650D01*
X12951134Y-15364650D02*
X12979706Y-15364650D01*
X12979706Y-15364650D02*
X12998753Y-15374174D01*
X12998753Y-15374174D02*
X13008277Y-15383698D01*
X13008277Y-15383698D02*
X13017801Y-15402746D01*
X13017801Y-15402746D02*
X13017801Y-15459888D01*
X13017801Y-15459888D02*
X13008277Y-15478936D01*
X13008277Y-15478936D02*
X12998753Y-15488460D01*
X12998753Y-15488460D02*
X12979706Y-15497984D01*
X12979706Y-15497984D02*
X12951134Y-15497984D01*
X13132087Y-15497984D02*
X13113039Y-15488460D01*
X13113039Y-15488460D02*
X13103515Y-15469412D01*
X13103515Y-15469412D02*
X13103515Y-15297984D01*
X13284468Y-15488460D02*
X13265420Y-15497984D01*
X13265420Y-15497984D02*
X13227325Y-15497984D01*
X13227325Y-15497984D02*
X13208277Y-15488460D01*
X13208277Y-15488460D02*
X13198753Y-15469412D01*
X13198753Y-15469412D02*
X13198753Y-15393222D01*
X13198753Y-15393222D02*
X13208277Y-15374174D01*
X13208277Y-15374174D02*
X13227325Y-15364650D01*
X13227325Y-15364650D02*
X13265420Y-15364650D01*
X13265420Y-15364650D02*
X13284468Y-15374174D01*
X13284468Y-15374174D02*
X13293991Y-15393222D01*
X13293991Y-15393222D02*
X13293991Y-15412269D01*
X13293991Y-15412269D02*
X13198753Y-15431317D01*
X13370182Y-15488460D02*
X13389230Y-15497984D01*
X13389230Y-15497984D02*
X13427325Y-15497984D01*
X13427325Y-15497984D02*
X13446372Y-15488460D01*
X13446372Y-15488460D02*
X13455896Y-15469412D01*
X13455896Y-15469412D02*
X13455896Y-15459888D01*
X13455896Y-15459888D02*
X13446372Y-15440841D01*
X13446372Y-15440841D02*
X13427325Y-15431317D01*
X13427325Y-15431317D02*
X13398753Y-15431317D01*
X13398753Y-15431317D02*
X13379706Y-15421793D01*
X13379706Y-15421793D02*
X13370182Y-15402746D01*
X13370182Y-15402746D02*
X13370182Y-15393222D01*
X13370182Y-15393222D02*
X13379706Y-15374174D01*
X13379706Y-15374174D02*
X13398753Y-15364650D01*
X13398753Y-15364650D02*
X13427325Y-15364650D01*
X13427325Y-15364650D02*
X13446372Y-15374174D01*
X13522563Y-15574174D02*
X13532087Y-15564650D01*
X13532087Y-15564650D02*
X13551134Y-15536079D01*
X13551134Y-15536079D02*
X13560658Y-15517031D01*
X13560658Y-15517031D02*
X13570182Y-15488460D01*
X13570182Y-15488460D02*
X13579706Y-15440841D01*
X13579706Y-15440841D02*
X13579706Y-15402746D01*
X13579706Y-15402746D02*
X13570182Y-15355127D01*
X13570182Y-15355127D02*
X13560658Y-15326555D01*
X13560658Y-15326555D02*
X13551134Y-15307508D01*
X13551134Y-15307508D02*
X13532087Y-15278936D01*
X13532087Y-15278936D02*
X13522563Y-15269412D01*
D12*
X8697500Y-15620500D02*
X8697500Y-15720500D01*
X8647500Y-15670500D02*
X8747500Y-15670500D01*
D11*
X9113039Y-15761984D02*
X8998753Y-15761984D01*
X9055896Y-15761984D02*
X9055896Y-15561984D01*
X9055896Y-15561984D02*
X9036848Y-15590555D01*
X9036848Y-15590555D02*
X9017801Y-15609603D01*
X9017801Y-15609603D02*
X8998753Y-15619127D01*
X9198753Y-15742936D02*
X9208277Y-15752460D01*
X9208277Y-15752460D02*
X9198753Y-15761984D01*
X9198753Y-15761984D02*
X9189229Y-15752460D01*
X9189229Y-15752460D02*
X9198753Y-15742936D01*
X9198753Y-15742936D02*
X9198753Y-15761984D01*
X9332086Y-15561984D02*
X9351134Y-15561984D01*
X9351134Y-15561984D02*
X9370182Y-15571508D01*
X9370182Y-15571508D02*
X9379705Y-15581031D01*
X9379705Y-15581031D02*
X9389229Y-15600079D01*
X9389229Y-15600079D02*
X9398753Y-15638174D01*
X9398753Y-15638174D02*
X9398753Y-15685793D01*
X9398753Y-15685793D02*
X9389229Y-15723888D01*
X9389229Y-15723888D02*
X9379705Y-15742936D01*
X9379705Y-15742936D02*
X9370182Y-15752460D01*
X9370182Y-15752460D02*
X9351134Y-15761984D01*
X9351134Y-15761984D02*
X9332086Y-15761984D01*
X9332086Y-15761984D02*
X9313039Y-15752460D01*
X9313039Y-15752460D02*
X9303515Y-15742936D01*
X9303515Y-15742936D02*
X9293991Y-15723888D01*
X9293991Y-15723888D02*
X9284467Y-15685793D01*
X9284467Y-15685793D02*
X9284467Y-15638174D01*
X9284467Y-15638174D02*
X9293991Y-15600079D01*
X9293991Y-15600079D02*
X9303515Y-15581031D01*
X9303515Y-15581031D02*
X9313039Y-15571508D01*
X9313039Y-15571508D02*
X9332086Y-15561984D01*
X9522563Y-15561984D02*
X9541610Y-15561984D01*
X9541610Y-15561984D02*
X9560658Y-15571508D01*
X9560658Y-15571508D02*
X9570182Y-15581031D01*
X9570182Y-15581031D02*
X9579705Y-15600079D01*
X9579705Y-15600079D02*
X9589229Y-15638174D01*
X9589229Y-15638174D02*
X9589229Y-15685793D01*
X9589229Y-15685793D02*
X9579705Y-15723888D01*
X9579705Y-15723888D02*
X9570182Y-15742936D01*
X9570182Y-15742936D02*
X9560658Y-15752460D01*
X9560658Y-15752460D02*
X9541610Y-15761984D01*
X9541610Y-15761984D02*
X9522563Y-15761984D01*
X9522563Y-15761984D02*
X9503515Y-15752460D01*
X9503515Y-15752460D02*
X9493991Y-15742936D01*
X9493991Y-15742936D02*
X9484467Y-15723888D01*
X9484467Y-15723888D02*
X9474944Y-15685793D01*
X9474944Y-15685793D02*
X9474944Y-15638174D01*
X9474944Y-15638174D02*
X9484467Y-15600079D01*
X9484467Y-15600079D02*
X9493991Y-15581031D01*
X9493991Y-15581031D02*
X9503515Y-15571508D01*
X9503515Y-15571508D02*
X9522563Y-15561984D01*
X9713039Y-15561984D02*
X9732086Y-15561984D01*
X9732086Y-15561984D02*
X9751134Y-15571508D01*
X9751134Y-15571508D02*
X9760658Y-15581031D01*
X9760658Y-15581031D02*
X9770182Y-15600079D01*
X9770182Y-15600079D02*
X9779705Y-15638174D01*
X9779705Y-15638174D02*
X9779705Y-15685793D01*
X9779705Y-15685793D02*
X9770182Y-15723888D01*
X9770182Y-15723888D02*
X9760658Y-15742936D01*
X9760658Y-15742936D02*
X9751134Y-15752460D01*
X9751134Y-15752460D02*
X9732086Y-15761984D01*
X9732086Y-15761984D02*
X9713039Y-15761984D01*
X9713039Y-15761984D02*
X9693991Y-15752460D01*
X9693991Y-15752460D02*
X9684467Y-15742936D01*
X9684467Y-15742936D02*
X9674944Y-15723888D01*
X9674944Y-15723888D02*
X9665420Y-15685793D01*
X9665420Y-15685793D02*
X9665420Y-15638174D01*
X9665420Y-15638174D02*
X9674944Y-15600079D01*
X9674944Y-15600079D02*
X9684467Y-15581031D01*
X9684467Y-15581031D02*
X9693991Y-15571508D01*
X9693991Y-15571508D02*
X9713039Y-15561984D01*
X9865420Y-15761984D02*
X9865420Y-15628650D01*
X9865420Y-15647698D02*
X9874944Y-15638174D01*
X9874944Y-15638174D02*
X9893991Y-15628650D01*
X9893991Y-15628650D02*
X9922563Y-15628650D01*
X9922563Y-15628650D02*
X9941610Y-15638174D01*
X9941610Y-15638174D02*
X9951134Y-15657222D01*
X9951134Y-15657222D02*
X9951134Y-15761984D01*
X9951134Y-15657222D02*
X9960658Y-15638174D01*
X9960658Y-15638174D02*
X9979705Y-15628650D01*
X9979705Y-15628650D02*
X10008277Y-15628650D01*
X10008277Y-15628650D02*
X10027325Y-15638174D01*
X10027325Y-15638174D02*
X10036848Y-15657222D01*
X10036848Y-15657222D02*
X10036848Y-15761984D01*
X10132086Y-15761984D02*
X10132086Y-15628650D01*
X10132086Y-15647698D02*
X10141610Y-15638174D01*
X10141610Y-15638174D02*
X10160658Y-15628650D01*
X10160658Y-15628650D02*
X10189229Y-15628650D01*
X10189229Y-15628650D02*
X10208277Y-15638174D01*
X10208277Y-15638174D02*
X10217801Y-15657222D01*
X10217801Y-15657222D02*
X10217801Y-15761984D01*
X10217801Y-15657222D02*
X10227325Y-15638174D01*
X10227325Y-15638174D02*
X10246372Y-15628650D01*
X10246372Y-15628650D02*
X10274944Y-15628650D01*
X10274944Y-15628650D02*
X10293991Y-15638174D01*
X10293991Y-15638174D02*
X10303515Y-15657222D01*
X10303515Y-15657222D02*
X10303515Y-15761984D01*
X10693991Y-15552460D02*
X10522563Y-15809603D01*
X10951134Y-15561984D02*
X10970182Y-15561984D01*
X10970182Y-15561984D02*
X10989229Y-15571508D01*
X10989229Y-15571508D02*
X10998753Y-15581031D01*
X10998753Y-15581031D02*
X11008277Y-15600079D01*
X11008277Y-15600079D02*
X11017801Y-15638174D01*
X11017801Y-15638174D02*
X11017801Y-15685793D01*
X11017801Y-15685793D02*
X11008277Y-15723888D01*
X11008277Y-15723888D02*
X10998753Y-15742936D01*
X10998753Y-15742936D02*
X10989229Y-15752460D01*
X10989229Y-15752460D02*
X10970182Y-15761984D01*
X10970182Y-15761984D02*
X10951134Y-15761984D01*
X10951134Y-15761984D02*
X10932087Y-15752460D01*
X10932087Y-15752460D02*
X10922563Y-15742936D01*
X10922563Y-15742936D02*
X10913039Y-15723888D01*
X10913039Y-15723888D02*
X10903515Y-15685793D01*
X10903515Y-15685793D02*
X10903515Y-15638174D01*
X10903515Y-15638174D02*
X10913039Y-15600079D01*
X10913039Y-15600079D02*
X10922563Y-15581031D01*
X10922563Y-15581031D02*
X10932087Y-15571508D01*
X10932087Y-15571508D02*
X10951134Y-15561984D01*
X11103515Y-15742936D02*
X11113039Y-15752460D01*
X11113039Y-15752460D02*
X11103515Y-15761984D01*
X11103515Y-15761984D02*
X11093991Y-15752460D01*
X11093991Y-15752460D02*
X11103515Y-15742936D01*
X11103515Y-15742936D02*
X11103515Y-15761984D01*
X11236848Y-15561984D02*
X11255896Y-15561984D01*
X11255896Y-15561984D02*
X11274944Y-15571508D01*
X11274944Y-15571508D02*
X11284467Y-15581031D01*
X11284467Y-15581031D02*
X11293991Y-15600079D01*
X11293991Y-15600079D02*
X11303515Y-15638174D01*
X11303515Y-15638174D02*
X11303515Y-15685793D01*
X11303515Y-15685793D02*
X11293991Y-15723888D01*
X11293991Y-15723888D02*
X11284467Y-15742936D01*
X11284467Y-15742936D02*
X11274944Y-15752460D01*
X11274944Y-15752460D02*
X11255896Y-15761984D01*
X11255896Y-15761984D02*
X11236848Y-15761984D01*
X11236848Y-15761984D02*
X11217801Y-15752460D01*
X11217801Y-15752460D02*
X11208277Y-15742936D01*
X11208277Y-15742936D02*
X11198753Y-15723888D01*
X11198753Y-15723888D02*
X11189229Y-15685793D01*
X11189229Y-15685793D02*
X11189229Y-15638174D01*
X11189229Y-15638174D02*
X11198753Y-15600079D01*
X11198753Y-15600079D02*
X11208277Y-15581031D01*
X11208277Y-15581031D02*
X11217801Y-15571508D01*
X11217801Y-15571508D02*
X11236848Y-15561984D01*
X11370182Y-15561984D02*
X11493991Y-15561984D01*
X11493991Y-15561984D02*
X11427325Y-15638174D01*
X11427325Y-15638174D02*
X11455896Y-15638174D01*
X11455896Y-15638174D02*
X11474944Y-15647698D01*
X11474944Y-15647698D02*
X11484467Y-15657222D01*
X11484467Y-15657222D02*
X11493991Y-15676269D01*
X11493991Y-15676269D02*
X11493991Y-15723888D01*
X11493991Y-15723888D02*
X11484467Y-15742936D01*
X11484467Y-15742936D02*
X11474944Y-15752460D01*
X11474944Y-15752460D02*
X11455896Y-15761984D01*
X11455896Y-15761984D02*
X11398753Y-15761984D01*
X11398753Y-15761984D02*
X11379706Y-15752460D01*
X11379706Y-15752460D02*
X11370182Y-15742936D01*
X11589229Y-15761984D02*
X11627325Y-15761984D01*
X11627325Y-15761984D02*
X11646372Y-15752460D01*
X11646372Y-15752460D02*
X11655896Y-15742936D01*
X11655896Y-15742936D02*
X11674944Y-15714365D01*
X11674944Y-15714365D02*
X11684467Y-15676269D01*
X11684467Y-15676269D02*
X11684467Y-15600079D01*
X11684467Y-15600079D02*
X11674944Y-15581031D01*
X11674944Y-15581031D02*
X11665420Y-15571508D01*
X11665420Y-15571508D02*
X11646372Y-15561984D01*
X11646372Y-15561984D02*
X11608277Y-15561984D01*
X11608277Y-15561984D02*
X11589229Y-15571508D01*
X11589229Y-15571508D02*
X11579706Y-15581031D01*
X11579706Y-15581031D02*
X11570182Y-15600079D01*
X11570182Y-15600079D02*
X11570182Y-15647698D01*
X11570182Y-15647698D02*
X11579706Y-15666746D01*
X11579706Y-15666746D02*
X11589229Y-15676269D01*
X11589229Y-15676269D02*
X11608277Y-15685793D01*
X11608277Y-15685793D02*
X11646372Y-15685793D01*
X11646372Y-15685793D02*
X11665420Y-15676269D01*
X11665420Y-15676269D02*
X11674944Y-15666746D01*
X11674944Y-15666746D02*
X11684467Y-15647698D01*
X11855896Y-15628650D02*
X11855896Y-15761984D01*
X11808277Y-15552460D02*
X11760658Y-15695317D01*
X11760658Y-15695317D02*
X11884467Y-15695317D01*
X11951134Y-15561984D02*
X11951134Y-15600079D01*
X12027325Y-15561984D02*
X12027325Y-15600079D01*
X12322563Y-15838174D02*
X12313039Y-15828650D01*
X12313039Y-15828650D02*
X12293991Y-15800079D01*
X12293991Y-15800079D02*
X12284468Y-15781031D01*
X12284468Y-15781031D02*
X12274944Y-15752460D01*
X12274944Y-15752460D02*
X12265420Y-15704841D01*
X12265420Y-15704841D02*
X12265420Y-15666746D01*
X12265420Y-15666746D02*
X12274944Y-15619127D01*
X12274944Y-15619127D02*
X12284468Y-15590555D01*
X12284468Y-15590555D02*
X12293991Y-15571508D01*
X12293991Y-15571508D02*
X12313039Y-15542936D01*
X12313039Y-15542936D02*
X12322563Y-15533412D01*
X12379706Y-15561984D02*
X12503515Y-15561984D01*
X12503515Y-15561984D02*
X12436848Y-15638174D01*
X12436848Y-15638174D02*
X12465420Y-15638174D01*
X12465420Y-15638174D02*
X12484468Y-15647698D01*
X12484468Y-15647698D02*
X12493991Y-15657222D01*
X12493991Y-15657222D02*
X12503515Y-15676269D01*
X12503515Y-15676269D02*
X12503515Y-15723888D01*
X12503515Y-15723888D02*
X12493991Y-15742936D01*
X12493991Y-15742936D02*
X12484468Y-15752460D01*
X12484468Y-15752460D02*
X12465420Y-15761984D01*
X12465420Y-15761984D02*
X12408277Y-15761984D01*
X12408277Y-15761984D02*
X12389229Y-15752460D01*
X12389229Y-15752460D02*
X12379706Y-15742936D01*
X12570182Y-15561984D02*
X12703515Y-15561984D01*
X12703515Y-15561984D02*
X12617801Y-15761984D01*
X12932087Y-15761984D02*
X12932087Y-15561984D01*
X13017801Y-15761984D02*
X13017801Y-15657222D01*
X13017801Y-15657222D02*
X13008277Y-15638174D01*
X13008277Y-15638174D02*
X12989230Y-15628650D01*
X12989230Y-15628650D02*
X12960658Y-15628650D01*
X12960658Y-15628650D02*
X12941610Y-15638174D01*
X12941610Y-15638174D02*
X12932087Y-15647698D01*
X13141610Y-15761984D02*
X13122563Y-15752460D01*
X13122563Y-15752460D02*
X13113039Y-15742936D01*
X13113039Y-15742936D02*
X13103515Y-15723888D01*
X13103515Y-15723888D02*
X13103515Y-15666746D01*
X13103515Y-15666746D02*
X13113039Y-15647698D01*
X13113039Y-15647698D02*
X13122563Y-15638174D01*
X13122563Y-15638174D02*
X13141610Y-15628650D01*
X13141610Y-15628650D02*
X13170182Y-15628650D01*
X13170182Y-15628650D02*
X13189230Y-15638174D01*
X13189230Y-15638174D02*
X13198753Y-15647698D01*
X13198753Y-15647698D02*
X13208277Y-15666746D01*
X13208277Y-15666746D02*
X13208277Y-15723888D01*
X13208277Y-15723888D02*
X13198753Y-15742936D01*
X13198753Y-15742936D02*
X13189230Y-15752460D01*
X13189230Y-15752460D02*
X13170182Y-15761984D01*
X13170182Y-15761984D02*
X13141610Y-15761984D01*
X13322563Y-15761984D02*
X13303515Y-15752460D01*
X13303515Y-15752460D02*
X13293991Y-15733412D01*
X13293991Y-15733412D02*
X13293991Y-15561984D01*
X13474944Y-15752460D02*
X13455896Y-15761984D01*
X13455896Y-15761984D02*
X13417801Y-15761984D01*
X13417801Y-15761984D02*
X13398753Y-15752460D01*
X13398753Y-15752460D02*
X13389230Y-15733412D01*
X13389230Y-15733412D02*
X13389230Y-15657222D01*
X13389230Y-15657222D02*
X13398753Y-15638174D01*
X13398753Y-15638174D02*
X13417801Y-15628650D01*
X13417801Y-15628650D02*
X13455896Y-15628650D01*
X13455896Y-15628650D02*
X13474944Y-15638174D01*
X13474944Y-15638174D02*
X13484468Y-15657222D01*
X13484468Y-15657222D02*
X13484468Y-15676269D01*
X13484468Y-15676269D02*
X13389230Y-15695317D01*
X13560658Y-15752460D02*
X13579706Y-15761984D01*
X13579706Y-15761984D02*
X13617801Y-15761984D01*
X13617801Y-15761984D02*
X13636849Y-15752460D01*
X13636849Y-15752460D02*
X13646372Y-15733412D01*
X13646372Y-15733412D02*
X13646372Y-15723888D01*
X13646372Y-15723888D02*
X13636849Y-15704841D01*
X13636849Y-15704841D02*
X13617801Y-15695317D01*
X13617801Y-15695317D02*
X13589230Y-15695317D01*
X13589230Y-15695317D02*
X13570182Y-15685793D01*
X13570182Y-15685793D02*
X13560658Y-15666746D01*
X13560658Y-15666746D02*
X13560658Y-15657222D01*
X13560658Y-15657222D02*
X13570182Y-15638174D01*
X13570182Y-15638174D02*
X13589230Y-15628650D01*
X13589230Y-15628650D02*
X13617801Y-15628650D01*
X13617801Y-15628650D02*
X13636849Y-15638174D01*
X13713039Y-15838174D02*
X13722563Y-15828650D01*
X13722563Y-15828650D02*
X13741611Y-15800079D01*
X13741611Y-15800079D02*
X13751134Y-15781031D01*
X13751134Y-15781031D02*
X13760658Y-15752460D01*
X13760658Y-15752460D02*
X13770182Y-15704841D01*
X13770182Y-15704841D02*
X13770182Y-15666746D01*
X13770182Y-15666746D02*
X13760658Y-15619127D01*
X13760658Y-15619127D02*
X13751134Y-15590555D01*
X13751134Y-15590555D02*
X13741611Y-15571508D01*
X13741611Y-15571508D02*
X13722563Y-15542936D01*
X13722563Y-15542936D02*
X13713039Y-15533412D01*
D13*
X8725534Y-15987533D02*
X8725534Y-15881466D01*
X8619467Y-15881466D01*
X8619467Y-15987533D01*
X8725534Y-15987533D01*
D11*
X9113039Y-16025984D02*
X8998753Y-16025984D01*
X9055896Y-16025984D02*
X9055896Y-15825984D01*
X9055896Y-15825984D02*
X9036848Y-15854555D01*
X9036848Y-15854555D02*
X9017801Y-15873603D01*
X9017801Y-15873603D02*
X8998753Y-15883127D01*
X9198753Y-16006936D02*
X9208277Y-16016460D01*
X9208277Y-16016460D02*
X9198753Y-16025984D01*
X9198753Y-16025984D02*
X9189229Y-16016460D01*
X9189229Y-16016460D02*
X9198753Y-16006936D01*
X9198753Y-16006936D02*
X9198753Y-16025984D01*
X9389229Y-15825984D02*
X9293991Y-15825984D01*
X9293991Y-15825984D02*
X9284467Y-15921222D01*
X9284467Y-15921222D02*
X9293991Y-15911698D01*
X9293991Y-15911698D02*
X9313039Y-15902174D01*
X9313039Y-15902174D02*
X9360658Y-15902174D01*
X9360658Y-15902174D02*
X9379705Y-15911698D01*
X9379705Y-15911698D02*
X9389229Y-15921222D01*
X9389229Y-15921222D02*
X9398753Y-15940269D01*
X9398753Y-15940269D02*
X9398753Y-15987888D01*
X9398753Y-15987888D02*
X9389229Y-16006936D01*
X9389229Y-16006936D02*
X9379705Y-16016460D01*
X9379705Y-16016460D02*
X9360658Y-16025984D01*
X9360658Y-16025984D02*
X9313039Y-16025984D01*
X9313039Y-16025984D02*
X9293991Y-16016460D01*
X9293991Y-16016460D02*
X9284467Y-16006936D01*
X9522563Y-15825984D02*
X9541610Y-15825984D01*
X9541610Y-15825984D02*
X9560658Y-15835508D01*
X9560658Y-15835508D02*
X9570182Y-15845031D01*
X9570182Y-15845031D02*
X9579705Y-15864079D01*
X9579705Y-15864079D02*
X9589229Y-15902174D01*
X9589229Y-15902174D02*
X9589229Y-15949793D01*
X9589229Y-15949793D02*
X9579705Y-15987888D01*
X9579705Y-15987888D02*
X9570182Y-16006936D01*
X9570182Y-16006936D02*
X9560658Y-16016460D01*
X9560658Y-16016460D02*
X9541610Y-16025984D01*
X9541610Y-16025984D02*
X9522563Y-16025984D01*
X9522563Y-16025984D02*
X9503515Y-16016460D01*
X9503515Y-16016460D02*
X9493991Y-16006936D01*
X9493991Y-16006936D02*
X9484467Y-15987888D01*
X9484467Y-15987888D02*
X9474944Y-15949793D01*
X9474944Y-15949793D02*
X9474944Y-15902174D01*
X9474944Y-15902174D02*
X9484467Y-15864079D01*
X9484467Y-15864079D02*
X9493991Y-15845031D01*
X9493991Y-15845031D02*
X9503515Y-15835508D01*
X9503515Y-15835508D02*
X9522563Y-15825984D01*
X9713039Y-15825984D02*
X9732086Y-15825984D01*
X9732086Y-15825984D02*
X9751134Y-15835508D01*
X9751134Y-15835508D02*
X9760658Y-15845031D01*
X9760658Y-15845031D02*
X9770182Y-15864079D01*
X9770182Y-15864079D02*
X9779705Y-15902174D01*
X9779705Y-15902174D02*
X9779705Y-15949793D01*
X9779705Y-15949793D02*
X9770182Y-15987888D01*
X9770182Y-15987888D02*
X9760658Y-16006936D01*
X9760658Y-16006936D02*
X9751134Y-16016460D01*
X9751134Y-16016460D02*
X9732086Y-16025984D01*
X9732086Y-16025984D02*
X9713039Y-16025984D01*
X9713039Y-16025984D02*
X9693991Y-16016460D01*
X9693991Y-16016460D02*
X9684467Y-16006936D01*
X9684467Y-16006936D02*
X9674944Y-15987888D01*
X9674944Y-15987888D02*
X9665420Y-15949793D01*
X9665420Y-15949793D02*
X9665420Y-15902174D01*
X9665420Y-15902174D02*
X9674944Y-15864079D01*
X9674944Y-15864079D02*
X9684467Y-15845031D01*
X9684467Y-15845031D02*
X9693991Y-15835508D01*
X9693991Y-15835508D02*
X9713039Y-15825984D01*
X9865420Y-16025984D02*
X9865420Y-15892650D01*
X9865420Y-15911698D02*
X9874944Y-15902174D01*
X9874944Y-15902174D02*
X9893991Y-15892650D01*
X9893991Y-15892650D02*
X9922563Y-15892650D01*
X9922563Y-15892650D02*
X9941610Y-15902174D01*
X9941610Y-15902174D02*
X9951134Y-15921222D01*
X9951134Y-15921222D02*
X9951134Y-16025984D01*
X9951134Y-15921222D02*
X9960658Y-15902174D01*
X9960658Y-15902174D02*
X9979705Y-15892650D01*
X9979705Y-15892650D02*
X10008277Y-15892650D01*
X10008277Y-15892650D02*
X10027325Y-15902174D01*
X10027325Y-15902174D02*
X10036848Y-15921222D01*
X10036848Y-15921222D02*
X10036848Y-16025984D01*
X10132086Y-16025984D02*
X10132086Y-15892650D01*
X10132086Y-15911698D02*
X10141610Y-15902174D01*
X10141610Y-15902174D02*
X10160658Y-15892650D01*
X10160658Y-15892650D02*
X10189229Y-15892650D01*
X10189229Y-15892650D02*
X10208277Y-15902174D01*
X10208277Y-15902174D02*
X10217801Y-15921222D01*
X10217801Y-15921222D02*
X10217801Y-16025984D01*
X10217801Y-15921222D02*
X10227325Y-15902174D01*
X10227325Y-15902174D02*
X10246372Y-15892650D01*
X10246372Y-15892650D02*
X10274944Y-15892650D01*
X10274944Y-15892650D02*
X10293991Y-15902174D01*
X10293991Y-15902174D02*
X10303515Y-15921222D01*
X10303515Y-15921222D02*
X10303515Y-16025984D01*
X10693991Y-15816460D02*
X10522563Y-16073603D01*
X10951134Y-15825984D02*
X10970182Y-15825984D01*
X10970182Y-15825984D02*
X10989229Y-15835508D01*
X10989229Y-15835508D02*
X10998753Y-15845031D01*
X10998753Y-15845031D02*
X11008277Y-15864079D01*
X11008277Y-15864079D02*
X11017801Y-15902174D01*
X11017801Y-15902174D02*
X11017801Y-15949793D01*
X11017801Y-15949793D02*
X11008277Y-15987888D01*
X11008277Y-15987888D02*
X10998753Y-16006936D01*
X10998753Y-16006936D02*
X10989229Y-16016460D01*
X10989229Y-16016460D02*
X10970182Y-16025984D01*
X10970182Y-16025984D02*
X10951134Y-16025984D01*
X10951134Y-16025984D02*
X10932087Y-16016460D01*
X10932087Y-16016460D02*
X10922563Y-16006936D01*
X10922563Y-16006936D02*
X10913039Y-15987888D01*
X10913039Y-15987888D02*
X10903515Y-15949793D01*
X10903515Y-15949793D02*
X10903515Y-15902174D01*
X10903515Y-15902174D02*
X10913039Y-15864079D01*
X10913039Y-15864079D02*
X10922563Y-15845031D01*
X10922563Y-15845031D02*
X10932087Y-15835508D01*
X10932087Y-15835508D02*
X10951134Y-15825984D01*
X11103515Y-16006936D02*
X11113039Y-16016460D01*
X11113039Y-16016460D02*
X11103515Y-16025984D01*
X11103515Y-16025984D02*
X11093991Y-16016460D01*
X11093991Y-16016460D02*
X11103515Y-16006936D01*
X11103515Y-16006936D02*
X11103515Y-16025984D01*
X11236848Y-15825984D02*
X11255896Y-15825984D01*
X11255896Y-15825984D02*
X11274944Y-15835508D01*
X11274944Y-15835508D02*
X11284467Y-15845031D01*
X11284467Y-15845031D02*
X11293991Y-15864079D01*
X11293991Y-15864079D02*
X11303515Y-15902174D01*
X11303515Y-15902174D02*
X11303515Y-15949793D01*
X11303515Y-15949793D02*
X11293991Y-15987888D01*
X11293991Y-15987888D02*
X11284467Y-16006936D01*
X11284467Y-16006936D02*
X11274944Y-16016460D01*
X11274944Y-16016460D02*
X11255896Y-16025984D01*
X11255896Y-16025984D02*
X11236848Y-16025984D01*
X11236848Y-16025984D02*
X11217801Y-16016460D01*
X11217801Y-16016460D02*
X11208277Y-16006936D01*
X11208277Y-16006936D02*
X11198753Y-15987888D01*
X11198753Y-15987888D02*
X11189229Y-15949793D01*
X11189229Y-15949793D02*
X11189229Y-15902174D01*
X11189229Y-15902174D02*
X11198753Y-15864079D01*
X11198753Y-15864079D02*
X11208277Y-15845031D01*
X11208277Y-15845031D02*
X11217801Y-15835508D01*
X11217801Y-15835508D02*
X11236848Y-15825984D01*
X11484467Y-15825984D02*
X11389229Y-15825984D01*
X11389229Y-15825984D02*
X11379706Y-15921222D01*
X11379706Y-15921222D02*
X11389229Y-15911698D01*
X11389229Y-15911698D02*
X11408277Y-15902174D01*
X11408277Y-15902174D02*
X11455896Y-15902174D01*
X11455896Y-15902174D02*
X11474944Y-15911698D01*
X11474944Y-15911698D02*
X11484467Y-15921222D01*
X11484467Y-15921222D02*
X11493991Y-15940269D01*
X11493991Y-15940269D02*
X11493991Y-15987888D01*
X11493991Y-15987888D02*
X11484467Y-16006936D01*
X11484467Y-16006936D02*
X11474944Y-16016460D01*
X11474944Y-16016460D02*
X11455896Y-16025984D01*
X11455896Y-16025984D02*
X11408277Y-16025984D01*
X11408277Y-16025984D02*
X11389229Y-16016460D01*
X11389229Y-16016460D02*
X11379706Y-16006936D01*
X11589229Y-16025984D02*
X11627325Y-16025984D01*
X11627325Y-16025984D02*
X11646372Y-16016460D01*
X11646372Y-16016460D02*
X11655896Y-16006936D01*
X11655896Y-16006936D02*
X11674944Y-15978365D01*
X11674944Y-15978365D02*
X11684467Y-15940269D01*
X11684467Y-15940269D02*
X11684467Y-15864079D01*
X11684467Y-15864079D02*
X11674944Y-15845031D01*
X11674944Y-15845031D02*
X11665420Y-15835508D01*
X11665420Y-15835508D02*
X11646372Y-15825984D01*
X11646372Y-15825984D02*
X11608277Y-15825984D01*
X11608277Y-15825984D02*
X11589229Y-15835508D01*
X11589229Y-15835508D02*
X11579706Y-15845031D01*
X11579706Y-15845031D02*
X11570182Y-15864079D01*
X11570182Y-15864079D02*
X11570182Y-15911698D01*
X11570182Y-15911698D02*
X11579706Y-15930746D01*
X11579706Y-15930746D02*
X11589229Y-15940269D01*
X11589229Y-15940269D02*
X11608277Y-15949793D01*
X11608277Y-15949793D02*
X11646372Y-15949793D01*
X11646372Y-15949793D02*
X11665420Y-15940269D01*
X11665420Y-15940269D02*
X11674944Y-15930746D01*
X11674944Y-15930746D02*
X11684467Y-15911698D01*
X11874944Y-16025984D02*
X11760658Y-16025984D01*
X11817801Y-16025984D02*
X11817801Y-15825984D01*
X11817801Y-15825984D02*
X11798753Y-15854555D01*
X11798753Y-15854555D02*
X11779706Y-15873603D01*
X11779706Y-15873603D02*
X11760658Y-15883127D01*
X11951134Y-15825984D02*
X11951134Y-15864079D01*
X12027325Y-15825984D02*
X12027325Y-15864079D01*
X12322563Y-16102174D02*
X12313039Y-16092650D01*
X12313039Y-16092650D02*
X12293991Y-16064079D01*
X12293991Y-16064079D02*
X12284468Y-16045031D01*
X12284468Y-16045031D02*
X12274944Y-16016460D01*
X12274944Y-16016460D02*
X12265420Y-15968841D01*
X12265420Y-15968841D02*
X12265420Y-15930746D01*
X12265420Y-15930746D02*
X12274944Y-15883127D01*
X12274944Y-15883127D02*
X12284468Y-15854555D01*
X12284468Y-15854555D02*
X12293991Y-15835508D01*
X12293991Y-15835508D02*
X12313039Y-15806936D01*
X12313039Y-15806936D02*
X12322563Y-15797412D01*
X12389229Y-15845031D02*
X12398753Y-15835508D01*
X12398753Y-15835508D02*
X12417801Y-15825984D01*
X12417801Y-15825984D02*
X12465420Y-15825984D01*
X12465420Y-15825984D02*
X12484468Y-15835508D01*
X12484468Y-15835508D02*
X12493991Y-15845031D01*
X12493991Y-15845031D02*
X12503515Y-15864079D01*
X12503515Y-15864079D02*
X12503515Y-15883127D01*
X12503515Y-15883127D02*
X12493991Y-15911698D01*
X12493991Y-15911698D02*
X12379706Y-16025984D01*
X12379706Y-16025984D02*
X12503515Y-16025984D01*
X12741610Y-16025984D02*
X12741610Y-15825984D01*
X12827325Y-16025984D02*
X12827325Y-15921222D01*
X12827325Y-15921222D02*
X12817801Y-15902174D01*
X12817801Y-15902174D02*
X12798753Y-15892650D01*
X12798753Y-15892650D02*
X12770182Y-15892650D01*
X12770182Y-15892650D02*
X12751134Y-15902174D01*
X12751134Y-15902174D02*
X12741610Y-15911698D01*
X12951134Y-16025984D02*
X12932087Y-16016460D01*
X12932087Y-16016460D02*
X12922563Y-16006936D01*
X12922563Y-16006936D02*
X12913039Y-15987888D01*
X12913039Y-15987888D02*
X12913039Y-15930746D01*
X12913039Y-15930746D02*
X12922563Y-15911698D01*
X12922563Y-15911698D02*
X12932087Y-15902174D01*
X12932087Y-15902174D02*
X12951134Y-15892650D01*
X12951134Y-15892650D02*
X12979706Y-15892650D01*
X12979706Y-15892650D02*
X12998753Y-15902174D01*
X12998753Y-15902174D02*
X13008277Y-15911698D01*
X13008277Y-15911698D02*
X13017801Y-15930746D01*
X13017801Y-15930746D02*
X13017801Y-15987888D01*
X13017801Y-15987888D02*
X13008277Y-16006936D01*
X13008277Y-16006936D02*
X12998753Y-16016460D01*
X12998753Y-16016460D02*
X12979706Y-16025984D01*
X12979706Y-16025984D02*
X12951134Y-16025984D01*
X13132087Y-16025984D02*
X13113039Y-16016460D01*
X13113039Y-16016460D02*
X13103515Y-15997412D01*
X13103515Y-15997412D02*
X13103515Y-15825984D01*
X13284468Y-16016460D02*
X13265420Y-16025984D01*
X13265420Y-16025984D02*
X13227325Y-16025984D01*
X13227325Y-16025984D02*
X13208277Y-16016460D01*
X13208277Y-16016460D02*
X13198753Y-15997412D01*
X13198753Y-15997412D02*
X13198753Y-15921222D01*
X13198753Y-15921222D02*
X13208277Y-15902174D01*
X13208277Y-15902174D02*
X13227325Y-15892650D01*
X13227325Y-15892650D02*
X13265420Y-15892650D01*
X13265420Y-15892650D02*
X13284468Y-15902174D01*
X13284468Y-15902174D02*
X13293991Y-15921222D01*
X13293991Y-15921222D02*
X13293991Y-15940269D01*
X13293991Y-15940269D02*
X13198753Y-15959317D01*
X13370182Y-16016460D02*
X13389230Y-16025984D01*
X13389230Y-16025984D02*
X13427325Y-16025984D01*
X13427325Y-16025984D02*
X13446372Y-16016460D01*
X13446372Y-16016460D02*
X13455896Y-15997412D01*
X13455896Y-15997412D02*
X13455896Y-15987888D01*
X13455896Y-15987888D02*
X13446372Y-15968841D01*
X13446372Y-15968841D02*
X13427325Y-15959317D01*
X13427325Y-15959317D02*
X13398753Y-15959317D01*
X13398753Y-15959317D02*
X13379706Y-15949793D01*
X13379706Y-15949793D02*
X13370182Y-15930746D01*
X13370182Y-15930746D02*
X13370182Y-15921222D01*
X13370182Y-15921222D02*
X13379706Y-15902174D01*
X13379706Y-15902174D02*
X13398753Y-15892650D01*
X13398753Y-15892650D02*
X13427325Y-15892650D01*
X13427325Y-15892650D02*
X13446372Y-15902174D01*
X13522563Y-16102174D02*
X13532087Y-16092650D01*
X13532087Y-16092650D02*
X13551134Y-16064079D01*
X13551134Y-16064079D02*
X13560658Y-16045031D01*
X13560658Y-16045031D02*
X13570182Y-16016460D01*
X13570182Y-16016460D02*
X13579706Y-15968841D01*
X13579706Y-15968841D02*
X13579706Y-15930746D01*
X13579706Y-15930746D02*
X13570182Y-15883127D01*
X13570182Y-15883127D02*
X13560658Y-15854555D01*
X13560658Y-15854555D02*
X13551134Y-15835508D01*
X13551134Y-15835508D02*
X13532087Y-15806936D01*
X13532087Y-15806936D02*
X13522563Y-15797412D01*
X8647500Y-16304500D02*
X8747500Y-16204500D01*
X8647500Y-16104500D01*
X8547500Y-16204500D01*
X8647500Y-16304500D01*
X8998753Y-16115031D02*
X9008277Y-16105508D01*
X9008277Y-16105508D02*
X9027324Y-16095984D01*
X9027324Y-16095984D02*
X9074944Y-16095984D01*
X9074944Y-16095984D02*
X9093991Y-16105508D01*
X9093991Y-16105508D02*
X9103515Y-16115031D01*
X9103515Y-16115031D02*
X9113039Y-16134079D01*
X9113039Y-16134079D02*
X9113039Y-16153127D01*
X9113039Y-16153127D02*
X9103515Y-16181698D01*
X9103515Y-16181698D02*
X8989229Y-16295984D01*
X8989229Y-16295984D02*
X9113039Y-16295984D01*
X9198753Y-16276936D02*
X9208277Y-16286460D01*
X9208277Y-16286460D02*
X9198753Y-16295984D01*
X9198753Y-16295984D02*
X9189229Y-16286460D01*
X9189229Y-16286460D02*
X9198753Y-16276936D01*
X9198753Y-16276936D02*
X9198753Y-16295984D01*
X9379705Y-16095984D02*
X9341610Y-16095984D01*
X9341610Y-16095984D02*
X9322563Y-16105508D01*
X9322563Y-16105508D02*
X9313039Y-16115031D01*
X9313039Y-16115031D02*
X9293991Y-16143603D01*
X9293991Y-16143603D02*
X9284467Y-16181698D01*
X9284467Y-16181698D02*
X9284467Y-16257888D01*
X9284467Y-16257888D02*
X9293991Y-16276936D01*
X9293991Y-16276936D02*
X9303515Y-16286460D01*
X9303515Y-16286460D02*
X9322563Y-16295984D01*
X9322563Y-16295984D02*
X9360658Y-16295984D01*
X9360658Y-16295984D02*
X9379705Y-16286460D01*
X9379705Y-16286460D02*
X9389229Y-16276936D01*
X9389229Y-16276936D02*
X9398753Y-16257888D01*
X9398753Y-16257888D02*
X9398753Y-16210269D01*
X9398753Y-16210269D02*
X9389229Y-16191222D01*
X9389229Y-16191222D02*
X9379705Y-16181698D01*
X9379705Y-16181698D02*
X9360658Y-16172174D01*
X9360658Y-16172174D02*
X9322563Y-16172174D01*
X9322563Y-16172174D02*
X9303515Y-16181698D01*
X9303515Y-16181698D02*
X9293991Y-16191222D01*
X9293991Y-16191222D02*
X9284467Y-16210269D01*
X9522563Y-16095984D02*
X9541610Y-16095984D01*
X9541610Y-16095984D02*
X9560658Y-16105508D01*
X9560658Y-16105508D02*
X9570182Y-16115031D01*
X9570182Y-16115031D02*
X9579705Y-16134079D01*
X9579705Y-16134079D02*
X9589229Y-16172174D01*
X9589229Y-16172174D02*
X9589229Y-16219793D01*
X9589229Y-16219793D02*
X9579705Y-16257888D01*
X9579705Y-16257888D02*
X9570182Y-16276936D01*
X9570182Y-16276936D02*
X9560658Y-16286460D01*
X9560658Y-16286460D02*
X9541610Y-16295984D01*
X9541610Y-16295984D02*
X9522563Y-16295984D01*
X9522563Y-16295984D02*
X9503515Y-16286460D01*
X9503515Y-16286460D02*
X9493991Y-16276936D01*
X9493991Y-16276936D02*
X9484467Y-16257888D01*
X9484467Y-16257888D02*
X9474944Y-16219793D01*
X9474944Y-16219793D02*
X9474944Y-16172174D01*
X9474944Y-16172174D02*
X9484467Y-16134079D01*
X9484467Y-16134079D02*
X9493991Y-16115031D01*
X9493991Y-16115031D02*
X9503515Y-16105508D01*
X9503515Y-16105508D02*
X9522563Y-16095984D01*
X9713039Y-16095984D02*
X9732086Y-16095984D01*
X9732086Y-16095984D02*
X9751134Y-16105508D01*
X9751134Y-16105508D02*
X9760658Y-16115031D01*
X9760658Y-16115031D02*
X9770182Y-16134079D01*
X9770182Y-16134079D02*
X9779705Y-16172174D01*
X9779705Y-16172174D02*
X9779705Y-16219793D01*
X9779705Y-16219793D02*
X9770182Y-16257888D01*
X9770182Y-16257888D02*
X9760658Y-16276936D01*
X9760658Y-16276936D02*
X9751134Y-16286460D01*
X9751134Y-16286460D02*
X9732086Y-16295984D01*
X9732086Y-16295984D02*
X9713039Y-16295984D01*
X9713039Y-16295984D02*
X9693991Y-16286460D01*
X9693991Y-16286460D02*
X9684467Y-16276936D01*
X9684467Y-16276936D02*
X9674944Y-16257888D01*
X9674944Y-16257888D02*
X9665420Y-16219793D01*
X9665420Y-16219793D02*
X9665420Y-16172174D01*
X9665420Y-16172174D02*
X9674944Y-16134079D01*
X9674944Y-16134079D02*
X9684467Y-16115031D01*
X9684467Y-16115031D02*
X9693991Y-16105508D01*
X9693991Y-16105508D02*
X9713039Y-16095984D01*
X9865420Y-16295984D02*
X9865420Y-16162650D01*
X9865420Y-16181698D02*
X9874944Y-16172174D01*
X9874944Y-16172174D02*
X9893991Y-16162650D01*
X9893991Y-16162650D02*
X9922563Y-16162650D01*
X9922563Y-16162650D02*
X9941610Y-16172174D01*
X9941610Y-16172174D02*
X9951134Y-16191222D01*
X9951134Y-16191222D02*
X9951134Y-16295984D01*
X9951134Y-16191222D02*
X9960658Y-16172174D01*
X9960658Y-16172174D02*
X9979705Y-16162650D01*
X9979705Y-16162650D02*
X10008277Y-16162650D01*
X10008277Y-16162650D02*
X10027325Y-16172174D01*
X10027325Y-16172174D02*
X10036848Y-16191222D01*
X10036848Y-16191222D02*
X10036848Y-16295984D01*
X10132086Y-16295984D02*
X10132086Y-16162650D01*
X10132086Y-16181698D02*
X10141610Y-16172174D01*
X10141610Y-16172174D02*
X10160658Y-16162650D01*
X10160658Y-16162650D02*
X10189229Y-16162650D01*
X10189229Y-16162650D02*
X10208277Y-16172174D01*
X10208277Y-16172174D02*
X10217801Y-16191222D01*
X10217801Y-16191222D02*
X10217801Y-16295984D01*
X10217801Y-16191222D02*
X10227325Y-16172174D01*
X10227325Y-16172174D02*
X10246372Y-16162650D01*
X10246372Y-16162650D02*
X10274944Y-16162650D01*
X10274944Y-16162650D02*
X10293991Y-16172174D01*
X10293991Y-16172174D02*
X10303515Y-16191222D01*
X10303515Y-16191222D02*
X10303515Y-16295984D01*
X10693991Y-16086460D02*
X10522563Y-16343603D01*
X10951134Y-16095984D02*
X10970182Y-16095984D01*
X10970182Y-16095984D02*
X10989229Y-16105508D01*
X10989229Y-16105508D02*
X10998753Y-16115031D01*
X10998753Y-16115031D02*
X11008277Y-16134079D01*
X11008277Y-16134079D02*
X11017801Y-16172174D01*
X11017801Y-16172174D02*
X11017801Y-16219793D01*
X11017801Y-16219793D02*
X11008277Y-16257888D01*
X11008277Y-16257888D02*
X10998753Y-16276936D01*
X10998753Y-16276936D02*
X10989229Y-16286460D01*
X10989229Y-16286460D02*
X10970182Y-16295984D01*
X10970182Y-16295984D02*
X10951134Y-16295984D01*
X10951134Y-16295984D02*
X10932087Y-16286460D01*
X10932087Y-16286460D02*
X10922563Y-16276936D01*
X10922563Y-16276936D02*
X10913039Y-16257888D01*
X10913039Y-16257888D02*
X10903515Y-16219793D01*
X10903515Y-16219793D02*
X10903515Y-16172174D01*
X10903515Y-16172174D02*
X10913039Y-16134079D01*
X10913039Y-16134079D02*
X10922563Y-16115031D01*
X10922563Y-16115031D02*
X10932087Y-16105508D01*
X10932087Y-16105508D02*
X10951134Y-16095984D01*
X11103515Y-16276936D02*
X11113039Y-16286460D01*
X11113039Y-16286460D02*
X11103515Y-16295984D01*
X11103515Y-16295984D02*
X11093991Y-16286460D01*
X11093991Y-16286460D02*
X11103515Y-16276936D01*
X11103515Y-16276936D02*
X11103515Y-16295984D01*
X11303515Y-16295984D02*
X11189229Y-16295984D01*
X11246372Y-16295984D02*
X11246372Y-16095984D01*
X11246372Y-16095984D02*
X11227325Y-16124555D01*
X11227325Y-16124555D02*
X11208277Y-16143603D01*
X11208277Y-16143603D02*
X11189229Y-16153127D01*
X11427325Y-16095984D02*
X11446372Y-16095984D01*
X11446372Y-16095984D02*
X11465420Y-16105508D01*
X11465420Y-16105508D02*
X11474944Y-16115031D01*
X11474944Y-16115031D02*
X11484467Y-16134079D01*
X11484467Y-16134079D02*
X11493991Y-16172174D01*
X11493991Y-16172174D02*
X11493991Y-16219793D01*
X11493991Y-16219793D02*
X11484467Y-16257888D01*
X11484467Y-16257888D02*
X11474944Y-16276936D01*
X11474944Y-16276936D02*
X11465420Y-16286460D01*
X11465420Y-16286460D02*
X11446372Y-16295984D01*
X11446372Y-16295984D02*
X11427325Y-16295984D01*
X11427325Y-16295984D02*
X11408277Y-16286460D01*
X11408277Y-16286460D02*
X11398753Y-16276936D01*
X11398753Y-16276936D02*
X11389229Y-16257888D01*
X11389229Y-16257888D02*
X11379706Y-16219793D01*
X11379706Y-16219793D02*
X11379706Y-16172174D01*
X11379706Y-16172174D02*
X11389229Y-16134079D01*
X11389229Y-16134079D02*
X11398753Y-16115031D01*
X11398753Y-16115031D02*
X11408277Y-16105508D01*
X11408277Y-16105508D02*
X11427325Y-16095984D01*
X11570182Y-16115031D02*
X11579706Y-16105508D01*
X11579706Y-16105508D02*
X11598753Y-16095984D01*
X11598753Y-16095984D02*
X11646372Y-16095984D01*
X11646372Y-16095984D02*
X11665420Y-16105508D01*
X11665420Y-16105508D02*
X11674944Y-16115031D01*
X11674944Y-16115031D02*
X11684467Y-16134079D01*
X11684467Y-16134079D02*
X11684467Y-16153127D01*
X11684467Y-16153127D02*
X11674944Y-16181698D01*
X11674944Y-16181698D02*
X11560658Y-16295984D01*
X11560658Y-16295984D02*
X11684467Y-16295984D01*
X11855896Y-16162650D02*
X11855896Y-16295984D01*
X11808277Y-16086460D02*
X11760658Y-16229317D01*
X11760658Y-16229317D02*
X11884467Y-16229317D01*
X11951134Y-16095984D02*
X11951134Y-16134079D01*
X12027325Y-16095984D02*
X12027325Y-16134079D01*
X12322563Y-16372174D02*
X12313039Y-16362650D01*
X12313039Y-16362650D02*
X12293991Y-16334079D01*
X12293991Y-16334079D02*
X12284468Y-16315031D01*
X12284468Y-16315031D02*
X12274944Y-16286460D01*
X12274944Y-16286460D02*
X12265420Y-16238841D01*
X12265420Y-16238841D02*
X12265420Y-16200746D01*
X12265420Y-16200746D02*
X12274944Y-16153127D01*
X12274944Y-16153127D02*
X12284468Y-16124555D01*
X12284468Y-16124555D02*
X12293991Y-16105508D01*
X12293991Y-16105508D02*
X12313039Y-16076936D01*
X12313039Y-16076936D02*
X12322563Y-16067412D01*
X12389229Y-16115031D02*
X12398753Y-16105508D01*
X12398753Y-16105508D02*
X12417801Y-16095984D01*
X12417801Y-16095984D02*
X12465420Y-16095984D01*
X12465420Y-16095984D02*
X12484468Y-16105508D01*
X12484468Y-16105508D02*
X12493991Y-16115031D01*
X12493991Y-16115031D02*
X12503515Y-16134079D01*
X12503515Y-16134079D02*
X12503515Y-16153127D01*
X12503515Y-16153127D02*
X12493991Y-16181698D01*
X12493991Y-16181698D02*
X12379706Y-16295984D01*
X12379706Y-16295984D02*
X12503515Y-16295984D01*
X12741610Y-16295984D02*
X12741610Y-16095984D01*
X12827325Y-16295984D02*
X12827325Y-16191222D01*
X12827325Y-16191222D02*
X12817801Y-16172174D01*
X12817801Y-16172174D02*
X12798753Y-16162650D01*
X12798753Y-16162650D02*
X12770182Y-16162650D01*
X12770182Y-16162650D02*
X12751134Y-16172174D01*
X12751134Y-16172174D02*
X12741610Y-16181698D01*
X12951134Y-16295984D02*
X12932087Y-16286460D01*
X12932087Y-16286460D02*
X12922563Y-16276936D01*
X12922563Y-16276936D02*
X12913039Y-16257888D01*
X12913039Y-16257888D02*
X12913039Y-16200746D01*
X12913039Y-16200746D02*
X12922563Y-16181698D01*
X12922563Y-16181698D02*
X12932087Y-16172174D01*
X12932087Y-16172174D02*
X12951134Y-16162650D01*
X12951134Y-16162650D02*
X12979706Y-16162650D01*
X12979706Y-16162650D02*
X12998753Y-16172174D01*
X12998753Y-16172174D02*
X13008277Y-16181698D01*
X13008277Y-16181698D02*
X13017801Y-16200746D01*
X13017801Y-16200746D02*
X13017801Y-16257888D01*
X13017801Y-16257888D02*
X13008277Y-16276936D01*
X13008277Y-16276936D02*
X12998753Y-16286460D01*
X12998753Y-16286460D02*
X12979706Y-16295984D01*
X12979706Y-16295984D02*
X12951134Y-16295984D01*
X13132087Y-16295984D02*
X13113039Y-16286460D01*
X13113039Y-16286460D02*
X13103515Y-16267412D01*
X13103515Y-16267412D02*
X13103515Y-16095984D01*
X13284468Y-16286460D02*
X13265420Y-16295984D01*
X13265420Y-16295984D02*
X13227325Y-16295984D01*
X13227325Y-16295984D02*
X13208277Y-16286460D01*
X13208277Y-16286460D02*
X13198753Y-16267412D01*
X13198753Y-16267412D02*
X13198753Y-16191222D01*
X13198753Y-16191222D02*
X13208277Y-16172174D01*
X13208277Y-16172174D02*
X13227325Y-16162650D01*
X13227325Y-16162650D02*
X13265420Y-16162650D01*
X13265420Y-16162650D02*
X13284468Y-16172174D01*
X13284468Y-16172174D02*
X13293991Y-16191222D01*
X13293991Y-16191222D02*
X13293991Y-16210269D01*
X13293991Y-16210269D02*
X13198753Y-16229317D01*
X13370182Y-16286460D02*
X13389230Y-16295984D01*
X13389230Y-16295984D02*
X13427325Y-16295984D01*
X13427325Y-16295984D02*
X13446372Y-16286460D01*
X13446372Y-16286460D02*
X13455896Y-16267412D01*
X13455896Y-16267412D02*
X13455896Y-16257888D01*
X13455896Y-16257888D02*
X13446372Y-16238841D01*
X13446372Y-16238841D02*
X13427325Y-16229317D01*
X13427325Y-16229317D02*
X13398753Y-16229317D01*
X13398753Y-16229317D02*
X13379706Y-16219793D01*
X13379706Y-16219793D02*
X13370182Y-16200746D01*
X13370182Y-16200746D02*
X13370182Y-16191222D01*
X13370182Y-16191222D02*
X13379706Y-16172174D01*
X13379706Y-16172174D02*
X13398753Y-16162650D01*
X13398753Y-16162650D02*
X13427325Y-16162650D01*
X13427325Y-16162650D02*
X13446372Y-16172174D01*
X13522563Y-16372174D02*
X13532087Y-16362650D01*
X13532087Y-16362650D02*
X13551134Y-16334079D01*
X13551134Y-16334079D02*
X13560658Y-16315031D01*
X13560658Y-16315031D02*
X13570182Y-16286460D01*
X13570182Y-16286460D02*
X13579706Y-16238841D01*
X13579706Y-16238841D02*
X13579706Y-16200746D01*
X13579706Y-16200746D02*
X13570182Y-16153127D01*
X13570182Y-16153127D02*
X13560658Y-16124555D01*
X13560658Y-16124555D02*
X13551134Y-16105508D01*
X13551134Y-16105508D02*
X13532087Y-16076936D01*
X13532087Y-16076936D02*
X13522563Y-16067412D01*
M02*
