%TF.GenerationSoftware,KiCad,Pcbnew,8.0.6*%
%TF.CreationDate,2026-08-27T20:10:11-04:00*%
%TF.ProjectId,miniextremeV1.1FINAL,6d696e69-6578-4747-9265-6d6556312e31,rev?*%
%TF.SameCoordinates,Original*%
%TF.FileFunction,Soldermask,Top*%
%TF.FilePolarity,Negative*%
%FSLAX46Y46*%
G04 Gerber Fmt 4.6, Leading zero omitted, Abs format (unit mm)*
G04 Created by KiCad (PCBNEW 8.0.6) date 2026-08-27 20:10:11*
%MOMM*%
%LPD*%
G01*
G04 APERTURE LIST*
%ADD10R,1.400000X1.600000*%
%ADD11C,1.700000*%
%ADD12O,1.700000X1.700000*%
%ADD13R,1.700000X1.700000*%
%ADD14R,2.000000X2.000000*%
%ADD15C,2.000000*%
%ADD16C,3.200000*%
%ADD17C,2.200000*%
%ADD18O,3.500000X2.200000*%
%ADD19O,2.500000X1.500000*%
G04 APERTURE END LIST*
D10*
%TO.C,B1*%
X107750000Y-132500000D03*
X107750000Y-140500000D03*
X103250000Y-132500000D03*
X103250000Y-140500000D03*
%TD*%
D11*
%TO.C,J2*%
X128025000Y-95200000D03*
D12*
X128025000Y-97740000D03*
D13*
X128025000Y-100280000D03*
X128025000Y-102820000D03*
%TD*%
D14*
%TO.C,SW1*%
X122000000Y-138750000D03*
D15*
X117000000Y-138750000D03*
D16*
X113900000Y-131750000D03*
X125100000Y-131750000D03*
D14*
X119500000Y-124250000D03*
D15*
X117000000Y-124250000D03*
X122000000Y-124250000D03*
%TD*%
D10*
%TO.C,A1*%
X96750000Y-126500000D03*
X96750000Y-134500000D03*
X92250000Y-126500000D03*
X92250000Y-134500000D03*
%TD*%
D17*
%TO.C,REF\u002A\u002A*%
X129000000Y-142500000D03*
%TD*%
D18*
%TO.C,SW2*%
X128200000Y-88300000D03*
X128200000Y-80100000D03*
D19*
X128200000Y-86200000D03*
X128200000Y-84200000D03*
X128200000Y-82200000D03*
%TD*%
D11*
%TO.C,J1*%
X91500000Y-108225000D03*
D13*
X91500000Y-110765000D03*
%TD*%
D11*
%TO.C,J4*%
X91500000Y-79000000D03*
D13*
X91500000Y-81540000D03*
D12*
X91500000Y-84080000D03*
X91500000Y-86620000D03*
X91500000Y-89160000D03*
X91500000Y-91700000D03*
X91500000Y-94240000D03*
X91500000Y-96780000D03*
X91500000Y-99320000D03*
%TD*%
D11*
%TO.C,J3*%
X116540000Y-116500000D03*
D12*
X114000000Y-116500000D03*
X111460000Y-116500000D03*
X108920000Y-116500000D03*
X106380000Y-116500000D03*
X103840000Y-116500000D03*
X101300000Y-116500000D03*
D13*
X98760000Y-116500000D03*
%TD*%
D17*
%TO.C,REF\u002A\u002A*%
X90000000Y-142500000D03*
%TD*%
D11*
%TO.C,J6*%
X107000000Y-78960000D03*
D12*
X107000000Y-81500000D03*
X107000000Y-84040000D03*
X107000000Y-86580000D03*
X107000000Y-89120000D03*
X107000000Y-91660000D03*
X107000000Y-94200000D03*
X107000000Y-96740000D03*
X107000000Y-99280000D03*
%TD*%
M02*
