%TF.GenerationSoftware,KiCad,Pcbnew,8.0.6*%
%TF.CreationDate,2026-08-27T20:10:10-04:00*%
%TF.ProjectId,miniextremeV1.1FINAL,6d696e69-6578-4747-9265-6d6556312e31,rev?*%
%TF.SameCoordinates,Original*%
%TF.FileFunction,Copper,L1,Top*%
%TF.FilePolarity,Positive*%
%FSLAX46Y46*%
G04 Gerber Fmt 4.6, Leading zero omitted, Abs format (unit mm)*
G04 Created by KiCad (PCBNEW 8.0.6) date 2026-08-27 20:10:10*
%MOMM*%
%LPD*%
G01*
G04 APERTURE LIST*
%TA.AperFunction,SMDPad,CuDef*%
%ADD10R,1.400000X1.600000*%
%TD*%
%TA.AperFunction,ComponentPad*%
%ADD11C,1.700000*%
%TD*%
%TA.AperFunction,ComponentPad*%
%ADD12O,1.700000X1.700000*%
%TD*%
%TA.AperFunction,ComponentPad*%
%ADD13R,1.700000X1.700000*%
%TD*%
%TA.AperFunction,ComponentPad*%
%ADD14R,2.000000X2.000000*%
%TD*%
%TA.AperFunction,ComponentPad*%
%ADD15C,2.000000*%
%TD*%
%TA.AperFunction,ComponentPad*%
%ADD16C,3.200000*%
%TD*%
%TA.AperFunction,ComponentPad*%
%ADD17O,3.500000X2.200000*%
%TD*%
%TA.AperFunction,ComponentPad*%
%ADD18O,2.500000X1.500000*%
%TD*%
%TA.AperFunction,ViaPad*%
%ADD19C,0.600000*%
%TD*%
%TA.AperFunction,Conductor*%
%ADD20C,0.500000*%
%TD*%
%TA.AperFunction,Conductor*%
%ADD21C,1.500000*%
%TD*%
%TA.AperFunction,Conductor*%
%ADD22C,1.000000*%
%TD*%
%TA.AperFunction,Conductor*%
%ADD23C,0.300000*%
%TD*%
G04 APERTURE END LIST*
D10*
%TO.P,B1,1,1*%
%TO.N,BBTN*%
X107750000Y-132500000D03*
X107750000Y-140500000D03*
%TO.P,B1,2,2*%
%TO.N,GND*%
X103250000Y-132500000D03*
X103250000Y-140500000D03*
%TD*%
D11*
%TO.P,J2,1,Pin_1*%
%TO.N,Net-(J2-Pin_1)*%
X128025000Y-95200000D03*
D12*
%TO.P,J2,2,Pin_2*%
X128025000Y-97740000D03*
D13*
%TO.P,J2,3,Pin_3*%
%TO.N,GND*%
X128025000Y-100280000D03*
%TO.P,J2,4,Pin_4*%
X128025000Y-102820000D03*
%TD*%
D14*
%TO.P,SW1,S2,S2*%
%TO.N,GND*%
X122000000Y-138750000D03*
D15*
%TO.P,SW1,S1,S1*%
%TO.N,EC_SW*%
X117000000Y-138750000D03*
D16*
%TO.P,SW1,MP*%
%TO.N,N/C*%
X113900000Y-131750000D03*
X125100000Y-131750000D03*
D14*
%TO.P,SW1,C,C*%
%TO.N,GND*%
X119500000Y-124250000D03*
D15*
%TO.P,SW1,B,B*%
%TO.N,B{slash}DT*%
X117000000Y-124250000D03*
%TO.P,SW1,A,A*%
%TO.N,A{slash}CLK*%
X122000000Y-124250000D03*
%TD*%
D10*
%TO.P,A1,1,1*%
%TO.N,GND*%
X96750000Y-126500000D03*
X96750000Y-134500000D03*
%TO.P,A1,2,2*%
%TO.N,ABTN*%
X92250000Y-126500000D03*
X92250000Y-134500000D03*
%TD*%
D17*
%TO.P,SW2,*%
%TO.N,*%
X128200000Y-88300000D03*
X128200000Y-80100000D03*
D18*
%TO.P,SW2,1,A*%
%TO.N,+5V*%
X128200000Y-86200000D03*
%TO.P,SW2,2,B*%
%TO.N,Net-(J2-Pin_1)*%
X128200000Y-84200000D03*
%TO.P,SW2,3*%
%TO.N,N/C*%
X128200000Y-82200000D03*
%TD*%
D11*
%TO.P,J1,1,Pin_1*%
%TO.N,Net-(J1-Pin_1)*%
X91500000Y-108225000D03*
D13*
%TO.P,J1,2,Pin_2*%
%TO.N,GND*%
X91500000Y-110765000D03*
%TD*%
D11*
%TO.P,J4,1,Pin_1*%
%TO.N,+5V*%
X91500000Y-79000000D03*
D13*
%TO.P,J4,2,Pin_2*%
%TO.N,GND*%
X91500000Y-81540000D03*
D12*
%TO.P,J4,3,Pin_3*%
%TO.N,+3.3V*%
X91500000Y-84080000D03*
%TO.P,J4,4,Pin_4*%
%TO.N,A{slash}CLK*%
X91500000Y-86620000D03*
%TO.P,J4,5,Pin_5*%
%TO.N,B{slash}DT*%
X91500000Y-89160000D03*
%TO.P,J4,6,Pin_6*%
%TO.N,EC_SW*%
X91500000Y-91700000D03*
%TO.P,J4,7,Pin_7*%
%TO.N,ABTN*%
X91500000Y-94240000D03*
%TO.P,J4,8,Pin_8*%
%TO.N,BBTN*%
X91500000Y-96780000D03*
%TO.P,J4,9,Pin_9*%
%TO.N,Net-(J1-Pin_1)*%
X91500000Y-99320000D03*
%TD*%
D11*
%TO.P,J3,1,Pin_1*%
%TO.N,TFT BL*%
X116540000Y-116500000D03*
D12*
%TO.P,J3,2,Pin_2*%
%TO.N,TFT CS*%
X114000000Y-116500000D03*
%TO.P,J3,3,Pin_3*%
%TO.N,TFT DC*%
X111460000Y-116500000D03*
%TO.P,J3,4,Pin_4*%
%TO.N,TFT RST*%
X108920000Y-116500000D03*
%TO.P,J3,5,Pin_5*%
%TO.N,TFT SDA*%
X106380000Y-116500000D03*
%TO.P,J3,6,Pin_6*%
%TO.N,TFT SCL*%
X103840000Y-116500000D03*
%TO.P,J3,7,Pin_7*%
%TO.N,+3.3V*%
X101300000Y-116500000D03*
D13*
%TO.P,J3,8,Pin_8*%
%TO.N,GND*%
X98760000Y-116500000D03*
%TD*%
D11*
%TO.P,J6,1,Pin_1*%
%TO.N,unconnected-(J6-Pin_1-Pad1)*%
X107000000Y-78960000D03*
D12*
%TO.P,J6,2,Pin_2*%
%TO.N,unconnected-(J6-Pin_2-Pad2)*%
X107000000Y-81500000D03*
%TO.P,J6,3,Pin_3*%
%TO.N,unconnected-(J6-Pin_3-Pad3)*%
X107000000Y-84040000D03*
%TO.P,J6,4,Pin_4*%
%TO.N,TFT SCL*%
X107000000Y-86580000D03*
%TO.P,J6,5,Pin_5*%
%TO.N,TFT SDA*%
X107000000Y-89120000D03*
%TO.P,J6,6,Pin_6*%
%TO.N,TFT CS*%
X107000000Y-91660000D03*
%TO.P,J6,7,Pin_7*%
%TO.N,TFT DC*%
X107000000Y-94200000D03*
%TO.P,J6,8,Pin_8*%
%TO.N,TFT BL*%
X107000000Y-96740000D03*
%TO.P,J6,9,Pin_9*%
%TO.N,TFT RST*%
X107000000Y-99280000D03*
%TD*%
D19*
%TO.N,TFT CS*%
X104000000Y-97500000D03*
%TO.N,TFT RST*%
X102000000Y-102000000D03*
%TD*%
D20*
%TO.N,+3.3V*%
X97500000Y-90030592D02*
G75*
G03*
X95746810Y-85798052I-5985700J-8D01*
G01*
X93200351Y-84080000D02*
X91500000Y-84080000D01*
X95746820Y-85798042D02*
X94614564Y-84665786D01*
X100714213Y-113214213D02*
X98085786Y-110585786D01*
X101300000Y-116500000D02*
X101300000Y-114628427D01*
X97500000Y-109171573D02*
X97500000Y-90030592D01*
X98085786Y-110585786D02*
G75*
G02*
X97500019Y-109171573I1414214J1414186D01*
G01*
X101300000Y-114628427D02*
G75*
G03*
X100714227Y-113214199I-2000000J27D01*
G01*
X94614564Y-84665786D02*
G75*
G03*
X93200351Y-84080035I-1414164J-1414214D01*
G01*
%TO.N,TFT DC*%
X109372644Y-113544217D02*
G75*
G02*
X107958404Y-112958456I-44J2000017D01*
G01*
X106128427Y-94200000D02*
X107000000Y-94200000D01*
X103585787Y-95914213D02*
X104714214Y-94785786D01*
X103000000Y-107171573D02*
X103000000Y-97328427D01*
X110874213Y-114377113D02*
X110491739Y-113994639D01*
X107958430Y-112958430D02*
X103585786Y-108585786D01*
X104714214Y-94785786D02*
G75*
G02*
X106128427Y-94200019I1414186J-1414214D01*
G01*
X103000000Y-97328427D02*
G75*
G02*
X103585773Y-95914199I2000000J27D01*
G01*
X103585786Y-108585786D02*
G75*
G02*
X103000019Y-107171573I1414214J1414186D01*
G01*
X111460000Y-116500000D02*
X111460000Y-115791327D01*
X111460000Y-115791327D02*
G75*
G03*
X110874227Y-114377099I-2000000J27D01*
G01*
X109600812Y-113544217D02*
X109372644Y-113544217D01*
X110491739Y-113994639D02*
G75*
G03*
X109600818Y-113544190I-1347139J-1558161D01*
G01*
%TO.N,TFT BL*%
X116500000Y-116460000D02*
X116540000Y-116500000D01*
X115997934Y-113997934D02*
X116500000Y-114500000D01*
X115697475Y-113997934D02*
X115997934Y-113997934D01*
X111000000Y-99328427D02*
X111000000Y-109171573D01*
X109825786Y-97325786D02*
X110414213Y-97914213D01*
X107000000Y-96740000D02*
X108411573Y-96740000D01*
X110414213Y-97914213D02*
G75*
G02*
X110999981Y-99328427I-1414213J-1414187D01*
G01*
X114414214Y-113414214D02*
G75*
G03*
X115697474Y-113997949I1424386J1428914D01*
G01*
X111585787Y-110585787D02*
X114414214Y-113414214D01*
X116500000Y-114500000D02*
X116500000Y-116460000D01*
X108411573Y-96740000D02*
G75*
G02*
X109825800Y-97325772I27J-2000000D01*
G01*
X111000000Y-109171573D02*
G75*
G03*
X111585773Y-110585801I2000000J-27D01*
G01*
%TO.N,TFT SCL*%
X100093168Y-88906832D02*
G75*
G02*
X105710639Y-86580026I5617432J-5617468D01*
G01*
X103840000Y-116500000D02*
X103840000Y-115168427D01*
X99000000Y-108671573D02*
X99000000Y-91545975D01*
X99000000Y-91545975D02*
G75*
G02*
X100093183Y-88906847I3732300J-25D01*
G01*
X103254213Y-113754213D02*
X99585786Y-110085786D01*
X99585786Y-110085786D02*
G75*
G02*
X99000019Y-108671573I1414214J1414186D01*
G01*
X105710639Y-86580000D02*
X107000000Y-86580000D01*
X103840000Y-115168427D02*
G75*
G03*
X103254227Y-113754199I-2000000J27D01*
G01*
%TO.N,TFT CS*%
X104585786Y-108085786D02*
G75*
G02*
X104000019Y-106671573I1414214J1414186D01*
G01*
X109828427Y-112500000D02*
G75*
G02*
X108414199Y-111914227I-27J2000000D01*
G01*
X112085786Y-113085786D02*
G75*
G03*
X110671573Y-112500019I-1414186J-1414214D01*
G01*
X114000000Y-115828427D02*
G75*
G03*
X113414227Y-114414199I-2000000J27D01*
G01*
%TO.N,TFT RST*%
X102000000Y-107671573D02*
G75*
G03*
X102585772Y-109085800I2000000J-27D01*
G01*
X108920000Y-116248427D02*
G75*
G03*
X108334227Y-114834199I-2000000J27D01*
G01*
%TO.N,TFT SDA*%
X106380000Y-115708427D02*
G75*
G03*
X105794227Y-114294199I-2000000J27D01*
G01*
X100500000Y-93995762D02*
G75*
G02*
X101911225Y-90588811I4818200J-38D01*
G01*
X100500000Y-108171573D02*
G75*
G03*
X101085772Y-109585800I2000000J-27D01*
G01*
X105457187Y-89120000D02*
G75*
G03*
X101911208Y-90588794I13J-5014800D01*
G01*
%TO.N,TFT CS*%
X104000000Y-106671573D02*
X104000000Y-97500000D01*
X110671573Y-112500000D02*
X109828427Y-112500000D01*
X113414213Y-114414213D02*
X112085786Y-113085786D01*
X114000000Y-116500000D02*
X114000000Y-115828427D01*
X108414213Y-111914213D02*
X104585786Y-108085786D01*
%TO.N,TFT RST*%
X102000000Y-107671573D02*
X102000000Y-102000000D01*
X108334213Y-114834213D02*
X102585786Y-109085786D01*
X108920000Y-116500000D02*
X108920000Y-116248427D01*
%TO.N,TFT SDA*%
X100500000Y-108171573D02*
X100500000Y-93995762D01*
X105457187Y-89120000D02*
X107000000Y-89120000D01*
X105794213Y-114294213D02*
X101085786Y-109585786D01*
X106380000Y-116500000D02*
X106380000Y-115708427D01*
%TO.N,A{slash}CLK*%
X93288701Y-86620000D02*
G75*
G02*
X94702914Y-87205786I-1J-2000000D01*
G01*
X93288701Y-86620000D02*
X91500000Y-86620000D01*
X96005375Y-88508247D02*
X94702914Y-87205786D01*
X96500000Y-118171573D02*
X96500000Y-89831594D01*
X104414213Y-126914213D02*
X97085786Y-119585786D01*
X121414213Y-126585787D02*
X121085786Y-126914214D01*
X96500000Y-89831594D02*
G75*
G03*
X96005374Y-88508248I-2017600J-6D01*
G01*
X119671573Y-127500000D02*
X105828427Y-127500000D01*
X121085786Y-126914214D02*
G75*
G02*
X119671573Y-127499981I-1414186J1414214D01*
G01*
X122000000Y-125171573D02*
G75*
G02*
X121414227Y-126585801I-2000000J-27D01*
G01*
X105828427Y-127500000D02*
G75*
G02*
X104414199Y-126914227I-27J2000000D01*
G01*
X97085786Y-119585786D02*
G75*
G02*
X96500019Y-118171573I1414214J1414186D01*
G01*
X122000000Y-124250000D02*
X122000000Y-125171573D01*
%TO.N,ABTN*%
X88600000Y-116257359D02*
X88600000Y-95000000D01*
X92250000Y-134500000D02*
X92250000Y-126500000D01*
X88600000Y-95000000D02*
X88774214Y-94825786D01*
X90188427Y-94240000D02*
X91500000Y-94240000D01*
X92250000Y-126500000D02*
X92250000Y-122392641D01*
X91371320Y-120271320D02*
X89478679Y-118378679D01*
X89478679Y-118378679D02*
G75*
G02*
X88600029Y-116257359I2121321J2121279D01*
G01*
X90188427Y-94240000D02*
G75*
G03*
X88774200Y-94825772I-27J-2000000D01*
G01*
X91371320Y-120271320D02*
G75*
G02*
X92249971Y-122392641I-2121320J-2121280D01*
G01*
%TO.N,BBTN*%
X107750000Y-132500000D02*
X107750000Y-140500000D01*
%TO.N,Net-(J1-Pin_1)*%
X91500000Y-108225000D02*
X91500000Y-99320000D01*
D21*
%TO.N,Net-(J2-Pin_1)*%
X128025000Y-95200000D02*
X128025000Y-97740000D01*
D22*
%TO.N,+5V*%
X114257359Y-76500000D02*
X95242641Y-76500000D01*
X123500000Y-84500000D02*
X123250000Y-84250000D01*
X123250000Y-84250000D02*
X116378679Y-77378679D01*
X93121320Y-77378680D02*
X91500000Y-79000000D01*
X128200000Y-86200000D02*
X126442641Y-86200000D01*
X124321320Y-85321320D02*
X123500000Y-84500000D01*
X126442641Y-86200000D02*
G75*
G02*
X124321300Y-85321340I-41J3000000D01*
G01*
X95242641Y-76500000D02*
G75*
G03*
X93121300Y-77378660I-41J-3000000D01*
G01*
X116378679Y-77378679D02*
G75*
G03*
X114257359Y-76500029I-2121279J-2121321D01*
G01*
D20*
%TO.N,GND*%
X96750000Y-126500000D02*
X96750000Y-134500000D01*
X90502299Y-115925707D02*
X90502299Y-114002299D01*
X116507359Y-143000000D02*
X106992641Y-143000000D01*
D22*
X101000000Y-134500000D02*
X96750000Y-134500000D01*
D20*
X96750000Y-126500000D02*
X96750000Y-124492641D01*
X104871320Y-142121320D02*
X103250000Y-140500000D01*
X90502299Y-114002299D02*
X90500000Y-114000000D01*
X95871320Y-122371320D02*
X91378679Y-117878679D01*
D22*
X103250000Y-132500000D02*
X101250000Y-134500000D01*
D20*
X122000000Y-138750000D02*
X118628679Y-142121321D01*
X90514815Y-113985185D02*
X90514815Y-112657185D01*
X90500000Y-114000000D02*
X90514815Y-113985185D01*
D23*
X101250000Y-134500000D02*
X101000000Y-134500000D01*
D20*
X103250000Y-140500000D02*
X103250000Y-132500000D01*
X91378680Y-110886320D02*
X91500000Y-110765000D01*
D21*
X128025000Y-102820000D02*
X128025000Y-100280000D01*
D20*
X90514815Y-112657185D02*
G75*
G02*
X91378693Y-110886333I2986385J-360715D01*
G01*
X118628679Y-142121321D02*
G75*
G02*
X116507359Y-142999971I-2121279J2121321D01*
G01*
X96750000Y-124492641D02*
G75*
G03*
X95871340Y-122371300I-3000000J41D01*
G01*
X91378679Y-117878679D02*
G75*
G02*
X90502306Y-115925707I2137021J2132079D01*
G01*
X106992641Y-143000000D02*
G75*
G02*
X104871300Y-142121340I-41J3000000D01*
G01*
%TO.N,BBTN*%
X96378680Y-121128680D02*
X107750000Y-132500000D01*
X95500000Y-98468427D02*
X95500000Y-119007359D01*
X94914214Y-97054214D02*
G75*
G02*
X95499981Y-98468427I-1414214J-1414186D01*
G01*
X94640000Y-96780000D02*
X94914214Y-97054214D01*
X95500000Y-119007359D02*
G75*
G03*
X96378660Y-121128700I3000000J-41D01*
G01*
X91500000Y-96780000D02*
X94640000Y-96780000D01*
%TD*%
M02*
